<?xml version="1.0" encoding="utf-8"?>
<!-- Generator: Adobe Illustrator 16.0.0, SVG Export Plug-In . SVG Version: 6.00 Build 0)  -->
<!DOCTYPE svg PUBLIC "-//W3C//DTD SVG 1.1//EN" "http://www.w3.org/Graphics/SVG/1.1/DTD/svg11.dtd">
<svg version="1.1" id="Layer_1" xmlns="http://www.w3.org/2000/svg" xmlns:xlink="http://www.w3.org/1999/xlink" x="0px" y="0px"
	 width="110px" height="101px" viewBox="0 0 110 80" enable-background="new 0 0 110 80" xml:space="preserve">
<g>
	<path d="M108.469,62.049c-1.586-11.418-10.615-20.476-22.055-22.182c0,0-4.043-1.669-4.699-5.352c2.176,1,3.375,0.799,5.316,1
		v-14.71c-4.084,0.974-8.16,2.845-10.223,4.595c-0.146-3.31-7.998-0.501-7.998-0.501l-0.629,2.5c0,0,5.395-2.218,6.627,0.925
		c1.225,3.139,3.896,11.761,3.896,18.751c0,5.559-0.914,10.791-2.52,15.358L56.52,62.42c-2.136-1.83-3.417-4.186-3.417-6.762
		c0-4.744,4.282-8.408,9.776-10.246l0.675-0.273c0.815-0.459,1.364-1.324,1.364-2.334c0-1.478-1.211-2.679-2.711-2.679h-3.14V14.594
		h3.14v-6.56h-46.81v7.496h2.203v24.361h-5.343v5.311h18.852l0.043,0.896l-2.227,1.776H3.757v4.438h22l-1.458,2.81H10.37V58.6
		h12.666l-0.565,2.805H0v3.354h22.007c-0.007,0.301-0.013,0.604-0.013,0.903c0,0.674,0.02,1.342,0.072,2.004
		c0,0,3.643-0.043,5.816,0C27.275,68.363,28.755,80,39.513,80c10.759,0,12.463-11.365,11.747-12.332
		c0.539-0.029,28.212-0.018,28.855-0.018c-0.375,0.393,1.186,12.324,11.783,12.324c10.6,0,12.275-10.584,12.064-12.301
		c2.529-0.004,5.695,0.01,5.695,0.01v-5.637L108.469,62.049L108.469,62.049z"/>
	<ellipse fill="#FFFFFF" cx="39.592" cy="68.304" rx="7.858" ry="7.812"/>
	<path fill="#FFFFFF" d="M99.914,68.309c0,4.311-3.514,7.809-7.852,7.809c-4.346,0-7.857-3.5-7.857-7.809
		c0-4.316,3.514-7.809,7.857-7.809C96.4,60.502,99.914,63.99,99.914,68.309z"/>
	<ellipse cx="39.592" cy="68.304" rx="3.927" ry="3.903"/>
	<path d="M92.062,64.406c2.17,0,3.926,1.744,3.926,3.902c0,2.152-1.756,3.898-3.926,3.898c-2.164,0-3.922-1.746-3.922-3.898
		C88.141,66.15,89.898,64.406,92.062,64.406z"/>
</g>
<g>
	<path fill="#BF202E" d="M59.066,40.126V14.594h3.139v-6.56h-46.81v7.496h2.203v24.361L59.066,40.126z"/>
</g>
</svg>
