<?xml version="1.0" encoding="utf-8"?>
<!-- Generator: Adobe Illustrator 13.0.0, SVG Export Plug-In . SVG Version: 6.00 Build 14948)  -->
<!DOCTYPE svg PUBLIC "-//W3C//DTD SVG 1.1//EN" "http://www.w3.org/Graphics/SVG/1.1/DTD/svg11.dtd">
<svg version="1.1" id="Layer_1" xmlns="http://www.w3.org/2000/svg" xmlns:xlink="http://www.w3.org/1999/xlink" x="0px" y="0px"
	 width="32.713px" height="21.6px" viewBox="0 0 32.713 21.6" enable-background="new 0 0 32.713 21.6" xml:space="preserve">
<g>
	<path d="M31.509,16.062c-0.463-3.332-3.098-5.975-6.436-6.473c0,0-1.18-0.487-1.371-1.561c0.635,0.292,0.984,0.233,1.551,0.292
		V4.027c-1.191,0.284-2.381,0.83-2.982,1.34c-0.043-0.965-2.334-0.146-2.334-0.146L19.753,5.95c0,0,1.574-0.647,1.934,0.27
		c0.357,0.916,1.137,3.432,1.137,5.472c0,1.622-0.266,3.148-0.734,4.481l-5.74-0.003c-0.623-0.534-0.998-1.222-0.998-1.973
		c0-1.384,1.249-2.454,2.853-2.99l0.197-0.08c0.238-0.134,0.398-0.387,0.398-0.68c0-0.432-0.354-0.783-0.791-0.783h-0.916v-7.45
		h0.916V0.3H4.349v2.188h0.643v7.108H3.433v1.55h5.501l0.013,0.26l-0.65,0.519H0.953v1.296h6.42l-0.425,0.819H2.883v1.015h3.696
		l-0.165,0.818h-6.557v0.979h6.422c-0.002,0.088-0.004,0.176-0.004,0.263c0,0.197,0.006,0.392,0.021,0.585c0,0,1.063-0.012,1.697,0
		C7.816,17.905,8.248,21.3,11.387,21.3c3.14,0,3.637-3.316,3.428-3.599c0.157-0.008,8.233-0.004,8.42-0.004
		c-0.109,0.114,0.346,3.595,3.439,3.595s3.582-3.088,3.52-3.589c0.738-0.001,1.662,0.003,1.662,0.003v-1.644L31.509,16.062
		L31.509,16.062z"/>
	<ellipse fill="#FAF9DA" cx="11.41" cy="17.887" rx="2.293" ry="2.279"/>
	<path fill="#FAF9DA" d="M29.013,17.888c0,1.258-1.025,2.278-2.291,2.278c-1.268,0-2.293-1.021-2.293-2.278
		c0-1.26,1.025-2.278,2.293-2.278C27.987,15.611,29.013,16.628,29.013,17.888z"/>
	<ellipse cx="11.41" cy="17.887" rx="1.146" ry="1.139"/>
	<ellipse cx="26.722" cy="17.888" rx="1.145" ry="1.139"/>
</g>
</svg>
