<?xml version="1.0" encoding="utf-8"?>
<!-- Generator: Adobe Illustrator 13.0.0, SVG Export Plug-In . SVG Version: 6.00 Build 14948)  -->
<!DOCTYPE svg PUBLIC "-//W3C//DTD SVG 1.1//EN" "http://www.w3.org/Graphics/SVG/1.1/DTD/svg11.dtd">
<svg version="1.1" id="Layer_1" xmlns="http://www.w3.org/2000/svg" xmlns:xlink="http://www.w3.org/1999/xlink" x="0px" y="0px"
	 width="100%" viewBox="0 0 135 146" enable-background="new 0 0 135 146" xml:space="preserve">
<ellipse fill="#FFFFFF" cx="66.259" cy="99.564" rx="41.423" ry="36.753"/>
<ellipse fill="#AC0320" cx="66.474" cy="36.224" rx="36.715" ry="34.724"/>
<path fill="#AC0320" d="M20.764,115.949C12.057,115.949,5,108.639,5,99.623c0-9.02,7.057-16.33,15.764-16.33V115.949z"/>
<path fill="#AC0320" d="M113.238,83.293c8.705,0,15.762,7.311,15.762,16.33c0,9.018-7.055,16.326-15.762,16.326V83.293z"/>
<path fill="#AC0320" d="M78.662,120.564c0,2.785-2.348,5.041-5.244,5.041H61.976c-2.896,0-5.244-2.256-5.244-5.041l0,0
	c0-2.785,2.348-5.039,5.244-5.039h11.442C76.314,115.525,78.662,117.779,78.662,120.564L78.662,120.564z"/>
<path fill="#AC0320" d="M105.447,100.955c-4.416,8.77-15.014,15.643-27.625,17.021l-0.283,4.762
	c12.691,0,23.859-5.881,29.201-14.119L105.447,100.955z"/>
<path fill="#AC0320" d="M66.47,34.747c-30.686,0-55.564,24.57-55.564,54.88c0,30.303,24.879,54.873,55.564,54.873
	c30.694,0,55.575-24.566,55.575-54.873C122.047,59.32,97.164,34.747,66.47,34.747z M66.539,134.113
	c-22.845,0-41.369-15.928-41.369-35.576c0-14.367,12.404-27.062,24.16-32.357c5.582,20.553,24.532,20.436,24.532,20.436
	c17.272-1.713,28.86,4.813,32.635,21.197C99.584,125.268,86.309,134.449,66.539,134.113z"/>
<ellipse fill="#AC0320" cx="49.134" cy="96.204" rx="4.729" ry="4.735"/>
<ellipse fill="#AC0320" cx="83.287" cy="96.204" rx="4.729" ry="4.735"/>
</svg>
