<?xml version="1.0" encoding="utf-8"?>
<!-- Generator: Adobe Illustrator 13.0.0, SVG Export Plug-In . SVG Version: 6.00 Build 14948)  -->
<!DOCTYPE svg PUBLIC "-//W3C//DTD SVG 1.1//EN" "http://www.w3.org/Graphics/SVG/1.1/DTD/svg11.dtd">
<svg version="1.1" id="Layer_1" xmlns="http://www.w3.org/2000/svg" xmlns:xlink="http://www.w3.org/1999/xlink" x="0px" y="0px"
	 width="165px" height="115px" viewBox="0 0 165 115" enable-background="new 0 0 165 115" xml:space="preserve">
<g>
	<g>
		<g>
			<path d="M159.47,113.805l4.68-4.332V64.25c0,0-2.944-2.255-3.985-6.755h-20.101c-1.037,4.5-3.983,6.755-3.983,6.755v45.223
				l4.68,4.332H159.47z"/>
			<polygon points="138.505,57.845 138.505,56.791 162.071,56.791 162.071,57.845 			"/>
		</g>
		<rect x="138.651" y="69.117" fill="#FFFFFF" width="22.926" height="34.821"/>
		<path fill="#000202" d="M157.165,86.967c0,5.231-3.158,9.479-7.051,9.479c-3.896,0-7.053-4.248-7.053-9.479
			s3.155-9.475,7.053-9.475C154.007,77.492,157.165,81.733,157.165,86.967z"/>
		<polygon fill="#000202" points="137.11,90.149 137.11,83.339 163.12,83.339 163.12,90.149 		"/>
	</g>
	<g>
		<g>
			<path d="M45.339,41.647c2.678-1.978,4.308-4.606,4.308-7.488c0-2.336-1.071-4.503-2.898-6.294l-0.054-0.052
				c-1.68-1.728-2.653-3.791-2.653-6.008c0-3.217,2.063-6.113,5.355-8.133c0,0-4.561,6.763,1.775,14.141l0.049,0.052
				C57.979,35.955,45.339,41.647,45.339,41.647z"/>
			<path d="M59.881,44.108c4.252-3.139,6.841-7.312,6.841-11.886c0-3.709-1.701-7.155-4.605-9.998l-0.077-0.082
				c-2.672-2.747-4.222-6.021-4.222-9.536c0-5.111,3.276-9.711,8.508-12.918c0,0-7.238,10.737,2.82,22.454l0.082,0.082
				C79.952,35.076,59.881,44.108,59.881,44.108z"/>
			<path d="M74.966,113.805L88.46,89.134c0.436,0.115,0.891,0.175,1.357,0.175c3.127,0,5.66-2.676,5.66-5.978
				c0-3.301-2.533-5.975-5.66-5.975H20.314c-3.127,0-5.664,2.674-5.664,5.975c0,3.302,2.537,5.978,5.664,5.978
				c0.467,0,0.918-0.06,1.355-0.175l13.493,24.671H74.966z"/>
			<polygon points="22.455,72.558 35.793,49.99 74.62,49.99 87.954,72.558 			"/>
		</g>
		<polygon fill="#FFFFFF" points="43.079,86.696 66.555,86.696 61.885,95.515 47.876,95.515 		"/>
	</g>
	<g>
		<g>
			<path d="M114.022,80.33h-7.351v-1.613h7.351v-7.351h1.612v7.351h7.353v1.613h-7.353v7.351h-1.612V80.33z"/>
		</g>
	</g>
	<g>
		<path d="M5.937,74.981l-2.123,36.017c-0.006,1.858,1.503,3.366,3.366,3.366c1.852,0.002,3.363-1.017,3.363-3.366l-2.008-35.99
			L5.937,74.981z"/>
		<path d="M0.001,56.857v11.322c0,3.964,3.213,7.18,7.179,7.18c3.962,0,7.175-3.216,7.175-7.18l-0.007-11.294l-2.89-0.028v10.257
			l-2.853,0.004V56.861L5.75,56.857v10.257H2.897V56.857H0.001z"/>
	</g>
</g>
</svg>
