<?xml version="1.0" encoding="utf-8"?>
<!-- Generator: Adobe Illustrator 13.0.0, SVG Export Plug-In . SVG Version: 6.00 Build 14948)  -->
<!DOCTYPE svg PUBLIC "-//W3C//DTD SVG 1.1//EN" "http://www.w3.org/Graphics/SVG/1.1/DTD/svg11.dtd">
<svg version="1.1" id="Layer_1" xmlns="http://www.w3.org/2000/svg" xmlns:xlink="http://www.w3.org/1999/xlink" x="0px" y="0px"
	 width="80px" height="110px" viewBox="0 0 80 110" enable-background="new 0 0 80 110" xml:space="preserve">
<g>
	<path fill="#010101" d="M18.186,4.872c4.819-9.395,16.227-4.5,16.344-0.117c8.228-1.895,13.521,10.066,2.116,12.789
		c0.471,4.382,1.647,10.303,2,11.605c3.646-0.357,4.349,8.288-0.823,8.881c-2.588,8.172-16.229,13.854-23.047,0
		c-5.174-1.303-4.468-8.646-0.823-8.881c0.471-1.659,2.116-6.04,1.999-11.487C6.78,16.241,7.837,3.333,18.186,4.872z"/>
	<path fill="#FFFFFF" d="M17.715,25.004c0-3.433,0.694-4.689,0.589-9.592c-9.291,0.238-7.996-10.42,1.175-7.935
		c3.41-9.235,13.522-5.092,13.64,0c7.877-2.722,12.229,7.225,1.411,8.054c0.424,3.944,0.741,8.42,1.059,9.591
		C35.587,25.123,25.241,26.899,17.715,25.004z"/>
	<path fill="#FFFFFF" d="M36.175,36.374c-2.704,8.052-14.11,12.671-19.401,0.118c0,0-0.823-2.604-2.47-0.709
		c-2.233-1.067-0.589-4.855-0.471-4.146c0.589,1.775,1.881,0.475,1.881,0.475s0.588-2.843,2.234-4.737
		c9.523,1.775,16.815-0.12,16.815-0.12s1.412,2.369,1.883,3.554c0.469,1.185,0.469,2.961,1.998,1.421
		c0.116-0.474,0.706-0.474,0.706-0.474s1.292,2.724-0.94,3.908C37,33.294,36.175,36.374,36.175,36.374z"/>
	<path fill="#010101" d="M27.241,89.663c0,1.542,0,19.835,0,19.835s5.527,0,7.703,0c2.176,0,2.409-2.428,2.409-2.428V78.059
		c0,0,2.117,0.118,2.117-2.606c0-2.726,0-15.984,0-15.984s5.171,4.381,6.466,5.564c0.938,0.83,3.174,2.489,5.408-0.236
		c4.021-5.248,8.021-10.68,9.172-13.145c4.352-6.514-6.352-3.079-7.406-1.421c-1.061,1.658-4.824,7.105-4.824,7.105
		s-8.465-7.578-9.643-8.406c-1.175-0.829-3.174-0.832-3.174-0.832s-8.111,0-8.111,0.001h-2.471c0-0.001-8.935-0.001-8.935-0.001
		s-1.105,0.244-1.4,0.679C12.18,52.285,1.346,68.319,0.196,70.006c-2.706,4.5,3.174,7.936,5.761,4.264
		c0.471-0.828,6.82-10.422,6.82-10.422s0,8.881,0,11.604c0,2.726,2.116,2.606,2.116,2.606v29.014c0,0,0.232,2.428,2.409,2.428
		s7.702,0,7.702,0s0-16.521,0-19.836C25.004,87.771,27.241,88.121,27.241,89.663z"/>
	<ellipse fill="none" cx="14.691" cy="50.378" rx="0.044" ry="0.901"/>
	<g>
		<path fill="#BF202E" d="M43.111,46.868c2.594-0.017,5.188-0.001,7.781-0.008c9.176,0.008,18.352-0.016,27.52,0.008
			c0.557,0.133,1.006,0.601,1.07,1.178c0.121,0.751-0.484,1.541-1.252,1.537c-3.24,0.001-6.482,0-9.725,0
			c-8.375,0.019-16.748-0.009-25.119,0.001c-0.715,0.034-1.352-0.632-1.328-1.345C42.027,47.598,42.512,47.033,43.111,46.868
			L43.111,46.868z"/>
		<path fill="#010101" d="M42.061,45.408c0.021-0.733,0.711-1.322,1.426-1.279c11.547,0.001,23.094,0,34.641,0.001
			c0.811-0.031,1.494,0.775,1.355,1.576c-0.066,0.563-0.521,1.037-1.068,1.152c-9.17-0.025-18.346-0.003-27.52-0.01
			c-2.598,0.004-5.189-0.009-7.783,0.006C42.479,46.705,41.99,46.069,42.061,45.408L42.061,45.408z"/>
		<path fill="#BF202E" d="M51.213,30.39c2.518-1.8,5.547-2.875,8.633-3.026c3.596-0.217,7.273,0.781,10.232,2.863
			c1.23,0.761,2.316,1.737,3.262,2.829c0.615,0.849,1.252,1.681,1.76,2.6c1.482,2.555,2.24,5.517,2.219,8.474
			c-11.02,0-22.039,0-33.062,0c-0.086-3.678,1.166-7.352,3.385-10.265c0.031-0.03,0.111-0.091,0.146-0.123
			c0.207-0.448,0.605-0.757,0.885-1.158C49.471,31.8,50.295,31.033,51.213,30.39L51.213,30.39z"/>
		<path fill="#FFFFFF" d="M56.221,30.332c0.23-0.074,0.48-0.188,0.725-0.088c0.508,0.107,0.832,0.736,0.602,1.209
			c-0.115,0.325-0.438,0.498-0.752,0.582c-3.576,1.183-6.539,4.088-7.793,7.661c-0.105,0.382-0.465,0.686-0.865,0.676
			c-0.533,0.023-0.996-0.538-0.891-1.061C48.635,35.131,52.066,31.712,56.221,30.332L56.221,30.332z"/>
		<path fill="#BF202E" d="M60.387,22.067c0.588-0.082,1.205,0.025,1.717,0.332c0.789,0.457,1.305,1.351,1.299,2.267
			c0.027,1.102-0.715,2.158-1.746,2.515c-0.953,0.35-2.09,0.081-2.783-0.665c-0.758-0.781-0.938-2.049-0.447-3.019
			C58.799,22.735,59.555,22.187,60.387,22.067L60.387,22.067z"/>
	</g>
	<ellipse fill="#010101" cx="20.83" cy="32.584" rx="1.234" ry="1.776"/>
	<ellipse fill="#010101" cx="31.53" cy="32.584" rx="1.235" ry="1.776"/>
	<path fill="#FFFFFF" d="M27.964,56.143c0,0.895-0.72,1.619-1.608,1.619c-0.889,0-1.61-0.726-1.61-1.619
		c0-0.896,0.72-1.622,1.61-1.622C27.246,54.521,27.964,55.246,27.964,56.143z"/>
	<path fill="#FFFFFF" d="M27.964,63.436c0,0.895-0.72,1.619-1.608,1.619c-0.889,0-1.61-0.726-1.61-1.619
		c0-0.896,0.72-1.621,1.61-1.621C27.246,61.812,27.964,62.54,27.964,63.436z"/>
	<path fill="#FFFFFF" d="M28.27,50.775c-0.506,0.372-1.143,0.595-1.833,0.594c-0.711,0-1.364-0.235-1.877-0.626
		c0,0-0.707,6.659-9.104,6.212c-0.272-5.135,4.917-10.088,10.98-10.088s11.224,4.867,10.98,10.088
		C29.127,57.4,28.27,50.775,28.27,50.775z"/>
</g>
</svg>
