<?xml version="1.0" encoding="utf-8"?>
<!-- Generator: Adobe Illustrator 13.0.0, SVG Export Plug-In . SVG Version: 6.00 Build 14948)  -->
<!DOCTYPE svg PUBLIC "-//W3C//DTD SVG 1.1//EN" "http://www.w3.org/Graphics/SVG/1.1/DTD/svg11.dtd">
<svg version="1.1" id="Layer_3" xmlns="http://www.w3.org/2000/svg" xmlns:xlink="http://www.w3.org/1999/xlink" x="0px" y="0px"
	 width="100%" height="30px" viewBox="0 0 60 60" enable-background="new 0 0 60 60" xml:space="preserve">
<g>
	<path fill="#555" d="M30.195,0.04c-16.57,0-30.001,13.431-30.001,30.002c0,16.562,13.429,30,30.001,30
		c16.564,0,29.999-13.438,29.999-30C60.197,13.471,46.76,0.04,30.195,0.04z M30.195,55.174c-13.88,0-25.136-11.252-25.136-25.132
		c0-13.88,11.253-25.137,25.136-25.137c13.881,0,25.133,11.254,25.133,25.137C55.328,43.924,44.08,55.174,30.195,55.174z"/>
	<circle fill="#555" cx="6.151" cy="30.251" r="2.202"/>
	<circle fill="#555" cx="53.822" cy="30.253" r="2.202"/>
	<circle fill="#555" cx="29.986" cy="54.086" r="2.199"/>
	<circle fill="#555" cx="29.986" cy="6.417" r="2.202"/>
	<g>
		<path fill="#555" d="M33.969,29.698l-1.893-2.861l9.34-6.153c1.984-1.311,4.666-0.761,5.979,1.229l2.188,3.316l-19,12.525
			c-0.703,0.457-1.64,0.266-2.098-0.432l-1.016-1.539c-0.457-0.699-0.268-1.637,0.431-2.096L33.969,29.698z"/>
		<path fill="#555" d="M21.307,14.991l1.477-0.865l4.501,7.791c0.694,1.205,0.585,2.659-0.157,3.729l5.352,9.179
			c0.416,0.725,0.168,1.645-0.558,2.062l-1.6,0.926c-0.724,0.414-1.649,0.164-2.067-0.557l-5.27-9.219
			c-1.305,0.112-2.613-0.521-3.309-1.729l-4.499-7.789l1.56-0.896l3.536,6.128l1.673-0.969l-3.532-6.117l1.335-0.771l3.531,6.117
			l1.551-0.893L21.307,14.991z"/>
	</g>
	<circle fill="#555" cx="29.867" cy="35.57" r="2.916"/>
</g>
</svg>
