<?xml version="1.0" encoding="utf-8"?>
<!-- Generator: Adobe Illustrator 16.0.0, SVG Export Plug-In . SVG Version: 6.00 Build 0)  -->
<!DOCTYPE svg PUBLIC "-//W3C//DTD SVG 1.1//EN" "http://www.w3.org/Graphics/SVG/1.1/DTD/svg11.dtd">
<svg version="1.1" id="Layer_1" xmlns="http://www.w3.org/2000/svg" xmlns:xlink="http://www.w3.org/1999/xlink" x="0px" y="0px"
	 width="225px" height="144px" viewBox="0 0 225 144" enable-background="new 0 0 225 144" xml:space="preserve">
<path fill="#2B292E" d="M114.338,137.827c-0.719,0.399-1.547,0.629-2.428,0.629c-1.125,0-2.164-0.371-3-1L4.498,99.501
	c-2.664-1.125-4.534-3.763-4.534-6.836c0-0.231,0-41.371,0-41.371c0-2.758,2.235-4.993,4.993-4.993h213.909
	c2.758,0,4.991,2.235,4.991,4.993c0,0,0,41.14,0,41.371c0,3.075-1.871,5.711-4.534,6.836L114.338,137.827z"/>
<path fill="#D75E2C" d="M195.077,103.08l-80.739,29.475c-1.326,0.586-2.725,0.645-2.725,0.645l-0.052-92.168h107.305
	c2.758,0,4.991,2.232,4.991,4.993c0,0,0,41.141,0,41.371c0,3.074-1.871,5.709-4.534,6.834L195.077,103.08z"/>
<path fill="#F79635" d="M3.799,94.229c-2.664-1.125-4.534-3.76-4.534-6.833c0-0.229,0-41.371,0-41.371
	c0-2.76,2.233-4.993,4.991-4.993h107.305l-0.052,92.169c0,0-1.398-0.059-2.725-0.646L28.045,103.08L3.799,94.229z"/>
<path fill="#2B292E" d="M20.439,100.303l91.088-0.066l-0.018,32.963c0,0-1.398-0.059-2.725-0.645L28.045,103.08L20.439,100.303z"/>
<path fill="#2B292E" d="M195.009,103.08l-80.739,29.475c-1.326,0.586-2.725,0.645-2.725,0.645l-0.018-32.963l91.088,0.066
	C202.615,100.303,195.01,103.08,195.009,103.08z"/>
<path fill="#FFFFFF" d="M17.008,92.748l1.168-6.571c-3.57-0.293-5.354-2.143-5.354-5.551c0-1.232,0.342-2.239,1.022-3.018
	c0.681-0.778,1.427-1.168,2.238-1.168c0.812,0,1.403,0.121,1.777,0.363c0.372,0.244,0.559,0.527,0.559,0.854
	c-1.298,0.227-1.948,1.428-1.948,3.603c0,1.361,0.683,2.353,2.045,2.97l1.752-9.541c-0.227-0.193-0.689-0.567-1.387-1.12
	c-0.699-0.552-1.193-0.957-1.486-1.217c-0.292-0.26-0.649-0.647-1.071-1.166c-0.811-0.908-1.216-1.966-1.216-3.164
	c0-1.72,0.771-3.194,2.311-4.43c1.541-1.234,3.269-1.883,5.184-1.947l0.924-5.159h2.824l-1.217,5.306
	c2.824,0.455,4.235,1.802,4.235,4.04c0,1.136-0.211,2.037-0.632,2.7c-0.421,0.666-0.973,0.998-1.655,0.998s-1.331-0.371-1.947-1.119
	c0.78-0.454,1.169-1.241,1.169-2.36s-0.521-1.891-1.558-2.312l-1.753,7.837c2.824,1.817,4.51,3.438,5.062,4.868
	c0.292,0.779,0.438,1.638,0.438,2.579c0,2.238-0.803,3.984-2.409,5.232c-1.606,1.249-3.724,1.906-6.353,1.971l-1.411,6.522H17.008
	L17.008,92.748z M19.734,67.094c0,1.071,0.455,2.062,1.363,2.968l1.168-6.568C20.578,63.85,19.734,65.05,19.734,67.094z
	 M20.172,84.423c2.141-0.259,3.212-1.752,3.212-4.478c0-1.234-0.471-2.436-1.412-3.604L20.172,84.423z"/>
<path fill="#FFFFFF" d="M45.288,70.795c0.682,0.812,1.022,1.623,1.022,2.434c0,1.233-0.642,2.288-1.924,3.164
	c-1.282,0.877-2.928,1.313-4.94,1.313c-2.012,0-3.603-0.859-4.77-2.579c-1.168-1.72-1.753-3.698-1.753-5.938
	c0-4.022,1.217-7.406,3.651-10.147c2.434-2.741,5.419-4.113,8.957-4.113c6.262,0,9.393,3.813,9.393,11.439
	c0,4.899-0.657,9.249-1.97,13.044c-1.315,3.799-3.229,6.792-5.744,8.981c-2.515,2.19-5.442,3.285-8.786,3.285
	c-1.753,0-3.148-0.471-4.186-1.412c-1.039-0.938-1.557-2.011-1.557-3.212c0-2.401,1.394-3.602,4.186-3.602
	c-0.455,0.454-0.682,1.021-0.682,1.702s0.25,1.299,0.755,1.852c0.502,0.552,1.014,0.826,1.533,0.826s0.925-0.018,1.218-0.05
	c0.291-0.031,0.761-0.187,1.411-0.463c0.649-0.274,1.242-0.647,1.777-1.118c0.535-0.472,1.135-1.208,1.801-2.216
	c0.664-1.006,1.256-2.19,1.776-3.555c1.201-3.18,1.996-7.414,2.385-12.704c0.064-1.231,0.097-2.076,0.097-2.53
	c0-2.79-0.349-4.665-1.047-5.622c-0.698-0.957-1.801-1.438-3.31-1.438c-1.509,0-2.904,1.119-4.186,3.357
	c-1.282,2.24-1.923,4.642-1.923,7.204c0,1.331,0.203,2.5,0.608,3.506c0.405,1.007,1.111,1.508,2.118,1.508
	C43.178,73.715,44.541,72.742,45.288,70.795z"/>
<path fill="#FFFFFF" d="M82.864,90.507c-0.746-0.746-1.12-1.656-1.12-2.728c0-1.07,0.374-1.986,1.12-2.75
	c0.745-0.763,1.655-1.145,2.726-1.145c1.071,0,1.988,0.382,2.75,1.145c0.762,0.764,1.144,1.681,1.144,2.75
	c0,1.07-0.382,1.979-1.144,2.728c-0.763,0.746-1.679,1.12-2.75,1.12C84.52,91.628,83.61,91.255,82.864,90.507z"/>
<path fill="#2B292E" d="M17.925,93.664l1.167-6.571c-3.57-0.291-5.354-2.142-5.354-5.55c0-1.231,0.341-2.238,1.022-3.018
	c0.681-0.779,1.427-1.168,2.238-1.168c0.812,0,1.403,0.121,1.777,0.363c0.373,0.243,0.559,0.528,0.559,0.854
	c-1.298,0.228-1.946,1.428-1.946,3.603c0,1.363,0.682,2.354,2.043,2.97l1.752-9.54c-0.227-0.195-0.689-0.567-1.387-1.12
	c-0.699-0.552-1.193-0.956-1.486-1.217c-0.291-0.26-0.648-0.649-1.07-1.167c-0.811-0.908-1.217-1.966-1.217-3.164
	c0-1.72,0.771-3.194,2.31-4.429c1.542-1.234,3.269-1.884,5.184-1.947l0.925-5.16h2.823l-1.216,5.307
	c2.823,0.455,4.235,1.802,4.235,4.04c0,1.135-0.211,2.037-0.633,2.701c-0.421,0.665-0.973,0.996-1.654,0.996
	c-0.682,0-1.331-0.371-1.947-1.118c0.779-0.454,1.167-1.241,1.167-2.361c0-1.119-0.52-1.89-1.557-2.312l-1.753,7.837
	c2.824,1.817,4.51,3.44,5.062,4.868c0.292,0.78,0.438,1.639,0.438,2.579c0,2.238-0.804,3.984-2.409,5.233
	c-1.606,1.249-3.724,1.906-6.353,1.971l-1.411,6.522h-1.311v-0.002H17.925z M20.651,68.012c0,1.071,0.455,2.061,1.363,2.968
	l1.167-6.569C21.496,64.768,20.651,65.968,20.651,68.012z M21.09,85.341c2.141-0.26,3.213-1.752,3.213-4.479
	c0-1.233-0.472-2.435-1.412-3.604L21.09,85.341z"/>
<path fill="#2B292E" d="M46.206,71.711c0.682,0.812,1.022,1.624,1.022,2.435c0,1.233-0.641,2.287-1.923,3.164
	c-1.282,0.877-2.929,1.313-4.941,1.313c-2.012,0-3.602-0.859-4.77-2.58c-1.168-1.719-1.753-3.698-1.753-5.938
	c0-4.022,1.217-7.406,3.651-10.148c2.434-2.742,5.419-4.112,8.957-4.112c6.263,0,9.394,3.813,9.394,11.439
	c0,4.899-0.657,9.248-1.97,13.044c-1.315,3.799-3.229,6.791-5.744,8.98c-2.515,2.19-5.443,3.286-8.786,3.286
	c-1.753,0-3.147-0.471-4.186-1.412c-1.038-0.941-1.557-2.011-1.557-3.213c0-2.4,1.394-3.603,4.185-3.603
	c-0.455,0.455-0.681,1.021-0.681,1.703c0,0.683,0.25,1.3,0.754,1.852c0.502,0.552,1.014,0.827,1.533,0.827s0.925-0.019,1.217-0.052
	c0.291-0.03,0.762-0.186,1.412-0.463c0.649-0.273,1.242-0.646,1.777-1.119c0.535-0.47,1.135-1.208,1.801-2.214
	c0.664-1.007,1.256-2.189,1.776-3.555c1.2-3.18,1.996-7.415,2.386-12.704c0.064-1.232,0.097-2.076,0.097-2.53
	c0-2.791-0.349-4.665-1.047-5.623c-0.698-0.957-1.801-1.437-3.31-1.437c-1.508,0-2.904,1.12-4.185,3.357
	c-1.282,2.24-1.923,4.643-1.923,7.205c0,1.331,0.203,2.5,0.609,3.505c0.405,1.008,1.111,1.509,2.118,1.509
	C44.096,74.632,45.458,73.659,46.206,71.711z"/>
<path fill="#FFFFFF" d="M68.45,70.795c0.682,0.812,1.022,1.623,1.022,2.434c0,1.233-0.642,2.288-1.924,3.164
	c-1.282,0.877-2.928,1.313-4.94,1.313c-2.012,0-3.603-0.859-4.77-2.579c-1.168-1.72-1.753-3.698-1.753-5.938
	c0-4.022,1.217-7.406,3.651-10.147s5.419-4.113,8.957-4.113c6.262,0,9.393,3.813,9.393,11.439c0,4.899-0.657,9.249-1.97,13.044
	c-1.315,3.799-3.229,6.792-5.744,8.981c-2.515,2.19-5.442,3.285-8.786,3.285c-1.753,0-3.148-0.471-4.186-1.412
	c-1.039-0.938-1.557-2.011-1.557-3.212c0-2.401,1.394-3.602,4.186-3.602c-0.455,0.454-0.682,1.021-0.682,1.702
	s0.25,1.299,0.755,1.852c0.502,0.552,1.014,0.826,1.533,0.826c0.519,0,0.925-0.018,1.218-0.05c0.291-0.031,0.761-0.187,1.411-0.463
	c0.649-0.274,1.242-0.647,1.777-1.118c0.535-0.472,1.135-1.208,1.801-2.216c0.664-1.006,1.256-2.19,1.776-3.555
	c1.201-3.18,1.996-7.414,2.385-12.704c0.064-1.231,0.097-2.076,0.097-2.53c0-2.79-0.349-4.665-1.047-5.622
	c-0.698-0.957-1.801-1.438-3.31-1.438c-1.509,0-2.904,1.119-4.186,3.357c-1.282,2.24-1.923,4.642-1.923,7.204
	c0,1.331,0.203,2.5,0.608,3.506c0.405,1.007,1.111,1.508,2.118,1.508C66.34,73.715,67.703,72.742,68.45,70.795z"/>
<path fill="#2B292E" d="M69.368,71.711c0.682,0.812,1.022,1.624,1.022,2.435c0,1.233-0.641,2.287-1.923,3.164
	c-1.282,0.877-2.929,1.313-4.941,1.313c-2.012,0-3.602-0.859-4.77-2.58c-1.168-1.719-1.753-3.698-1.753-5.938
	c0-4.022,1.217-7.406,3.651-10.148c2.434-2.742,5.419-4.112,8.957-4.112c6.263,0,9.394,3.813,9.394,11.439
	c0,4.899-0.657,9.248-1.97,13.044c-1.315,3.799-3.229,6.791-5.744,8.98c-2.515,2.19-5.443,3.286-8.786,3.286
	c-1.753,0-3.147-0.471-4.186-1.412c-1.038-0.941-1.557-2.011-1.557-3.213c0-2.4,1.394-3.603,4.185-3.603
	c-0.455,0.455-0.681,1.021-0.681,1.703c0,0.683,0.25,1.3,0.754,1.852c0.502,0.552,1.014,0.827,1.533,0.827
	c0.519,0,0.925-0.019,1.217-0.052c0.291-0.03,0.762-0.186,1.412-0.463c0.649-0.273,1.242-0.646,1.777-1.119
	c0.535-0.47,1.135-1.208,1.801-2.214c0.664-1.007,1.256-2.189,1.776-3.555c1.2-3.18,1.996-7.415,2.386-12.704
	c0.064-1.232,0.097-2.076,0.097-2.53c0-2.791-0.349-4.665-1.047-5.623c-0.698-0.957-1.801-1.437-3.31-1.437
	c-1.508,0-2.904,1.12-4.185,3.357c-1.282,2.24-1.923,4.643-1.923,7.205c0,1.331,0.203,2.5,0.609,3.505
	c0.405,1.008,1.111,1.509,2.118,1.509C67.258,74.632,68.62,73.659,69.368,71.711z"/>
<path fill="#2B292E" d="M83.782,91.425c-0.747-0.746-1.12-1.656-1.12-2.729c0-1.069,0.373-1.985,1.12-2.749
	c0.746-0.764,1.655-1.145,2.725-1.145c1.071,0,1.987,0.381,2.75,1.145c0.761,0.764,1.144,1.68,1.144,2.749
	c0,1.071-0.383,1.979-1.144,2.729c-0.763,0.745-1.68,1.119-2.75,1.119C85.438,92.545,84.528,92.171,83.782,91.425z"/>
<path fill="#FFFFFF" d="M102.002,55.083c2.44,0,3.661,1.79,3.661,5.368c0,1.055-0.149,2.167-0.442,3.333
	c-0.294,1.166-0.707,2.27-1.235,3.312c-0.526,1.042-1.22,1.902-2.077,2.58c-0.857,0.68-1.787,1.018-2.788,1.018
	c-1.66,0-2.782-0.435-3.373-1.306c-0.591-0.87-0.884-2.242-0.884-4.114c0-1.871,0.281-3.574,0.843-5.109
	c0.561-1.537,1.392-2.768,2.489-3.693C99.293,55.546,100.561,55.083,102.002,55.083z M98.113,63.825
	c-0.067,0.934-0.101,1.611-0.101,2.036c0,2.07,0.403,3.107,1.212,3.107c0.754,0,1.423-0.494,2.007-1.481
	c0.582-0.986,1.017-2.217,1.305-3.69c0.288-1.473,0.434-2.862,0.434-4.166c0-1.303-0.077-2.207-0.228-2.715
	c-0.149-0.507-0.444-0.761-0.884-0.761c-0.699,0-1.458,0.745-2.272,2.23C98.77,59.873,98.278,61.687,98.113,63.825z"/>
<path fill="#2B292E" d="M102.337,55.823c2.44,0,3.661,1.79,3.661,5.368c0,1.057-0.148,2.166-0.442,3.332
	c-0.295,1.166-0.706,2.271-1.235,3.312c-0.527,1.042-1.22,1.901-2.077,2.58c-0.859,0.679-1.786,1.019-2.788,1.019
	c-1.661,0-2.782-0.436-3.375-1.307c-0.589-0.871-0.884-2.242-0.884-4.113c0-1.872,0.282-3.574,0.843-5.11
	c0.562-1.537,1.393-2.769,2.49-3.692C99.628,56.285,100.897,55.823,102.337,55.823z M98.448,64.564
	c-0.068,0.936-0.103,1.612-0.103,2.038c0,2.07,0.405,3.106,1.214,3.106c0.755,0,1.422-0.494,2.006-1.482
	c0.582-0.986,1.018-2.217,1.306-3.689c0.287-1.475,0.434-2.862,0.434-4.166c0-1.303-0.077-2.207-0.228-2.716
	c-0.15-0.507-0.445-0.761-0.885-0.761c-0.699,0-1.457,0.743-2.272,2.231C99.104,60.611,98.613,62.425,98.448,64.564z"/>
<g enable-background="new    ">
	<path fill="#FFFFFF" d="M116.766,93.619l1.166-6.571c-3.57-0.291-5.354-2.145-5.354-5.552c0-1.23,0.341-2.237,1.021-3.017
		c0.68-0.778,1.428-1.169,2.236-1.169s1.402,0.123,1.773,0.364c0.373,0.244,0.561,0.528,0.561,0.853
		c-1.298,0.229-1.943,1.431-1.943,3.604c0,1.362,0.682,2.354,2.043,2.969l1.752-9.538c-0.229-0.196-0.689-0.567-1.39-1.121
		c-0.698-0.553-1.19-0.957-1.483-1.217c-0.291-0.259-0.648-0.648-1.069-1.169c-0.812-0.907-1.218-1.965-1.218-3.163
		c0-1.719,0.771-3.195,2.312-4.429c1.541-1.234,3.269-1.884,5.185-1.946l0.927-5.16h2.821l-1.217,5.306
		c2.823,0.454,4.234,1.802,4.234,4.041c0,1.135-0.21,2.035-0.632,2.698c-0.421,0.666-0.972,0.997-1.655,0.997
		c-0.682,0-1.331-0.369-1.947-1.119c0.779-0.453,1.168-1.239,1.168-2.36c0-1.119-0.521-1.89-1.556-2.311l-1.754,7.837
		c2.823,1.816,4.511,3.438,5.062,4.868c0.291,0.778,0.438,1.639,0.438,2.578c0,2.239-0.804,3.984-2.41,5.233
		c-1.604,1.249-3.724,1.905-6.353,1.972l-1.412,6.522H116.766L116.766,93.619z M119.49,67.967c0,1.07,0.453,2.061,1.361,2.967
		l1.168-6.57C120.336,64.722,119.49,65.922,119.49,67.967z M119.93,85.296c2.141-0.26,3.213-1.752,3.213-4.479
		c0-1.233-0.474-2.437-1.412-3.603L119.93,85.296z"/>
	<path fill="#FFFFFF" d="M146.795,55.896l-7.736,36.409h-7.01l6.424-30.373h-4.623l0.584-2.24
		C138.425,59.691,142.546,58.425,146.795,55.896z"/>
	<path fill="#FFFFFF" d="M156.434,79.794c-2.854,0.229-4.283,1.979-4.283,5.258c0,2.889,1.232,4.334,3.699,4.334
		c2.01,0,3.646-0.82,4.894-2.459c1.248-1.638,1.874-3.505,1.874-5.598c0-2.094-0.547-3.992-1.633-5.697
		c-1.088-1.701-2.697-2.926-4.844-3.674c2.563-0.713,4.592-2.004,6.086-3.869c1.491-1.867,2.237-3.741,2.237-5.624
		c0-1.169-0.315-2.125-0.948-2.873c-0.632-0.743-1.543-1.118-2.727-1.118c-1.186,0-2.125,0.349-2.823,1.048
		c-0.698,0.697-1.048,1.531-1.048,2.507c0,2.141,0.616,3.374,1.852,3.697c-1.203,1.104-2.369,1.654-3.506,1.654
		c-1.136,0-2.035-0.369-2.699-1.119c-0.666-0.743-0.998-1.752-0.998-3.019c0-2.174,0.968-3.95,2.896-5.328
		c1.932-1.381,4.323-2.069,7.182-2.069c2.854,0,5.078,0.68,6.67,2.045c1.586,1.361,2.386,2.968,2.386,4.817
		c0,1.849-0.577,3.595-1.729,5.232c-1.152,1.64-2.799,2.994-4.941,4.064c2.044,0.683,3.578,1.737,4.602,3.163
		c1.021,1.431,1.532,3.05,1.532,4.869c0,3.147-1.3,6.018-3.894,8.612c-2.6,2.598-5.875,3.896-9.834,3.896
		c-4.513,0-7.479-1.508-8.906-4.526c-0.521-1.069-0.778-2.48-0.778-4.232c0-1.754,0.511-3.272,1.531-4.552
		c1.022-1.283,2.549-1.924,4.575-1.924S156.075,78.139,156.434,79.794z"/>
	<path fill="#FFFFFF" d="M195.812,55.845c0.062,0.715,0.097,1.249,0.097,1.607c0,1.688-0.446,3.049-1.341,4.088
		c-0.894,1.039-2.312,1.558-4.258,1.558c-1.01,0-2.558-0.193-4.647-0.585c-2.093-0.389-3.254-0.6-3.479-0.631l-1.947,8.81
		c2.109-1.006,4.141-1.508,6.084-1.508c2.791,0,4.916,0.957,6.38,2.871c1.459,1.916,2.188,4.316,2.188,7.204
		c0,3.699-1.193,6.838-3.578,9.418c-2.384,2.58-5.896,3.871-10.537,3.871c-5.713,0-8.566-2.337-8.566-7.009
		c0-2.337,0.633-4.07,1.896-5.21c1.268-1.134,2.813-1.702,4.647-1.702c1.833,0,2.912,0.826,3.237,2.482
		c-1.331,0.162-2.396,0.631-3.19,1.412c-0.794,0.779-1.192,1.834-1.192,3.164s0.393,2.262,1.168,2.798
		c0.781,0.535,1.723,0.805,2.824,0.805c1.883,0,3.381-0.917,4.5-2.75c1.12-1.833,1.68-3.903,1.68-6.207
		c0-2.305-0.478-4.057-1.434-5.257c-0.959-1.201-2.337-1.801-4.137-1.801c-1.803,0-4.146,0.907-7.035,2.725l3.99-19.421
		c4.834,0.553,7.755,0.825,8.763,0.825C190.555,57.403,193.184,56.885,195.812,55.845z"/>
	<path fill="#FFFFFF" d="M199.268,91.379c-0.748-0.746-1.121-1.656-1.121-2.729c0-1.069,0.373-1.986,1.121-2.75
		c0.744-0.762,1.655-1.145,2.729-1.145c1.067,0,1.983,0.383,2.749,1.145c0.761,0.764,1.146,1.681,1.146,2.75
		c0,1.071-0.386,1.98-1.146,2.729c-0.766,0.746-1.682,1.119-2.749,1.119C200.921,92.499,200.014,92.128,199.268,91.379z"/>
</g>
<g enable-background="new    ">
	<path fill="#2B292E" d="M117.682,94.535l1.166-6.571c-3.568-0.291-5.354-2.142-5.354-5.549c0-1.232,0.343-2.239,1.021-3.019
		c0.68-0.779,1.428-1.167,2.235-1.167c0.812,0,1.403,0.122,1.774,0.362c0.371,0.243,0.561,0.528,0.561,0.854
		c-1.299,0.227-1.943,1.429-1.943,3.604c0,1.36,0.682,2.351,2.043,2.968l1.75-9.54c-0.229-0.196-0.688-0.567-1.389-1.122
		c-0.697-0.552-1.191-0.956-1.48-1.216c-0.293-0.26-0.65-0.649-1.071-1.167c-0.812-0.907-1.218-1.964-1.218-3.163
		c0-1.721,0.771-3.195,2.312-4.43c1.541-1.233,3.269-1.882,5.185-1.947l0.927-5.16h2.821l-1.217,5.308
		c2.823,0.455,4.234,1.801,4.234,4.039c0,1.135-0.21,2.036-0.632,2.699c-0.423,0.667-0.974,0.998-1.655,0.998
		s-1.331-0.372-1.947-1.12c0.779-0.452,1.168-1.239,1.168-2.359c0-1.119-0.521-1.891-1.556-2.312l-1.754,7.838
		c2.823,1.818,4.511,3.439,5.062,4.869c0.291,0.779,0.438,1.638,0.438,2.578c0,2.24-0.804,3.985-2.41,5.233
		c-1.604,1.25-3.724,1.905-6.353,1.972l-1.412,6.519h-1.307V94.535L117.682,94.535z M120.407,68.885c0,1.07,0.452,2.061,1.364,2.966
		l1.166-6.57C121.251,65.639,120.407,66.841,120.407,68.885z M120.848,86.212c2.141-0.258,3.211-1.75,3.211-4.479
		c0-1.232-0.471-2.433-1.412-3.603L120.848,86.212z"/>
	<path fill="#2B292E" d="M147.712,56.812l-7.735,36.41h-7.01l6.426-30.375h-4.625l0.584-2.237
		C139.341,60.61,143.462,59.343,147.712,56.812z"/>
	<path fill="#2B292E" d="M157.352,80.711c-2.854,0.229-4.283,1.98-4.283,5.258c0,2.89,1.232,4.334,3.697,4.334
		c2.014,0,3.646-0.82,4.896-2.459c1.248-1.639,1.872-3.504,1.872-5.597c0-2.094-0.546-3.993-1.632-5.695
		c-1.09-1.704-2.699-2.927-4.846-3.676c2.564-0.712,4.594-2.004,6.086-3.871c1.494-1.866,2.238-3.738,2.238-5.622
		c0-1.168-0.316-2.126-0.947-2.873c-0.633-0.743-1.543-1.12-2.727-1.12c-1.188,0-2.127,0.35-2.823,1.049
		c-0.698,0.696-1.049,1.533-1.049,2.506c0,2.142,0.617,3.376,1.853,3.698c-1.203,1.104-2.369,1.655-3.506,1.655
		s-2.035-0.371-2.701-1.12c-0.664-0.743-0.998-1.751-0.998-3.017c0-2.175,0.969-3.952,2.896-5.33c1.93-1.38,4.324-2.069,7.18-2.069
		c2.856,0,5.078,0.683,6.67,2.043c1.588,1.363,2.385,2.972,2.385,4.821c0,1.849-0.575,3.593-1.729,5.229
		c-1.152,1.642-2.799,2.994-4.939,4.067c2.043,0.681,3.576,1.737,4.602,3.163c1.021,1.43,1.532,3.05,1.532,4.867
		c0,3.148-1.302,6.021-3.896,8.616c-2.598,2.597-5.873,3.895-9.834,3.895c-4.51,0-7.479-1.51-8.908-4.528
		c-0.518-1.07-0.776-2.481-0.776-4.234c0-1.752,0.512-3.268,1.532-4.552c1.021-1.279,2.549-1.924,4.576-1.924
		C155.801,78.23,156.991,79.058,157.352,80.711z"/>
	<path fill="#2B292E" d="M196.729,56.763c0.063,0.715,0.1,1.249,0.1,1.606c0,1.688-0.446,3.05-1.338,4.089
		c-0.896,1.041-2.312,1.559-4.262,1.559c-1.006,0-2.555-0.196-4.646-0.585c-2.094-0.39-3.255-0.601-3.479-0.633l-1.946,8.81
		c2.108-1.006,4.139-1.507,6.086-1.507c2.789,0,4.914,0.958,6.377,2.871c1.461,1.914,2.188,4.316,2.188,7.203
		c0,3.698-1.19,6.839-3.578,9.419c-2.385,2.579-5.896,3.87-10.537,3.87c-5.711,0-8.565-2.338-8.565-7.008
		c0-2.337,0.63-4.074,1.896-5.212c1.268-1.135,2.813-1.702,4.647-1.702c1.833,0,2.91,0.827,3.236,2.483
		c-1.331,0.163-2.394,0.631-3.188,1.411c-0.795,0.778-1.191,1.833-1.191,3.163c0,1.329,0.39,2.263,1.168,2.801
		c0.777,0.535,1.719,0.802,2.822,0.802c1.881,0,3.381-0.916,4.504-2.749c1.119-1.833,1.68-3.901,1.68-6.207
		c0-2.305-0.479-4.055-1.438-5.257c-0.957-1.199-2.336-1.801-4.139-1.801c-1.801,0-4.146,0.908-7.034,2.727l3.99-19.423
		c4.835,0.554,7.756,0.826,8.762,0.826C191.473,58.322,194.1,57.804,196.729,56.763z"/>
	<path fill="#2B292E" d="M200.184,92.298c-0.746-0.746-1.121-1.656-1.121-2.729c0-1.071,0.375-1.986,1.121-2.751
		c0.746-0.762,1.656-1.144,2.729-1.144s1.985,0.382,2.75,1.144c0.761,0.765,1.146,1.681,1.146,2.751
		c0,1.071-0.385,1.979-1.146,2.729c-0.765,0.745-1.683,1.12-2.75,1.12C201.841,93.418,200.93,93.045,200.184,92.298z"/>
</g>
<g enable-background="new    ">
	<path fill="#FFFFFF" d="M207.857,55.955c2.438,0,3.66,1.79,3.66,5.369c0,1.054-0.146,2.166-0.439,3.332
		c-0.294,1.165-0.705,2.271-1.236,3.312c-0.525,1.042-1.219,1.901-2.076,2.579c-0.854,0.679-1.785,1.02-2.787,1.02
		c-1.66,0-2.783-0.436-3.373-1.308c-0.59-0.87-0.885-2.241-0.885-4.114c0-1.871,0.281-3.575,0.844-5.109
		c0.562-1.537,1.395-2.769,2.487-3.691C205.15,56.418,206.419,55.955,207.857,55.955z M203.971,64.697
		c-0.068,0.935-0.104,1.611-0.104,2.036c0,2.071,0.404,3.108,1.215,3.108c0.753,0,1.421-0.495,2.006-1.482
		c0.582-0.985,1.018-2.217,1.307-3.69c0.287-1.472,0.437-2.861,0.437-4.165s-0.078-2.207-0.229-2.717
		c-0.148-0.506-0.444-0.76-0.886-0.76c-0.696,0-1.456,0.744-2.271,2.231C204.625,60.748,204.134,62.558,203.971,64.697z"/>
	<path fill="#FFFFFF" d="M219.09,55.955c2.439,0,3.66,1.79,3.66,5.369c0,1.054-0.148,2.166-0.441,3.332
		c-0.295,1.165-0.707,2.271-1.233,3.312c-0.527,1.04-1.224,1.901-2.076,2.579c-0.856,0.679-1.787,1.02-2.788,1.02
		c-1.66,0-2.783-0.436-3.372-1.308c-0.593-0.87-0.886-2.241-0.886-4.114c0-1.871,0.279-3.575,0.844-5.109
		c0.562-1.537,1.395-2.769,2.489-3.691C216.381,56.418,217.646,55.955,219.09,55.955z M215.2,64.697
		c-0.067,0.935-0.103,1.611-0.103,2.036c0,2.071,0.401,3.108,1.213,3.108c0.754,0,1.424-0.495,2.008-1.482
		c0.582-0.985,1.016-2.217,1.305-3.69c0.289-1.472,0.436-2.861,0.436-4.165s-0.076-2.207-0.228-2.717
		c-0.149-0.506-0.444-0.76-0.884-0.76c-0.7,0-1.459,0.744-2.273,2.231C215.857,60.748,215.365,62.558,215.2,64.697z"/>
</g>
<g enable-background="new    ">
	<path fill="#2B292E" d="M208.193,56.696c2.438,0,3.66,1.788,3.66,5.366c0,1.058-0.147,2.166-0.442,3.332
		c-0.295,1.165-0.706,2.271-1.234,3.312s-1.221,1.9-2.077,2.581c-0.854,0.678-1.785,1.018-2.787,1.018
		c-1.66,0-2.783-0.436-3.373-1.308c-0.592-0.87-0.887-2.241-0.887-4.113s0.283-3.573,0.846-5.109
		c0.563-1.536,1.394-2.77,2.488-3.691C205.484,57.158,206.752,56.696,208.193,56.696z M204.305,65.437
		c-0.068,0.934-0.101,1.613-0.101,2.037c0,2.07,0.401,3.106,1.212,3.106c0.753,0,1.424-0.494,2.007-1.482
		c0.583-0.985,1.015-2.216,1.306-3.688c0.289-1.475,0.435-2.864,0.435-4.168c0-1.301-0.075-2.207-0.228-2.714
		c-0.148-0.509-0.444-0.761-0.886-0.761c-0.698,0-1.457,0.741-2.271,2.229C204.962,61.484,204.469,63.297,204.305,65.437z"/>
	<path fill="#2B292E" d="M219.422,56.696c2.441,0,3.661,1.788,3.661,5.366c0,1.058-0.146,2.166-0.442,3.332
		c-0.293,1.165-0.705,2.271-1.23,3.312c-0.528,1.042-1.223,1.9-2.076,2.581c-0.857,0.678-1.786,1.018-2.788,1.018
		c-1.661,0-2.782-0.436-3.373-1.308c-0.592-0.87-0.885-2.241-0.885-4.113s0.278-3.573,0.844-5.109
		c0.562-1.536,1.394-2.77,2.488-3.691C216.715,57.158,217.982,56.696,219.422,56.696z M215.535,65.437
		c-0.068,0.934-0.104,1.613-0.104,2.037c0,2.07,0.401,3.106,1.213,3.106c0.754,0,1.426-0.494,2.008-1.482
		c0.584-0.985,1.019-2.216,1.307-3.688c0.289-1.475,0.432-2.864,0.432-4.168c0-1.301-0.074-2.207-0.226-2.714
		c-0.151-0.509-0.444-0.761-0.886-0.761c-0.699,0-1.456,0.741-2.271,2.229C216.188,61.483,215.7,63.297,215.535,65.437z"/>
</g>
<line fill="none" stroke="#FFFFFF" stroke-width="2" x1="111.851" y1="41.03" x2="111.851" y2="133.199"/>
<g>
	<path fill="#FFFFFF" d="M124.991,102.957l-2.892,4.471c-1.279,2.029-2.021,3.287-2.227,3.773c-0.363,0.828-0.544,1.559-0.544,2.193
		c0,0.633,0.276,1.185,0.833,1.647c-0.17,0.442-0.691,0.664-1.564,0.664c-0.565,0-1-0.153-1.3-0.459
		c-0.301-0.308-0.45-0.793-0.45-1.463c0-0.669,0.103-1.306,0.307-1.912c0.203-0.604,0.447-1.17,0.729-1.691
		c0.283-0.521,0.691-1.142,1.224-1.86c0.533-0.721,1.01-1.33,1.43-1.828l1.666-1.955c-0.499-0.067-0.98-0.102-1.445-0.102
		c-1.621,0-2.794,0.401-3.52,1.207c-0.09-0.386-0.137-0.715-0.137-0.986c0-0.566,0.183-0.991,0.545-1.275
		c0.362-0.283,0.951-0.424,1.769-0.424H124.991z"/>
	<path fill="#FFFFFF" d="M130.584,102.957c2.018,0,3.025,1.479,3.025,4.438c0,0.873-0.123,1.791-0.365,2.754
		c-0.244,0.963-0.584,1.875-1.021,2.736c-0.436,0.861-1.009,1.572-1.717,2.133c-0.708,0.562-1.477,0.842-2.304,0.842
		c-1.371,0-2.302-0.358-2.787-1.078c-0.488-0.721-0.731-1.854-0.731-3.4s0.232-2.955,0.697-4.225s1.148-2.286,2.057-3.053
		C128.346,103.339,129.395,102.957,130.584,102.957z M127.37,110.182c-0.058,0.771-0.085,1.332-0.085,1.684
		c0,1.712,0.335,2.566,1.003,2.566c0.624,0,1.176-0.408,1.657-1.225c0.482-0.814,0.842-1.832,1.08-3.051s0.356-2.365,0.356-3.443
		c0-1.076-0.062-1.824-0.188-2.243c-0.125-0.419-0.367-0.63-0.729-0.63c-0.577,0-1.205,0.615-1.879,1.846
		C127.912,106.915,127.507,108.414,127.37,110.182z"/>
	<path fill="#FFFFFF" d="M139.865,102.957c2.018,0,3.025,1.479,3.025,4.438c0,0.873-0.121,1.791-0.365,2.754
		c-0.243,0.963-0.584,1.875-1.021,2.736s-1.009,1.572-1.717,2.133c-0.709,0.562-1.478,0.842-2.304,0.842
		c-1.371,0-2.301-0.358-2.789-1.078c-0.486-0.721-0.73-1.854-0.73-3.4s0.232-2.955,0.697-4.225s1.15-2.286,2.059-3.053
		C137.627,103.339,138.676,102.957,139.865,102.957z M136.652,110.182c-0.057,0.771-0.086,1.332-0.086,1.684
		c0,1.712,0.334,2.566,1.004,2.566c0.623,0,1.176-0.408,1.656-1.225c0.481-0.814,0.842-1.832,1.08-3.051
		c0.237-1.219,0.356-2.365,0.356-3.443c0-1.076-0.062-1.824-0.187-2.243s-0.369-0.63-0.731-0.63c-0.578,0-1.204,0.615-1.878,1.846
		C137.193,106.915,136.788,108.414,136.652,110.182z"/>
	<path fill="#FFFFFF" d="M148.45,107.207h2.448l-1.684,7.888c0.544-0.192,0.979-0.468,1.309-0.825
		c0.33-0.355,0.606-0.893,0.834-1.604h0.713c-0.327,1.088-0.787,1.862-1.377,2.328c-0.498,0.42-1.043,0.702-1.631,0.851
		l-0.256,1.225c-0.408,1.927-1.428,2.891-3.061,2.891c-0.544,0-0.997-0.143-1.359-0.426c-0.363-0.283-0.544-0.691-0.544-1.225
		c0-1.121,0.925-1.966,2.771-2.533l0.205-0.9c-0.578,0.624-1.225,0.936-1.938,0.936s-1.287-0.221-1.718-0.662
		c-0.43-0.442-0.646-1.135-0.646-2.074c0-1.27,0.357-2.545,1.071-3.825c0.34-0.611,0.799-1.119,1.377-1.521
		c0.578-0.402,1.218-0.604,1.921-0.604c0.918,0,1.377,0.289,1.377,0.866v0.103L148.45,107.207z M144.777,118.068
		c0,0.137,0.055,0.265,0.162,0.384c0.107,0.118,0.252,0.179,0.434,0.179s0.363-0.134,0.545-0.4c0.182-0.266,0.322-0.637,0.425-1.112
		l0.103-0.492C145.334,117.043,144.777,117.525,144.777,118.068z M147.413,108.176c-0.453,0-0.869,0.28-1.249,0.842
		s-0.663,1.195-0.85,1.903c-0.188,0.708-0.281,1.28-0.281,1.718c0,0.436,0.027,0.754,0.085,0.951
		c0.057,0.199,0.137,0.338,0.237,0.416c0.147,0.104,0.334,0.154,0.562,0.154c0.227,0,0.477-0.119,0.747-0.357
		c0.272-0.238,0.465-0.561,0.578-0.969l0.866-4.029c-0.012-0.146-0.069-0.289-0.178-0.426
		C147.824,108.244,147.65,108.176,147.413,108.176z"/>
	<path fill="#FFFFFF" d="M152.514,107.207h2.447l-0.221,1.054c0.261-0.227,0.47-0.399,0.629-0.519
		c0.158-0.119,0.374-0.238,0.646-0.357c0.271-0.119,0.561-0.178,0.865-0.178c0.307,0,0.564,0.125,0.773,0.373
		c0.209,0.25,0.313,0.545,0.313,0.885s-0.106,0.635-0.321,0.885c-0.217,0.248-0.475,0.373-0.773,0.373
		c-0.301,0-0.505-0.06-0.612-0.179c-0.106-0.119-0.167-0.247-0.179-0.382c-0.034-0.375-0.143-0.562-0.323-0.562
		c-0.362,0-0.776,0.217-1.239,0.646l-1.36,6.461h-2.448L152.514,107.207z"/>
	<path fill="#FFFFFF" d="M160.197,107.02l2.516-0.34c0.092,2.018,0.176,3.479,0.255,4.387c0.079,0.906,0.119,1.506,0.119,1.802
		c0,0.69-0.192,1.27-0.578,1.733c-0.669,0.805-1.608,1.207-2.821,1.207c-0.806,0-1.42-0.219-1.846-0.654
		c-0.425-0.437-0.637-0.942-0.637-1.521c0-0.375,0.088-0.698,0.264-0.978s0.389-0.479,0.637-0.604
		C158.865,110.715,159.562,109.037,160.197,107.02z M158.922,112.068c0.262,0.125,0.391,0.309,0.391,0.553s-0.069,0.451-0.211,0.621
		c-0.144,0.17-0.324,0.254-0.545,0.254c-0.222,0-0.371-0.073-0.451-0.221c0,0.408,0.082,0.709,0.248,0.9
		c0.164,0.192,0.44,0.288,0.832,0.288s0.729-0.124,1.012-0.373c0.283-0.25,0.426-0.651,0.426-1.207c0-0.282-0.04-0.802-0.119-1.556
		s-0.146-1.578-0.204-2.475C160.025,109.751,159.566,110.822,158.922,112.068z"/>
	<path fill="#FFFFFF" d="M164.039,115.383c-0.262-0.26-0.393-0.577-0.393-0.951c0-0.373,0.131-0.693,0.393-0.961
		c0.261-0.266,0.578-0.398,0.952-0.398s0.692,0.134,0.96,0.398c0.267,0.268,0.398,0.588,0.398,0.961
		c0,0.374-0.133,0.691-0.398,0.951c-0.268,0.262-0.586,0.393-0.96,0.393S164.3,115.645,164.039,115.383z"/>
</g>
<g>
	<path fill="#FFFFFF" d="M67.229,102.974c0.022,0.249,0.034,0.438,0.034,0.562c0,0.589-0.156,1.063-0.468,1.428
		c-0.312,0.362-0.808,0.543-1.487,0.543c-0.352,0-0.893-0.067-1.624-0.203c-0.731-0.137-1.136-0.21-1.215-0.221l-0.68,3.075
		c0.736-0.35,1.445-0.526,2.125-0.526c0.975,0,1.717,0.335,2.227,1.004c0.51,0.668,0.765,1.509,0.765,2.517
		c0,1.291-0.416,2.389-1.249,3.289s-2.06,1.352-3.681,1.352c-1.995,0-2.992-0.814-2.992-2.447c0-0.816,0.221-1.422,0.663-1.818
		s0.983-0.596,1.624-0.596c0.64,0,1.017,0.289,1.13,0.867c-0.465,0.057-0.836,0.221-1.113,0.492
		c-0.278,0.271-0.417,0.641-0.417,1.105c0,0.463,0.136,0.791,0.408,0.978s0.601,0.28,0.986,0.28c0.657,0,1.181-0.32,1.572-0.961
		s0.586-1.361,0.586-2.168c0-0.805-0.167-1.416-0.501-1.836c-0.334-0.418-0.816-0.629-1.445-0.629s-1.448,0.317-2.457,0.952
		l1.394-6.782c1.688,0.192,2.708,0.289,3.06,0.289C65.393,103.518,66.311,103.336,67.229,102.974z"/>
	<path fill="#FFFFFF" d="M73.927,102.957c2.017,0,3.026,1.479,3.026,4.438c0,0.873-0.122,1.791-0.366,2.754s-0.583,1.875-1.02,2.736
		c-0.436,0.861-1.009,1.572-1.717,2.133c-0.708,0.562-1.477,0.842-2.304,0.842c-1.371,0-2.301-0.358-2.788-1.078
		c-0.488-0.721-0.731-1.854-0.731-3.4s0.232-2.955,0.697-4.225c0.464-1.27,1.15-2.286,2.057-3.053
		C71.688,103.339,72.737,102.957,73.927,102.957z M70.714,110.182c-0.057,0.771-0.085,1.332-0.085,1.684
		c0,1.712,0.334,2.566,1.003,2.566c0.624,0,1.176-0.408,1.658-1.225c0.481-0.814,0.841-1.832,1.08-3.051
		c0.238-1.219,0.357-2.365,0.357-3.443c0-1.076-0.062-1.824-0.187-2.243s-0.369-0.63-0.731-0.63c-0.578,0-1.205,0.615-1.878,1.846
		C71.255,106.915,70.85,108.414,70.714,110.182z"/>
	<path fill="#FFFFFF" d="M83.209,102.957c2.017,0,3.026,1.479,3.026,4.438c0,0.873-0.122,1.791-0.366,2.754
		c-0.244,0.963-0.583,1.875-1.02,2.736c-0.436,0.861-1.009,1.572-1.717,2.133c-0.708,0.562-1.477,0.842-2.304,0.842
		c-1.371,0-2.301-0.358-2.788-1.078c-0.488-0.721-0.731-1.854-0.731-3.4s0.232-2.955,0.697-4.225c0.464-1.27,1.15-2.286,2.057-3.053
		C80.97,103.339,82.019,102.957,83.209,102.957z M79.996,110.182c-0.057,0.771-0.085,1.332-0.085,1.684
		c0,1.712,0.334,2.566,1.003,2.566c0.624,0,1.176-0.408,1.658-1.225c0.481-0.814,0.841-1.832,1.08-3.051
		c0.238-1.219,0.357-2.365,0.357-3.443c0-1.076-0.062-1.824-0.187-2.243s-0.369-0.63-0.731-0.63c-0.578,0-1.205,0.615-1.878,1.846
		C80.537,106.915,80.132,108.414,79.996,110.182z"/>
	<path fill="#FFFFFF" d="M91.793,107.207h2.448l-1.683,7.888c0.544-0.192,0.98-0.468,1.309-0.825
		c0.329-0.355,0.606-0.893,0.833-1.604h0.714c-0.329,1.088-0.788,1.862-1.377,2.328c-0.499,0.42-1.043,0.702-1.632,0.851
		l-0.255,1.225c-0.408,1.927-1.428,2.891-3.06,2.891c-0.544,0-0.997-0.143-1.36-0.426s-0.544-0.691-0.544-1.225
		c0-1.121,0.924-1.966,2.771-2.533l0.204-0.9c-0.578,0.624-1.224,0.936-1.938,0.936c-0.714,0-1.287-0.221-1.717-0.662
		c-0.43-0.442-0.646-1.135-0.646-2.074c0-1.27,0.357-2.545,1.071-3.825c0.34-0.611,0.799-1.119,1.377-1.521
		c0.578-0.402,1.218-0.604,1.921-0.604c0.918,0,1.377,0.289,1.377,0.866v0.103L91.793,107.207z M88.122,118.068
		c0,0.137,0.054,0.265,0.162,0.384c0.107,0.118,0.252,0.179,0.433,0.179c0.181,0,0.363-0.134,0.544-0.4
		c0.181-0.266,0.323-0.637,0.425-1.112l0.102-0.492C88.677,117.043,88.122,117.525,88.122,118.068z M90.756,108.176
		c-0.453,0-0.87,0.28-1.25,0.842c-0.379,0.562-0.663,1.195-0.85,1.903c-0.187,0.708-0.281,1.28-0.281,1.718
		c0,0.436,0.028,0.754,0.085,0.951c0.057,0.199,0.136,0.338,0.238,0.416c0.147,0.104,0.334,0.154,0.561,0.154
		c0.227,0,0.476-0.119,0.748-0.357s0.465-0.561,0.578-0.969l0.867-4.029c-0.012-0.146-0.071-0.289-0.179-0.426
		C91.167,108.244,90.995,108.176,90.756,108.176z"/>
	<path fill="#FFFFFF" d="M95.856,107.207h2.448l-0.221,1.054c0.261-0.227,0.47-0.399,0.629-0.519
		c0.158-0.119,0.374-0.238,0.646-0.357s0.561-0.178,0.867-0.178c0.306,0,0.564,0.125,0.773,0.373c0.21,0.25,0.314,0.545,0.314,0.885
		s-0.107,0.635-0.323,0.885c-0.216,0.248-0.473,0.373-0.773,0.373c-0.3,0-0.504-0.06-0.612-0.179
		c-0.107-0.119-0.167-0.247-0.178-0.382c-0.034-0.375-0.142-0.562-0.323-0.562c-0.363,0-0.776,0.217-1.241,0.646l-1.36,6.461h-2.448
		L95.856,107.207z"/>
	<path fill="#FFFFFF" d="M103.541,107.02l2.516-0.34c0.091,2.018,0.176,3.479,0.255,4.387c0.079,0.906,0.119,1.506,0.119,1.802
		c0,0.69-0.193,1.27-0.578,1.733c-0.668,0.805-1.609,1.207-2.822,1.207c-0.805,0-1.419-0.219-1.845-0.654
		c-0.425-0.437-0.637-0.942-0.637-1.521c0-0.375,0.088-0.698,0.264-0.978s0.388-0.479,0.637-0.604
		C102.208,110.715,102.905,109.037,103.541,107.02z M102.265,112.068c0.261,0.125,0.391,0.309,0.391,0.553s-0.071,0.451-0.212,0.621
		c-0.142,0.17-0.323,0.254-0.544,0.254c-0.221,0-0.372-0.073-0.451-0.221c0,0.408,0.082,0.709,0.247,0.9
		c0.164,0.192,0.442,0.288,0.833,0.288c0.391,0,0.728-0.124,1.012-0.373c0.283-0.25,0.425-0.651,0.425-1.207
		c0-0.282-0.04-0.802-0.119-1.556c-0.079-0.754-0.147-1.578-0.204-2.475C103.37,109.751,102.911,110.822,102.265,112.068z"/>
	<path fill="#FFFFFF" d="M107.382,115.383c-0.261-0.26-0.391-0.577-0.391-0.951c0-0.373,0.13-0.693,0.391-0.961
		c0.261-0.266,0.578-0.398,0.952-0.398s0.694,0.134,0.96,0.398c0.266,0.268,0.399,0.588,0.399,0.961
		c0,0.374-0.133,0.691-0.399,0.951c-0.267,0.262-0.586,0.393-0.96,0.393S107.643,115.645,107.382,115.383z"/>
</g>
<g>
	<path fill="#FFFFFF" d="M89.946,62.294c0.307,0.365,0.46,0.73,0.46,1.095c0,0.557-0.289,1.031-0.866,1.424
		c-0.577,0.396-1.317,0.592-2.223,0.592c-0.905,0-1.622-0.387-2.146-1.159c-0.525-0.773-0.789-1.665-0.789-2.673
		c0-1.812,0.548-3.333,1.643-4.566c1.095-1.232,2.438-1.851,4.03-1.851c2.818,0,4.227,1.716,4.227,5.146
		c0,2.205-0.296,4.163-0.887,5.871c-0.592,1.709-1.453,3.056-2.585,4.041c-1.132,0.986-2.448,1.479-3.953,1.479
		c-0.789,0-1.417-0.212-1.884-0.636c-0.468-0.422-0.701-0.904-0.701-1.445c0-1.08,0.627-1.619,1.884-1.619
		c-0.205,0.203-0.307,0.459-0.307,0.766s0.112,0.584,0.34,0.833c0.226,0.249,0.456,0.372,0.69,0.372
		c0.233,0,0.416-0.008,0.548-0.021c0.131-0.016,0.342-0.085,0.635-0.209c0.292-0.124,0.559-0.292,0.799-0.504
		c0.241-0.211,0.511-0.543,0.811-0.996c0.299-0.453,0.565-0.985,0.799-1.6c0.541-1.432,0.898-3.336,1.073-5.718
		c0.028-0.555,0.043-0.935,0.043-1.139c0-1.255-0.157-2.1-0.471-2.53c-0.314-0.431-0.811-0.646-1.489-0.646
		c-0.679,0-1.307,0.504-1.884,1.511c-0.577,1.008-0.865,2.089-0.865,3.242c0,0.599,0.091,1.125,0.273,1.577
		c0.182,0.453,0.5,0.679,0.953,0.679C88.996,63.607,89.609,63.171,89.946,62.294z"/>
	<path fill="#2B292E" d="M90.359,62.707c0.307,0.364,0.46,0.729,0.46,1.096c0,0.555-0.289,1.029-0.866,1.424
		c-0.577,0.396-1.318,0.591-2.224,0.591c-0.905,0-1.621-0.387-2.146-1.161c-0.526-0.772-0.789-1.663-0.789-2.672
		c0-1.812,0.548-3.333,1.643-4.567c1.095-1.233,2.438-1.851,4.031-1.851c2.818,0,4.227,1.716,4.227,5.147
		c0,2.205-0.295,4.161-0.886,5.87c-0.592,1.709-1.453,3.056-2.585,4.041c-1.132,0.984-2.449,1.479-3.954,1.479
		c-0.789,0-1.416-0.212-1.883-0.635c-0.467-0.424-0.701-0.905-0.701-1.446c0-1.08,0.627-1.621,1.883-1.621
		c-0.205,0.205-0.307,0.46-0.307,0.768c0,0.307,0.113,0.584,0.339,0.833c0.226,0.248,0.456,0.372,0.69,0.372
		c0.233,0,0.416-0.009,0.547-0.023c0.131-0.014,0.343-0.083,0.636-0.208c0.292-0.123,0.559-0.291,0.799-0.503
		c0.24-0.212,0.511-0.545,0.811-0.997c0.299-0.452,0.565-0.984,0.799-1.599c0.54-1.433,0.898-3.338,1.073-5.718
		C91.985,60.771,92,60.392,92,60.188c0-1.256-0.157-2.101-0.471-2.531s-0.811-0.646-1.49-0.646c-0.679,0-1.307,0.505-1.883,1.512
		c-0.577,1.008-0.865,2.089-0.865,3.241c0,0.6,0.091,1.126,0.274,1.578c0.182,0.453,0.5,0.679,0.953,0.679
		C89.409,64.021,90.022,63.584,90.359,62.707z"/>
</g>
<text transform="matrix(1 0 0 1 11.2031 26.6855)" fill="#A32434" font-family="'Lobster-Regular'" font-size="24">De miércoles a viernes</text>
</svg>
