<?xml version="1.0" encoding="utf-8"?>
<!-- Generator: Adobe Illustrator 25.2.1, SVG Export Plug-In . SVG Version: 6.00 Build 0)  -->
<svg version="1.1" id="Layer_1" xmlns="http://www.w3.org/2000/svg" xmlns:xlink="http://www.w3.org/1999/xlink" x="0px" y="0px"
	 viewBox="0 0 225 104.4" style="enable-background:new 0 0 225 104.4;" xml:space="preserve">
<style type="text/css">
	.st0{fill:#2B292E;}
	.st1{fill:#8DA83F;}
	.st2{enable-background:new    ;}
	.st3{fill:#FFFFFF;}
	.st4{display:none;}
	.st5{display:inline;fill:#FFFFFF;}
	.st6{font-family:'Lobster-Regular';}
	.st7{font-size:56px;}
	.st8{display:inline;}
</style>
<path class="st0" d="M114.3,97.8c-0.7,0.4-1.5,0.6-2.4,0.6c-1.1,0-2.2-0.4-3-1L4.5,59.5C1.8,58.4,0,55.7,0,52.7c0-0.2,0-41.4,0-41.4
	c0-2.8,2.2-5,5-5h213.9c2.8,0,5,2.2,5,5c0,0,0,41.1,0,41.4c0,3.1-1.9,5.7-4.5,6.8L114.3,97.8z"/>
<path class="st1" d="M114.3,92.6c-0.7,0.4-1.5,0.6-2.4,0.6c-1.1,0-2.2-0.4-3-1L4.5,54.2C1.8,53.1,0,50.5,0,47.4C0,47.2,0,6,0,6
	c0-2.8,2.2-5,5-5h213.9c2.8,0,5,2.2,5,5c0,0,0,41.1,0,41.4c0,3.1-1.9,5.7-4.5,6.8L114.3,92.6z"/>
<g class="st2">
	<path class="st3" d="M43.9,54.4c-0.9-0.2-1.9-0.5-3.2-0.9c-1.5-0.4-2.7-0.8-3.7-1s-2-0.3-3-0.3c-2.3,0-4.5,0.6-6.7,1.8H27
		c-0.2-1-0.4-1.9-0.4-2.9c0-1.7,0.4-3.4,1.3-5c0.9-1.6,1.9-3.1,3.2-4.5c1.3-1.4,3-3.1,5.2-5.3c2.3-2.2,4.2-4.1,5.6-5.7
		c1.4-1.6,2.6-3.4,3.6-5.3c1-1.9,1.5-3.9,1.5-6c0-2.3-0.4-4.1-1.1-5.5c-0.8-1.3-1.9-2-3.4-2c-1.4,0-2.6,0.5-3.5,1.4
		c-0.9,1-1.3,2.1-1.3,3.5c0,1.4,0.3,2.6,0.8,3.7c0.5,1.1,1.2,1.9,2.1,2.3v0.2c-0.7,0.6-1.4,1.2-2.2,1.5c-0.8,0.4-1.6,0.5-2.4,0.5
		c-1.3,0-2.3-0.6-3.1-1.7c-0.8-1.1-1.2-2.7-1.2-4.6c0-1.7,0.5-3.3,1.5-4.9c1-1.6,2.5-2.9,4.4-3.9c1.9-1,4.2-1.5,6.9-1.5
		c3.5,0,6.4,1,8.5,2.9c2.2,2,3.3,4.7,3.3,8.1c0,2.2-0.6,4.2-1.7,6.1c-1.1,1.9-2.5,3.5-4.1,5c-1.6,1.5-3.8,3.2-6.5,5.3
		c-2.7,2-4.8,3.8-6.4,5.2c-1.6,1.5-2.8,3-3.6,4.6c1.2-0.3,2.4-0.5,3.8-0.5c1,0,2,0.1,3,0.2c1.1,0.2,2,0.3,3,0.5
		c0.2,0,0.7,0.2,1.6,0.3s1.7,0.3,2.5,0.3c1.1,0,2.1-0.2,3-0.7c0.9-0.5,1.9-1.3,2.9-2.4l0.2,0.1c0.5,1.5,0.8,2.8,0.8,3.8
		c0,1.4-0.4,2.7-1.1,3.8c-0.8,1.1-1.8,2-3,2.6c-1.3,0.6-2.6,0.9-4,0.9C45.6,54.7,44.8,54.6,43.9,54.4z"/>
	<path class="st3" d="M59.8,51.9c-1.9-1.5-2.9-3.7-2.9-6.6c0-2.6,0.7-4.6,2.2-6.2c1.5-1.6,3.4-2.3,5.7-2.3c2.5,0,3.9,1,4.3,3.1
		c-1.7,0.2-3,0.8-4,1.8c-1,1-1.5,2.3-1.5,3.9c0,1.4,0.4,2.5,1.3,3.3c0.9,0.8,2,1.2,3.4,1.2c2.3,0,4.3-1.1,5.8-3.2
		c1.5-2.1,2.2-4.8,2.2-8.1c0-2.8-0.6-5-1.8-6.5c-1.2-1.5-2.8-2.3-4.9-2.3c-2.1,0-4.8,0.9-8,2.7l-0.8-0.5l4.7-23
		c4.6,0.5,8,0.8,10.2,0.8c3.7,0,7.2-0.6,10.6-1.7c0.1,0.9,0.1,1.6,0.1,2c0,2.1-0.6,3.8-1.7,5.1c-1.1,1.3-2.9,1.9-5.3,1.9
		c-0.9,0-2-0.1-3.3-0.3c-1.3-0.2-2.5-0.4-3.7-0.7c-1-0.2-2-0.4-3.1-0.5l-2.4,11c2.6-1.3,5.1-1.9,7.5-1.9c3.3,0,5.9,1.1,7.9,3.4
		c1.9,2.2,2.9,5.3,2.9,9.1c0,3.3-0.7,6.2-2.2,8.7c-1.4,2.5-3.5,4.5-6.1,5.9c-2.6,1.4-5.6,2.1-9,2.1C64.4,54.2,61.7,53.5,59.8,51.9z"
		/>
	<path class="st3" d="M90.8,50.5C89,47.8,88,44,88,39.3c0-5.6,0.9-10.8,2.6-15.6c1.7-4.8,4.2-8.6,7.3-11.5c3.1-2.9,6.7-4.3,10.7-4.3
		c3.9,0,6.8,1.3,8.8,3.9c2,2.6,2.9,6.2,2.9,10.7c0,4.5-0.7,9.2-2.1,14.1c-1.4,4.9-3.6,9.1-6.6,12.6c-3,3.5-6.8,5.2-11.5,5.2
		C95.9,54.5,92.7,53.2,90.8,50.5z M106.5,45.6c1.7-2.9,3.1-6.7,4.1-11.2c1-4.6,1.6-9.2,1.6-13.9c0-2.6-0.3-4.7-0.9-6.4
		c-0.6-1.7-1.5-2.5-2.6-2.5c-1.9,0-3.7,1.5-5.5,4.4c-1.8,3-3.2,6.7-4.4,11.3c-1.1,4.6-1.7,9.1-1.7,13.5c0,6.1,1.3,9.1,4,9.1
		C103,50,104.8,48.5,106.5,45.6z"/>
</g>
<g class="st2">
	<path d="M45,55.4c-0.9-0.2-1.9-0.5-3.2-0.9c-1.5-0.4-2.7-0.8-3.7-1s-2-0.3-3-0.3c-2.3,0-4.5,0.6-6.7,1.8h-0.2
		c-0.2-1-0.4-1.9-0.4-2.9c0-1.7,0.4-3.4,1.3-5c0.9-1.6,1.9-3.1,3.2-4.5c1.3-1.4,3-3.1,5.2-5.3c2.3-2.2,4.2-4.1,5.6-5.7
		c1.4-1.6,2.6-3.4,3.6-5.3c1-1.9,1.5-3.9,1.5-6c0-2.3-0.4-4.1-1.1-5.5c-0.8-1.3-1.9-2-3.4-2c-1.4,0-2.6,0.5-3.5,1.4
		c-0.9,1-1.3,2.1-1.3,3.5c0,1.4,0.3,2.6,0.8,3.7c0.5,1.1,1.2,1.9,2.1,2.3V24c-0.7,0.6-1.4,1.2-2.2,1.5c-0.8,0.4-1.6,0.5-2.4,0.5
		c-1.3,0-2.3-0.6-3.1-1.7c-0.8-1.1-1.2-2.7-1.2-4.6c0-1.7,0.5-3.3,1.5-4.9c1-1.6,2.5-2.9,4.4-3.9c1.9-1,4.2-1.5,6.9-1.5
		c3.5,0,6.4,1,8.5,2.9c2.2,2,3.3,4.7,3.3,8.1c0,2.2-0.6,4.2-1.7,6.1c-1.1,1.9-2.5,3.5-4.1,5c-1.6,1.5-3.8,3.2-6.5,5.3
		c-2.7,2-4.8,3.8-6.4,5.2c-1.6,1.5-2.8,3-3.6,4.6c1.2-0.3,2.4-0.5,3.8-0.5c1,0,2,0.1,3,0.2c1.1,0.2,2,0.3,3,0.5
		c0.2,0,0.7,0.2,1.6,0.3s1.7,0.3,2.5,0.3c1.1,0,2.1-0.2,3-0.7c0.9-0.5,1.9-1.3,2.9-2.4l0.2,0.1c0.5,1.5,0.8,2.8,0.8,3.8
		c0,1.4-0.4,2.7-1.1,3.8c-0.8,1.1-1.8,2-3,2.6c-1.3,0.6-2.6,0.9-4,0.9C46.7,55.7,45.8,55.6,45,55.4z"/>
	<path d="M60.9,53C59,51.5,58,49.3,58,46.5c0-2.6,0.7-4.6,2.2-6.2c1.5-1.6,3.4-2.3,5.7-2.3c2.5,0,3.9,1,4.3,3.1
		c-1.7,0.2-3,0.8-4,1.8c-1,1-1.5,2.3-1.5,3.9c0,1.4,0.4,2.5,1.3,3.3c0.9,0.8,2,1.2,3.4,1.2c2.3,0,4.3-1.1,5.8-3.2
		c1.5-2.1,2.2-4.8,2.2-8.1c0-2.8-0.6-5-1.8-6.5c-1.2-1.5-2.8-2.3-4.9-2.3c-2.1,0-4.8,0.9-8,2.7L62,33.4l4.7-23
		c4.6,0.5,8,0.8,10.2,0.8c3.7,0,7.2-0.6,10.6-1.7c0.1,0.9,0.1,1.6,0.1,2c0,2.1-0.6,3.8-1.7,5.1c-1.1,1.3-2.9,1.9-5.3,1.9
		c-0.9,0-2-0.1-3.3-0.3c-1.3-0.2-2.5-0.4-3.7-0.7c-1-0.2-2-0.4-3.1-0.5L68,28c2.6-1.3,5.1-1.9,7.5-1.9c3.3,0,5.9,1.1,7.9,3.4
		c1.9,2.2,2.9,5.3,2.9,9.1c0,3.3-0.7,6.2-2.2,8.7c-1.4,2.5-3.5,4.5-6.1,5.9c-2.6,1.4-5.6,2.1-9,2.1C65.5,55.3,62.8,54.6,60.9,53z"/>
	<path d="M91.9,51.6c-1.9-2.7-2.8-6.4-2.8-11.1c0-5.6,0.9-10.8,2.6-15.6c1.7-4.8,4.2-8.6,7.3-11.5c3.1-2.9,6.7-4.3,10.7-4.3
		c3.9,0,6.8,1.3,8.8,3.9c2,2.6,2.9,6.2,2.9,10.7c0,4.5-0.7,9.2-2.1,14.1c-1.4,4.9-3.6,9.1-6.6,12.6c-3,3.5-6.8,5.2-11.5,5.2
		C96.9,55.6,93.8,54.3,91.9,51.6z M107.6,46.7c1.7-2.9,3.1-6.7,4.1-11.2c1-4.6,1.6-9.2,1.6-13.9c0-2.6-0.3-4.7-0.9-6.4
		c-0.6-1.7-1.5-2.5-2.6-2.5c-1.9,0-3.7,1.5-5.5,4.4c-1.8,3-3.2,6.7-4.4,11.3c-1.1,4.6-1.7,9.1-1.7,13.5c0,6.1,1.3,9.1,4,9.1
		C104.1,51.1,105.9,49.6,107.6,46.7z"/>
</g>
<g>
	<path class="st0" d="M166.5,29.6l2.2-0.4l-1.8,8.6c-0.1,0.2-0.1,0.4-0.1,0.5c0,0.4,0.2,0.5,0.7,0.5c0.3,0,0.6-0.2,0.9-0.4
		c0.3-0.3,0.5-0.6,0.5-1h0.7c-0.7,2-1.8,2.9-3.3,2.9c-0.5,0-0.9-0.2-1.3-0.5c-0.4-0.3-0.5-0.8-0.5-1.4c0-0.3,0.1-0.6,0.1-1
		L166.5,29.6z"/>
	<path class="st0" d="M174.3,32.5h2.2l-1.2,5.3c-0.1,0.2-0.1,0.4-0.1,0.5c0,0.4,0.2,0.5,0.7,0.5c0.2,0,0.3,0,0.4-0.1
		c-0.2,0.6-0.4,1-0.7,1.2c-0.2,0.2-0.5,0.4-0.9,0.4s-0.7-0.2-1-0.5s-0.4-0.6-0.4-1.1c-0.6,0.9-1.4,1.5-2.3,1.5
		c-0.6,0-1.1-0.2-1.4-0.6c-0.4-0.4-0.6-1.1-0.6-1.9c0-1.2,0.4-2.3,1-3.5c0.4-0.5,0.7-1,1.3-1.4c0.5-0.4,1.2-0.5,1.7-0.5
		c0.9,0,1.3,0.3,1.3,0.8v0.3V32.5z M173.4,33.4c-0.4,0-0.8,0.3-1.2,0.8s-0.6,1.1-0.8,1.8c-0.2,0.6-0.3,1.3-0.3,1.5
		c0,0.4,0,0.7,0.1,0.9s0.1,0.4,0.2,0.4c0.1,0.1,0.4,0.2,0.5,0.2c0.2,0,0.4-0.2,0.7-0.4c0.3-0.3,0.4-0.6,0.5-1l0.7-3.6
		c0-0.2-0.1-0.3-0.1-0.4C173.8,33.4,173.6,33.4,173.4,33.4z"/>
	<path class="st0" d="M183.9,32.3c1.4,0,2,0.8,2,2.5c0.1,0,0.1,0,0.2,0c0.7,0,1.5-0.4,2.4-0.9l0.1,0.4c-0.6,0.7-1.5,1.1-2.8,1.3
		c-0.2,1.4-0.5,2.6-1.3,3.4c-0.7,0.8-1.5,1.3-2.5,1.3c-0.7,0-1.4-0.2-1.8-0.6c-0.4-0.5-0.7-1-0.7-1.9c0-1.1,0.4-2.2,1-3.4
		c0.4-0.6,0.7-1.1,1.3-1.5C182.4,32.6,183.1,32.3,183.9,32.3z M182.7,38.9c0.4,0,0.7-0.4,1.1-0.9c0.4-0.5,0.6-1.4,0.7-2.2
		c-0.3-0.1-0.4-0.3-0.4-0.7s0.2-0.7,0.4-0.8c0-0.4-0.1-0.5-0.2-0.7c-0.1-0.2-0.2-0.2-0.4-0.2c-0.4,0-0.7,0.3-1,0.8s-0.6,1.2-0.8,1.8
		c-0.2,0.7-0.3,1.3-0.3,1.8s0.1,0.9,0.2,1C182.2,38.9,182.4,38.9,182.7,38.9z"/>
	<path class="st0" d="M187.8,32.5h2.3l-0.2,0.9c0.3-0.2,0.4-0.4,0.6-0.5c0.1-0.2,0.4-0.2,0.6-0.4c0.3-0.2,0.5-0.2,0.8-0.2
		s0.5,0.2,0.7,0.4s0.3,0.4,0.3,0.8c0,0.4-0.1,0.6-0.3,0.8s-0.4,0.4-0.7,0.4c-0.4,0-0.5-0.1-0.5-0.1c-0.1-0.1-0.1-0.2-0.1-0.4
		c0-0.4-0.1-0.5-0.3-0.5c-0.4,0-0.7,0.2-1.2,0.6l-1.3,5.9h-2.3L187.8,32.5z"/>
	<path class="st0" d="M198.5,29.6l2.2-0.4l-1.7,8.6c-0.1,0.2-0.1,0.4-0.1,0.5c0,0.4,0.2,0.5,0.7,0.5c0.6,0,1-0.5,1.3-1.4h0.7
		c-0.7,1.9-1.7,2.9-3.1,2.9c-0.5,0-0.7-0.2-1-0.4s-0.5-0.5-0.5-1c-0.6,0.9-1.4,1.4-2.3,1.4c-0.6,0-1.1-0.2-1.4-0.6
		c-0.4-0.5-0.6-1.1-0.6-1.9c0-1.2,0.4-2.3,1-3.5c0.4-0.5,0.7-1,1.3-1.4c0.5-0.4,1.2-0.5,1.7-0.5c0.9,0,1.3,0.3,1.3,0.8v0.1
		L198.5,29.6z M196.8,37.6L196.8,37.6l0.7-3.6c-0.1-0.4-0.3-0.5-0.7-0.5s-0.7,0.3-1.2,0.8c-0.4,0.5-0.6,1.1-0.8,1.8
		s-0.3,1.2-0.3,1.5s0,0.7,0.1,0.9s0.1,0.4,0.2,0.4c0.2,0.1,0.4,0.2,0.5,0.2s0.4-0.2,0.7-0.4C196.5,38.2,196.8,38,196.8,37.6z"/>
	<path class="st0" d="M203,37.8c0,0.5,0.1,0.9,0.3,1c0.2,0.2,0.5,0.3,1,0.3s0.9-0.2,1.4-0.4c0.4-0.3,0.9-0.7,1.3-1.3h0.5
		c-1.3,2-2.6,2.9-4.3,2.9c-1.6,0-2.4-0.8-2.4-2.5c0-0.9,0.2-1.8,0.6-2.8c0.2-0.5,0.5-0.9,0.7-1.4c0.4-0.5,0.7-0.7,1.3-1
		c0.5-0.3,1.1-0.4,1.7-0.4c1.2,0,1.7,0.4,1.7,1.5c0,0.9-0.4,1.6-1.1,2.2s-1.5,1-2.5,1C203,37.4,203,37.7,203,37.8z M205.4,33.8
		c0-0.4-0.1-0.7-0.4-0.7c-0.4,0-0.7,0.4-1.1,1c-0.4,0.6-0.6,1.4-0.8,2.2c0.6-0.1,1.2-0.4,1.6-0.8C205.1,35,205.4,34.4,205.4,33.8z"
		/>
	<path class="st0" d="M211.4,34.6c0-0.5-0.2-0.8-0.5-0.8c-0.5,0-0.9,0.5-1.2,1.4l-1.1,5h-2.2l1.7-7.8h2.2l-0.2,0.8
		c0.5-0.6,1.2-0.9,1.8-0.9c0.5,0,1,0.2,1.3,0.5c0.4,0.3,0.4,0.7,0.4,1.2s-0.1,1.3-0.4,2.2c-0.3,1-0.5,1.6-0.5,1.9
		c0,0.5,0.2,0.7,0.6,0.7c0.3,0,0.4,0,0.5-0.1c-0.1,0.5-0.3,1-0.6,1.2c-0.4,0.3-0.7,0.4-1.3,0.4s-0.9-0.2-1.2-0.4
		c-0.3-0.3-0.4-0.7-0.4-1.2s0.2-1.2,0.4-2.2C211.4,35.6,211.4,35,211.4,34.6z"/>
	<path class="st3" d="M166.4,29.2l2.2-0.4l-1.8,8.6c-0.1,0.2-0.1,0.4-0.1,0.5c0,0.4,0.2,0.5,0.6,0.5c0.3,0,0.6-0.2,0.9-0.5
		c0.3-0.3,0.4-0.6,0.5-1h0.7c-0.7,2-1.8,2.9-3.3,2.9c-0.4,0-0.9-0.1-1.3-0.4c-0.4-0.4-0.4-0.8-0.4-1.4c0-0.3,0.1-0.6,0.1-1
		L166.4,29.2z"/>
	<path class="st3" d="M174.1,32h2.2l-1.2,5.3c-0.1,0.2-0.1,0.4-0.1,0.5c0,0.4,0.2,0.5,0.7,0.5c0.1,0,0.3,0,0.4-0.1
		c-0.2,0.6-0.4,1-0.7,1.2c-0.2,0.2-0.5,0.4-1,0.4s-0.7-0.1-1-0.4s-0.4-0.6-0.4-1.1c-0.6,1-1.4,1.5-2.3,1.5c-0.6,0-1.1-0.2-1.5-0.6
		c-0.4-0.5-0.6-1-0.6-1.9c0-1.2,0.4-2.3,1-3.5c0.4-0.5,0.7-1,1.3-1.4c0.5-0.4,1.2-0.5,1.8-0.5c0.9,0,1.3,0.3,1.3,0.8v0.2L174.1,32z
		 M173.2,32.9c-0.4,0-0.8,0.3-1.2,0.8s-0.6,1.1-0.8,1.8c-0.2,0.6-0.3,1.3-0.3,1.6s0,0.7,0.1,0.9s0.1,0.4,0.2,0.4
		c0.1,0.1,0.4,0.2,0.5,0.2s0.5-0.2,0.7-0.4c0.3-0.3,0.4-0.6,0.5-1l0.7-3.6c0-0.2-0.1-0.3-0.1-0.5C173.6,33,173.4,32.9,173.2,32.9z"
		/>
	<path class="st3" d="M183.6,31.9c1.4,0,2,0.8,2,2.5c0.1,0,0.1,0,0.2,0c0.7,0,1.5-0.4,2.4-0.9l0.1,0.4c-0.6,0.7-1.5,1.1-2.8,1.3
		c-0.2,1.4-0.5,2.6-1.3,3.4c-0.7,0.9-1.5,1.3-2.5,1.3c-0.7,0-1.4-0.2-1.8-0.6c-0.4-0.4-0.7-1-0.7-1.9c0-1.1,0.4-2.2,1-3.4
		c0.4-0.6,0.7-1.1,1.3-1.4C182.2,32.1,182.9,31.9,183.6,31.9z M182.5,38.5c0.4,0,0.7-0.4,1.1-0.9c0.4-0.5,0.6-1.4,0.7-2.3
		c-0.3-0.1-0.4-0.3-0.4-0.7s0.1-0.7,0.4-0.8c0-0.4-0.1-0.5-0.1-0.7c-0.1-0.2-0.2-0.2-0.4-0.2c-0.4,0-0.7,0.3-1,0.8s-0.6,1.2-0.8,1.8
		s-0.3,1.3-0.3,1.8s0.1,0.9,0.2,1C182,38.5,182.2,38.5,182.5,38.5z"/>
	<path class="st3" d="M187.5,32h2.3l-0.2,1c0.3-0.2,0.4-0.4,0.6-0.4c0.2-0.2,0.4-0.2,0.6-0.4s0.5-0.2,0.8-0.2s0.5,0.2,0.7,0.4
		s0.3,0.5,0.3,0.8c0,0.4-0.1,0.6-0.3,0.8s-0.4,0.4-0.7,0.4s-0.5-0.1-0.5-0.2c-0.1-0.2-0.2-0.2-0.2-0.4c0-0.4-0.1-0.5-0.3-0.5
		c-0.4,0-0.7,0.2-1.2,0.6l-1.3,5.9h-2.2L187.5,32z"/>
	<path class="st3" d="M198.3,29.2l2.2-0.4l-1.8,8.6c-0.1,0.2-0.1,0.4-0.1,0.5c0,0.4,0.2,0.5,0.7,0.5c0.6,0,1-0.5,1.3-1.4h0.7
		c-0.7,1.9-1.7,2.8-3.1,2.8c-0.4,0-0.7-0.1-1-0.4c-0.3-0.2-0.4-0.5-0.4-1c-0.6,1-1.4,1.4-2.2,1.4c-0.6,0-1.1-0.2-1.4-0.6
		c-0.4-0.4-0.6-1-0.6-1.9c0-1.2,0.4-2.3,1-3.5c0.4-0.5,0.7-1,1.3-1.4c0.5-0.4,1.2-0.5,1.7-0.5c0.9,0,1.3,0.3,1.3,0.8v0.1L198.3,29.2
		z M196.6,37.1L196.6,37.1l0.7-3.6c-0.1-0.4-0.3-0.5-0.7-0.5s-0.7,0.3-1.1,0.8c-0.4,0.5-0.6,1.1-0.8,1.8s-0.3,1.2-0.3,1.6
		c0,0.4,0,0.7,0.1,0.9s0.2,0.4,0.2,0.5c0.1,0.1,0.4,0.1,0.5,0.1c0.2,0,0.5-0.1,0.7-0.4C196.3,37.9,196.5,37.6,196.6,37.1z"/>
	<path class="st3" d="M202.7,37.4c0,0.5,0.1,0.9,0.3,1c0.2,0.2,0.5,0.3,1,0.3c0.4,0,0.9-0.2,1.3-0.5c0.4-0.3,0.9-0.7,1.3-1.2h0.5
		c-1.3,2-2.6,2.9-4.3,2.9c-1.6,0-2.4-0.8-2.4-2.5c0-0.9,0.2-1.8,0.6-2.8c0.2-0.5,0.5-1,0.8-1.4c0.4-0.4,0.7-0.7,1.2-1
		c0.4-0.3,1.1-0.4,1.7-0.4c1.2,0,1.8,0.5,1.8,1.4c0,0.9-0.4,1.6-1.1,2.2s-1.5,1-2.5,1C202.7,37.1,202.7,37.2,202.7,37.4z
		 M205.1,33.4c0-0.4-0.2-0.7-0.4-0.7c-0.4,0-0.7,0.4-1.1,1c-0.4,0.6-0.6,1.4-0.8,2.2c0.6-0.1,1.2-0.4,1.6-0.8
		C205,34.6,205.1,34,205.1,33.4z"/>
	<path class="st3" d="M211.2,34.2c0-0.5-0.2-0.8-0.5-0.8c-0.5,0-1,0.4-1.3,1.4l-1.1,5H206l1.7-7.8h2.2l-0.2,0.8
		c0.5-0.6,1.2-0.9,1.8-0.9c0.5,0,0.9,0.1,1.3,0.4c0.4,0.3,0.4,0.7,0.4,1.3c0,0.5-0.2,1.3-0.4,2.2c-0.3,1-0.4,1.6-0.4,1.9
		c0,0.5,0.2,0.7,0.6,0.7c0.3,0,0.4,0,0.5-0.1c-0.1,0.5-0.3,1-0.6,1.2c-0.4,0.3-0.7,0.4-1.3,0.4c-0.5,0-0.9-0.2-1.2-0.4
		c-0.3-0.4-0.4-0.7-0.4-1.2c0-0.4,0.1-1.2,0.4-2.2C211.1,35.3,211.2,34.5,211.2,34.2z"/>
</g>
<g>
	<path class="st0" d="M151.3,46.7h2.3l-1.2,5.3c-0.1,0.2-0.1,0.4-0.1,0.5c0,0.4,0.2,0.5,0.7,0.5c0.3,0,0.6-0.2,0.9-0.4
		c0.3-0.3,0.5-0.6,0.5-1h0.7c-0.7,2-1.7,2.9-3.3,2.9c-0.5,0-0.9-0.2-1.2-0.5s-0.4-0.8-0.4-1.4c0-0.3,0.1-0.6,0.2-1L151.3,46.7z
		 M152,45.5c-0.3-0.3-0.4-0.5-0.4-0.9s0.2-0.7,0.4-0.9c0.3-0.3,0.5-0.4,0.9-0.4s0.6,0.2,0.9,0.4c0.3,0.3,0.4,0.5,0.4,0.9
		s-0.2,0.6-0.4,0.9c-0.3,0.3-0.5,0.4-0.9,0.4C152.6,45.8,152.2,45.7,152,45.5z"/>
	<path class="st0" d="M159,48.9c0-0.5-0.2-0.8-0.5-0.8c-0.5,0-0.9,0.5-1.2,1.4l-1.1,5H154l1.7-7.8h2.2l-0.2,0.8
		c0.5-0.6,1.2-0.9,1.8-0.9c0.5,0,1,0.1,1.3,0.5c0.4,0.3,0.4,0.7,0.4,1.3s-0.1,1.3-0.4,2.2c-0.3,1-0.4,1.6-0.4,1.9
		c0,0.5,0.2,0.7,0.6,0.7c0.4,0,0.5-0.1,0.7-0.4c0.2-0.2,0.4-0.5,0.6-1.1h0.7c-0.7,2-1.6,2.9-2.9,2.9c-0.6,0-1.1-0.2-1.4-0.5
		c-0.3-0.4-0.4-0.7-0.4-1.2c0-0.4,0.2-1.2,0.4-2.1C158.9,49.8,159,49.2,159,48.9z"/>
	<path class="st0" d="M168.2,43.9l2.3-0.4l-1.7,8.5c-0.1,0.2-0.1,0.4-0.1,0.5c0,0.4,0.2,0.5,0.7,0.5c0.6,0,1-0.5,1.3-1.3h0.7
		c-0.7,1.9-1.7,2.9-3.2,2.9c-0.4,0-0.7-0.2-1-0.4s-0.4-0.5-0.4-1c-0.6,0.9-1.4,1.4-2.3,1.4c-0.6,0-1.1-0.2-1.4-0.6
		c-0.4-0.4-0.6-1.1-0.6-1.9c0-1.2,0.4-2.3,1-3.5c0.4-0.5,0.7-1,1.3-1.4c0.5-0.4,1.2-0.5,1.7-0.5c0.9,0,1.3,0.3,1.3,0.8v0.1
		L168.2,43.9z M166.6,51.8L166.6,51.8l0.7-3.6c-0.1-0.4-0.3-0.5-0.7-0.5s-0.7,0.3-1.1,0.8c-0.4,0.5-0.6,1.1-0.8,1.7
		c-0.2,0.7-0.3,1.3-0.3,1.5c0,0.4,0,0.7,0.1,0.9s0.1,0.4,0.2,0.4c0.2,0.1,0.4,0.2,0.5,0.2c0.2,0,0.5-0.2,0.7-0.4
		C166.3,52.5,166.4,52.1,166.6,51.8z"/>
	<path class="st0" d="M171.7,46.7h2.2l-1.2,5.3c-0.1,0.2-0.1,0.4-0.1,0.5c0,0.4,0.2,0.5,0.7,0.5c0.3,0,0.6-0.2,0.9-0.4
		c0.3-0.3,0.4-0.6,0.5-1h0.7c-0.7,2-1.7,2.9-3.3,2.9c-0.4,0-0.9-0.2-1.2-0.5s-0.4-0.8-0.4-1.4c0-0.3,0.1-0.6,0.2-1L171.7,46.7z
		 M172.4,45.5c-0.3-0.3-0.4-0.5-0.4-0.9s0.1-0.7,0.4-0.9c0.3-0.3,0.5-0.4,0.9-0.4s0.6,0.2,0.9,0.4c0.3,0.3,0.4,0.5,0.4,0.9
		s-0.1,0.6-0.4,0.9c-0.3,0.3-0.5,0.4-0.9,0.4C172.9,45.8,172.6,45.7,172.4,45.5z"/>
	<path class="st0" d="M180.1,46.4c0.7,0,1,0.5,1,1.3c0,1.2-0.2,2.3-0.7,3.5c-0.3,0.6-0.5,1.2-0.9,1.7s-0.7,0.9-1.3,1.2
		c-0.5,0.4-1.1,0.5-1.7,0.5c-0.6,0-1.1-0.2-1.4-0.5c-0.4-0.3-0.5-0.7-0.5-1.3c0-0.3,0-0.5,0.1-0.7l1.2-5.3h2.3l-1.2,5.3
		c-0.1,0.3-0.1,0.4-0.1,0.5c0,0.4,0.2,0.5,0.5,0.5c0.4,0,0.9-0.4,1.3-0.9c0.4-0.7,0.7-1.3,1-2.2c0.2-0.8,0.4-1.5,0.4-2.1
		c-0.1,0.2-0.2,0.2-0.4,0.2s-0.4-0.1-0.4-0.3c-0.1-0.2-0.1-0.4-0.1-0.6c0-0.3,0.1-0.4,0.3-0.5C179.6,46.4,179.8,46.4,180.1,46.4z"/>
	<path class="st0" d="M182.4,46.7h2.3l-1.2,5.3c-0.1,0.2-0.1,0.4-0.1,0.5c0,0.4,0.2,0.5,0.7,0.5c0.3,0,0.6-0.2,0.9-0.4
		c0.3-0.3,0.4-0.6,0.5-1h0.7c-0.7,2-1.8,2.9-3.3,2.9c-0.4,0-0.9-0.2-1.3-0.5c-0.4-0.3-0.4-0.8-0.4-1.4c0-0.3,0.1-0.6,0.1-1
		L182.4,46.7z M183.1,45.5c-0.3-0.3-0.4-0.5-0.4-0.9s0.2-0.7,0.4-0.9c0.3-0.3,0.5-0.4,0.9-0.4s0.6,0.2,0.9,0.4
		c0.3,0.3,0.4,0.5,0.4,0.9s-0.2,0.6-0.4,0.9c-0.3,0.3-0.5,0.4-0.9,0.4C183.6,45.8,183.3,45.7,183.1,45.5z"/>
	<path class="st0" d="M191.4,43.9l2.3-0.4L192,52c-0.1,0.2-0.1,0.4-0.1,0.5c0,0.4,0.2,0.5,0.6,0.5c0.6,0,1-0.5,1.3-1.3h0.7
		c-0.7,1.9-1.7,2.9-3.1,2.9c-0.4,0-0.7-0.2-1-0.4s-0.4-0.5-0.4-1c-0.6,0.9-1.4,1.4-2.3,1.4c-0.6,0-1.1-0.2-1.4-0.6
		c-0.4-0.4-0.6-1.1-0.6-1.9c0-1.2,0.4-2.3,1-3.5c0.4-0.5,0.7-1,1.3-1.4c0.5-0.4,1.2-0.5,1.7-0.5c0.9,0,1.3,0.3,1.3,0.8v0.1
		L191.4,43.9z M189.7,51.8L189.7,51.8l0.7-3.6c-0.1-0.4-0.3-0.5-0.7-0.5s-0.7,0.3-1.2,0.8c-0.4,0.5-0.6,1.1-0.8,1.7
		c-0.2,0.6-0.3,1.3-0.3,1.5c0,0.4,0,0.7,0.1,0.9s0.1,0.4,0.2,0.4c0.1,0.1,0.4,0.2,0.5,0.2c0.2,0,0.4-0.2,0.7-0.4
		C189.4,52.5,189.7,52.1,189.7,51.8z"/>
	<path class="st0" d="M198.8,46.7h2.2l-1.2,5.3c-0.1,0.2-0.1,0.4-0.1,0.5c0,0.4,0.2,0.5,0.7,0.5c0.6,0,1-0.5,1.3-1.4h0.7
		c-0.7,2-1.8,2.9-3.2,2.9c-0.4,0-0.8-0.1-1.1-0.4s-0.4-0.6-0.4-1.1c-0.6,1-1.4,1.5-2.3,1.5c-0.4,0-0.9-0.2-1.3-0.5s-0.4-0.8-0.4-1.4
		c0-0.3,0.1-0.6,0.1-1l1.1-5h2.2l-1.2,5.3c0,0.2-0.1,0.3-0.1,0.5c0,0.5,0.1,0.7,0.4,0.7c0.5,0,1-0.5,1.3-1.4L198.8,46.7z"/>
	<path class="st0" d="M206.9,46.7h2.2L208,52c-0.1,0.2-0.1,0.4-0.1,0.5c0,0.4,0.2,0.7,0.7,0.7s1-0.5,1.3-1.4h0.7
		c-0.7,2-1.7,2.9-3.1,2.9c-0.5,0-0.8-0.2-1.1-0.4c-0.3-0.3-0.4-0.6-0.4-1.1c-0.7,1-1.4,1.4-2.3,1.4c-0.6,0-1.1-0.2-1.4-0.6
		c-0.4-0.4-0.6-1.1-0.6-1.9c0-1.2,0.4-2.3,1-3.5c0.4-0.5,0.7-1,1.3-1.4c0.5-0.4,1.2-0.5,1.7-0.5c0.9,0,1.3,0.3,1.3,0.8v0.2
		L206.9,46.7z M206,47.6c-0.4,0-0.8,0.3-1.2,0.8s-0.6,1.1-0.8,1.7c-0.2,0.7-0.3,1.3-0.3,1.5c0,0.4,0,0.7,0.1,0.9s0.1,0.4,0.2,0.4
		c0.1,0.1,0.4,0.2,0.5,0.2c0.2,0,0.4-0.2,0.7-0.4c0.3-0.3,0.4-0.6,0.5-1l0.7-3.6c0-0.2-0.1-0.3-0.1-0.5
		C206.3,47.6,206.2,47.6,206,47.6z"/>
	<path class="st0" d="M214,43.5l-1.8,8.5c-0.1,0.2-0.1,0.4-0.1,0.5c0,0.5,0.2,0.6,0.6,0.6c0.2,0,0.4,0,0.4-0.1
		c-0.1,0.5-0.2,1-0.5,1.3c-0.4,0.3-0.7,0.4-1.3,0.4s-0.9-0.2-1.2-0.4c-0.3-0.4-0.4-0.8-0.4-1.4c0-0.3,0.1-0.6,0.2-1l1.7-7.9
		L214,43.5z"/>
	<path class="st3" d="M151.1,46.3h2.3l-1.2,5.3c-0.1,0.2-0.1,0.4-0.1,0.5c0,0.4,0.2,0.5,0.7,0.5c0.3,0,0.6-0.2,0.9-0.5
		c0.3-0.3,0.4-0.6,0.5-1h0.7c-0.7,2-1.7,2.9-3.3,2.9c-0.4,0-0.9-0.1-1.2-0.5s-0.4-0.8-0.4-1.4c0-0.3,0.1-0.6,0.2-1L151.1,46.3z
		 M151.8,45c-0.3-0.3-0.4-0.5-0.4-0.9s0.2-0.7,0.4-0.9c0.3-0.3,0.5-0.4,0.9-0.4s0.6,0.2,0.9,0.4c0.3,0.3,0.4,0.5,0.4,0.9
		s-0.1,0.6-0.4,0.9c-0.3,0.3-0.5,0.4-0.9,0.4S152,45.3,151.8,45z"/>
	<path class="st3" d="M158.8,48.5c0-0.5-0.2-0.8-0.5-0.8c-0.5,0-1,0.5-1.3,1.4l-1.1,5h-2.3l1.7-7.8h2.2l-0.2,0.8
		c0.5-0.6,1.2-0.9,1.8-0.9c0.5,0,0.9,0.2,1.3,0.5s0.4,0.7,0.4,1.2s-0.2,1.3-0.4,2.3c-0.3,1-0.4,1.6-0.4,1.9c0,0.4,0.2,0.7,0.6,0.7
		c0.4,0,0.5-0.2,0.7-0.4s0.5-0.5,0.6-1.1h0.7c-0.7,2-1.6,2.9-2.9,2.9c-0.6,0-1.1-0.2-1.4-0.5c-0.3-0.4-0.4-0.7-0.4-1.2
		c0-0.4,0.1-1.2,0.4-2.2C158.6,49.4,158.8,48.8,158.8,48.5z"/>
	<path class="st3" d="M168.1,43.5l2.2-0.4l-1.7,8.5c-0.1,0.2-0.1,0.4-0.1,0.5c0,0.4,0.2,0.5,0.7,0.5c0.6,0,1-0.5,1.3-1.3h0.7
		c-0.7,1.9-1.7,2.8-3.2,2.8c-0.4,0-0.7-0.1-1.1-0.4c-0.3-0.2-0.4-0.5-0.5-1c-0.6,1-1.4,1.4-2.2,1.4c-0.6,0-1.1-0.2-1.4-0.6
		c-0.4-0.4-0.6-1.1-0.6-1.9c0-1.2,0.4-2.3,1-3.5c0.4-0.5,0.7-1,1.3-1.4c0.5-0.4,1.2-0.5,1.7-0.5c0.9,0,1.3,0.3,1.3,0.8v0.1
		L168.1,43.5z M166.4,51.3L166.4,51.3l0.7-3.6c-0.1-0.4-0.3-0.5-0.7-0.5s-0.7,0.3-1.2,0.8c-0.4,0.5-0.6,1.1-0.8,1.8
		s-0.3,1.2-0.3,1.6c0,0.5,0,0.7,0.1,0.9s0.1,0.4,0.2,0.4c0.2,0.1,0.4,0.2,0.5,0.2s0.4-0.2,0.7-0.4C166.1,52.1,166.3,51.8,166.4,51.3
		z"/>
	<path class="st3" d="M171.5,46.3h2.2l-1.2,5.3c-0.1,0.2-0.1,0.4-0.1,0.5c0,0.4,0.2,0.5,0.7,0.5c0.3,0,0.6-0.2,0.9-0.5
		c0.3-0.3,0.4-0.6,0.5-1h0.7c-0.7,2-1.7,2.9-3.3,2.9c-0.4,0-0.9-0.1-1.3-0.5c-0.4-0.4-0.4-0.8-0.4-1.4c0-0.3,0.1-0.6,0.1-1
		L171.5,46.3z M172.1,45c-0.3-0.3-0.4-0.5-0.4-0.9s0.1-0.7,0.4-0.9c0.3-0.3,0.5-0.4,0.9-0.4s0.7,0.2,0.9,0.4
		c0.3,0.3,0.4,0.5,0.4,0.9s-0.1,0.6-0.4,0.9c-0.3,0.3-0.5,0.4-0.9,0.4C172.7,45.4,172.4,45.3,172.1,45z"/>
	<path class="st3" d="M179.9,45.9c0.7,0,1,0.5,1,1.4c0,1.2-0.2,2.3-0.7,3.5c-0.3,0.6-0.5,1.3-0.9,1.7c-0.4,0.5-0.7,0.9-1.3,1.3
		s-1.1,0.5-1.7,0.5c-0.6,0-1.1-0.1-1.4-0.5c-0.4-0.4-0.5-0.7-0.5-1.4c0-0.3,0-0.4,0.1-0.7l1.2-5.3h2.2l-1.2,5.3
		c-0.1,0.3-0.1,0.5-0.1,0.5c0,0.4,0.2,0.5,0.5,0.5c0.4,0,1-0.4,1.4-1c0.4-0.7,0.7-1.4,1-2.2c0.2-0.8,0.4-1.4,0.4-2.1
		c-0.1,0.2-0.2,0.2-0.4,0.2c-0.3,0-0.4-0.1-0.4-0.3c-0.1-0.2-0.1-0.4-0.1-0.6c0-0.3,0.1-0.5,0.3-0.5C179.3,46,179.6,45.9,179.9,45.9
		z"/>
	<path class="st3" d="M182.1,46.3h2.2l-1.2,5.3c-0.1,0.2-0.1,0.4-0.1,0.5c0,0.4,0.2,0.5,0.7,0.5c0.3,0,0.6-0.2,0.9-0.5
		c0.3-0.3,0.4-0.6,0.5-1h0.7c-0.7,2-1.7,2.9-3.3,2.9c-0.4,0-0.9-0.1-1.2-0.5s-0.5-0.8-0.5-1.4c0-0.3,0.1-0.6,0.2-1L182.1,46.3z
		 M182.8,45c-0.3-0.3-0.4-0.5-0.4-0.9s0.1-0.7,0.4-0.9c0.3-0.3,0.5-0.4,0.9-0.4s0.6,0.2,0.9,0.4c0.3,0.3,0.4,0.5,0.4,0.9
		s-0.1,0.6-0.4,0.9c-0.3,0.3-0.5,0.4-0.9,0.4C183.4,45.4,183.1,45.3,182.8,45z"/>
	<path class="st3" d="M191.2,43.5l2.3-0.4l-1.8,8.5c-0.1,0.2-0.1,0.4-0.1,0.5c0,0.4,0.2,0.5,0.7,0.5c0.6,0,1-0.5,1.3-1.3h0.7
		c-0.7,1.9-1.7,2.8-3.1,2.8c-0.4,0-0.8-0.1-1-0.4c-0.3-0.2-0.4-0.5-0.4-1c-0.6,1-1.4,1.4-2.2,1.4c-0.6,0-1.1-0.2-1.5-0.6
		c-0.4-0.4-0.6-1.1-0.6-1.9c0-1.2,0.4-2.3,1-3.5c0.4-0.5,0.7-1,1.3-1.4c0.5-0.4,1.2-0.5,1.8-0.5c0.9,0,1.3,0.3,1.3,0.8v0.1
		L191.2,43.5z M189.5,51.3L189.5,51.3l0.7-3.6c-0.1-0.4-0.3-0.5-0.7-0.5c-0.5,0-0.7,0.3-1.2,0.8c-0.4,0.5-0.6,1.1-0.8,1.8
		s-0.3,1.2-0.3,1.6c0,0.5,0,0.7,0.1,0.9s0.2,0.4,0.2,0.4c0.1,0.1,0.4,0.2,0.5,0.2s0.5-0.2,0.7-0.4C189.2,52.1,189.4,51.8,189.5,51.3
		z"/>
	<path class="st3" d="M198.5,46.3h2.3l-1.2,5.3c-0.1,0.2-0.1,0.4-0.1,0.5c0,0.4,0.2,0.5,0.7,0.5c0.6,0,1-0.5,1.3-1.3h0.7
		c-0.7,2-1.7,2.9-3.2,2.9c-0.4,0-0.8-0.2-1.1-0.5s-0.4-0.6-0.4-1.1c-0.6,1-1.3,1.5-2.2,1.5c-0.4,0-1-0.2-1.3-0.5
		c-0.4-0.4-0.4-0.8-0.4-1.4c0-0.3,0.1-0.6,0.1-1l1.1-5h2.2l-1.2,5.3c-0.1,0.2-0.1,0.4-0.1,0.4c0,0.4,0.1,0.7,0.5,0.7
		c0.5,0,1-0.5,1.3-1.3L198.5,46.3z"/>
	<path class="st3" d="M206.8,46.3h2.2l-1.2,5.3c-0.1,0.2-0.1,0.4-0.1,0.5c0,0.5,0.2,0.7,0.7,0.7s0.9-0.5,1.3-1.5h0.7
		c-0.7,2-1.8,2.9-3.2,2.9c-0.4,0-0.8-0.1-1.1-0.4c-0.3-0.3-0.4-0.6-0.4-1.1c-0.7,0.9-1.4,1.4-2.3,1.4c-0.6,0-1.1-0.2-1.4-0.6
		c-0.4-0.4-0.6-1.1-0.6-1.9c0-1.2,0.4-2.3,1-3.5c0.4-0.5,0.7-1,1.3-1.4c0.5-0.4,1.2-0.5,1.7-0.5c0.9,0,1.3,0.3,1.3,0.8v0.2
		L206.8,46.3z M205.8,47.2c-0.4,0-0.8,0.3-1.2,0.8s-0.6,1.1-0.8,1.7c-0.2,0.6-0.3,1.2-0.3,1.6c0,0.4,0,0.7,0.1,0.9s0.2,0.4,0.2,0.4
		c0.1,0.1,0.4,0.2,0.5,0.2c0.2,0,0.4-0.2,0.7-0.4c0.3-0.3,0.4-0.6,0.5-1l0.7-3.6c0-0.2-0.1-0.3-0.2-0.5
		C206.1,47.3,206,47.2,205.8,47.2z"/>
	<path class="st3" d="M213.7,43.1l-1.8,8.5c-0.1,0.2-0.1,0.4-0.1,0.5c0,0.4,0.2,0.6,0.7,0.6c0.2,0,0.5,0,0.5-0.1
		c-0.1,0.5-0.2,0.9-0.5,1.2c-0.4,0.3-0.7,0.5-1.2,0.5s-0.9-0.2-1.2-0.5c-0.3-0.4-0.4-0.8-0.4-1.4c0-0.3,0.1-0.6,0.1-1l1.7-7.9
		L213.7,43.1z"/>
</g>
<path class="st3" d="M13.8,54.7l1.4-7.8c-4.2-0.3-6.3-2.5-6.3-6.6c0-1.4,0.4-2.6,1.2-3.6s1.7-1.4,2.6-1.4c1,0,1.6,0.1,2.1,0.4
	c0.4,0.3,0.7,0.7,0.7,1c-1.5,0.2-2.3,1.7-2.3,4.2c0,1.6,0.8,2.8,2.4,3.5l2.1-11.3c-0.2-0.2-0.9-0.7-1.6-1.3
	c-0.9-0.7-1.4-1.1-1.7-1.4s-0.8-0.8-1.3-1.4c-1-1.1-1.4-2.3-1.4-3.8c0-2.1,0.9-3.8,2.7-5.2s3.9-2.3,6.2-2.3l1.1-6.1h3.4l-1.4,6.3
	c3.4,0.5,5,2.2,5,4.8c0,1.3-0.2,2.4-0.8,3.1c-0.5,0.8-1.2,1.2-2,1.2s-1.6-0.4-2.3-1.3c1-0.5,1.4-1.5,1.4-2.8s-0.7-2.3-1.8-2.7
	L21,29.6c3.4,2.2,5.3,4.1,6,5.8c0.3,1,0.5,2,0.5,3c0,2.6-1,4.7-2.8,6.2c-2,1.5-4.4,2.3-7.5,2.4l-1.6,7.7
	C15.4,54.7,13.8,54.7,13.8,54.7z M17.1,24.3c0,1.3,0.5,2.4,1.6,3.5l1.4-7.8C18,20.5,17.1,21.9,17.1,24.3z M17.6,44.9
	c2.5-0.3,3.8-2.1,3.8-5.3c0-1.4-0.5-2.9-1.6-4.2L17.6,44.9z"/>
<path class="st3" d="M112.3,55c-0.8-0.8-1.2-1.8-1.2-3s0.4-2.2,1.2-3c0.8-0.8,1.8-1.2,3-1.2s2.2,0.4,3,1.2s1.2,1.8,1.2,3
	s-0.4,2.2-1.2,3c-0.8,0.8-1.8,1.2-3,1.2C114.1,56.2,113.1,55.8,112.3,55z"/>
<path class="st0" d="M14.9,55.8l1.4-7.8c-4.2-0.3-6.3-2.5-6.3-6.6c0-1.4,0.4-2.6,1.2-3.6s1.7-1.4,2.6-1.4c1,0,1.6,0.1,2.1,0.4
	c0.4,0.3,0.7,0.7,0.7,1C15,38,14.3,39.5,14.3,42c0,1.6,0.8,2.8,2.4,3.5l2.1-11.3c-0.2-0.2-0.9-0.7-1.6-1.3c-0.9-0.7-1.4-1.1-1.7-1.4
	s-0.8-0.8-1.3-1.4c-1-1.1-1.4-2.3-1.4-3.8c0-2.1,0.9-3.8,2.7-5.2s3.9-2.3,6.2-2.3l1.1-6.1H26L24.6,19c3.4,0.5,5,2.2,5,4.8
	c0,1.3-0.2,2.4-0.8,3.1c-0.5,0.8-1.2,1.2-2,1.2s-1.6-0.4-2.3-1.3c1-0.5,1.4-1.5,1.4-2.8s-0.7-2.3-1.8-2.7L22,30.7
	c3.4,2.2,5.3,4.1,6,5.8c0.3,0.9,0.5,2,0.5,3c0,2.6-1,4.7-2.8,6.2c-2,1.5-4.4,2.3-7.5,2.4l-1.6,7.7L14.9,55.8L14.9,55.8z M18.2,25.4
	c0,1.3,0.5,2.4,1.6,3.5l1.4-7.8C19.1,21.6,18.2,23,18.2,25.4z M18.7,46c2.5-0.3,3.8-2.1,3.8-5.3c0-1.4-0.5-2.9-1.6-4.2L18.7,46z"/>
<path class="st0" d="M113.3,56c-0.8-0.8-1.2-1.8-1.2-3s0.4-2.2,1.2-3c0.8-0.8,1.8-1.2,3-1.2s2.2,0.4,3,1.2s1.2,1.8,1.2,3
	s-0.4,2.2-1.2,3c-0.8,0.8-1.8,1.2-3,1.2S114.1,56.7,113.3,56z"/>
<g class="st2">
	<path class="st3" d="M130.5,8c2.2,0,3.3,1.6,3.3,4.8c0,1-0.2,2-0.4,2.9c-0.2,1.1-0.7,2-1.1,2.9c-0.5,0.9-1.1,1.7-1.9,2.3
		c-0.7,0.6-1.5,0.9-2.4,0.9c-1.5,0-2.4-0.4-3-1.1c-0.5-0.8-0.8-2-0.8-3.7s0.2-3.2,0.7-4.6s1.2-2.4,2.2-3.3
		C128.1,8.5,129.2,8,130.5,8z M127,15.8c-0.1,0.8-0.1,1.5-0.1,1.8c0,1.9,0.3,2.8,1.1,2.8c0.7,0,1.3-0.4,1.8-1.3s0.9-2,1.1-3.3
		s0.4-2.5,0.4-3.7s-0.1-2-0.2-2.4c-0.2-0.5-0.4-0.7-0.8-0.7c-0.7,0-1.3,0.7-2,2C127.6,12.3,127.2,13.9,127,15.8z"/>
	<path class="st3" d="M140.5,8c2.2,0,3.3,1.6,3.3,4.8c0,1-0.2,2-0.4,2.9c-0.2,1.1-0.7,2-1.1,2.9c-0.5,0.9-1.1,1.7-1.9,2.3
		c-0.7,0.6-1.5,0.9-2.4,0.9c-1.5,0-2.4-0.4-3-1.1c-0.5-0.8-0.8-2-0.8-3.7s0.2-3.2,0.7-4.6s1.2-2.4,2.2-3.3
		C138.1,8.5,139.2,8,140.5,8z M137,15.8c-0.1,0.8-0.1,1.5-0.1,1.8c0,1.9,0.3,2.8,1.1,2.8c0.7,0,1.3-0.4,1.8-1.3s0.9-2,1.1-3.3
		c0.2-1.3,0.4-2.5,0.4-3.7s-0.1-2-0.2-2.4c-0.2-0.5-0.4-0.7-0.8-0.7c-0.7,0-1.3,0.7-2,2S137.2,13.9,137,15.8z"/>
</g>
<g class="st2">
	<path class="st0" d="M130.8,8.7c2.2,0,3.3,1.6,3.3,4.8c0,1-0.2,2-0.4,2.9c-0.2,1.1-0.7,2-1.1,2.9c-0.5,0.9-1.1,1.7-1.9,2.3
		c-0.7,0.6-1.5,0.9-2.4,0.9c-1.5,0-2.4-0.4-3-1.1c-0.5-0.8-0.8-2-0.8-3.7s0.2-3.2,0.7-4.6s1.2-2.4,2.2-3.3
		C128.4,9.2,129.5,8.7,130.8,8.7z M127.3,16.5c-0.1,0.8-0.1,1.5-0.1,1.8c0,1.9,0.3,2.8,1.1,2.8c0.7,0,1.3-0.4,1.8-1.3s0.9-2,1.1-3.3
		s0.4-2.5,0.4-3.7s-0.1-2-0.2-2.4c-0.2-0.5-0.4-0.7-0.8-0.7c-0.7,0-1.3,0.7-2,2S127.5,14.6,127.3,16.5z"/>
	<path class="st0" d="M140.8,8.7c2.2,0,3.3,1.6,3.3,4.8c0,1-0.2,2-0.4,2.9c-0.2,1.1-0.7,2-1.1,2.9c-0.5,0.9-1.1,1.7-1.9,2.3
		c-0.7,0.6-1.5,0.9-2.4,0.9c-1.5,0-2.4-0.4-3-1.1c-0.5-0.8-0.8-2-0.8-3.7s0.2-3.2,0.7-4.6s1.2-2.4,2.2-3.3
		C138.3,9.2,139.5,8.7,140.8,8.7z M137.4,16.5c-0.1,0.8-0.1,1.5-0.1,1.8c0,1.9,0.3,2.8,1.1,2.8c0.7,0,1.3-0.4,1.8-1.3s0.9-2,1.1-3.3
		c0.2-1.3,0.4-2.5,0.4-3.7s-0.1-2-0.2-2.4c-0.2-0.5-0.4-0.7-0.8-0.7c-0.7,0-1.3,0.7-2,2C137.9,13,137.4,14.6,137.4,16.5z"/>
</g>
<g>
	<g>
		<g>
			<path class="st0" d="M196.3,14.4h2.5l-1.7,7.9c0.5-0.2,1-0.5,1.4-0.8c0.4-0.4,0.5-0.9,0.8-1.6h0.7c-0.4,1.1-0.8,1.8-1.3,2.3
				c-0.4,0.4-1,0.6-1.6,0.9l-0.2,1.3c-0.4,1.9-1.4,2.8-3.1,2.8c-0.5,0-1-0.1-1.3-0.4c-0.4-0.4-0.5-0.7-0.5-1.3
				c0-1.1,0.9-1.9,2.7-2.5l0.2-0.9c-0.5,0.5-1.3,0.9-1.9,0.9c-0.7,0-1.3-0.2-1.7-0.7s-0.7-1.1-0.7-2c0-1.3,0.4-2.5,1-3.8
				c0.4-0.5,0.8-1.1,1.3-1.4c0.5-0.4,1.3-0.5,1.9-0.5c0.9,0,1.3,0.4,1.3,0.9v0.1L196.3,14.4z M192.5,25.2c0,0.1,0,0.2,0.1,0.4
				c0.1,0.1,0.2,0.2,0.4,0.2s0.4-0.1,0.5-0.5c0.2-0.2,0.4-0.7,0.4-1.1l0.1-0.5C193.1,24.2,192.5,24.7,192.5,25.2z M195.2,15.4
				c-0.5,0-0.9,0.2-1.3,0.8c-0.4,0.5-0.6,1.3-0.9,1.9c-0.2,0.6-0.2,1.3-0.2,1.7c0,0.4,0,0.8,0.1,0.9c0.1,0.2,0.1,0.4,0.2,0.4
				c0.1,0.1,0.4,0.1,0.5,0.1c0.2,0,0.4-0.1,0.8-0.4c0.2-0.2,0.5-0.5,0.5-1l0.9-4.1c0-0.1-0.1-0.4-0.2-0.5
				C195.5,15.5,195.5,15.4,195.2,15.4z"/>
			<path class="st0" d="M200.3,14.4h2.4l-0.2,1c0.2-0.2,0.5-0.4,0.6-0.5s0.4-0.2,0.7-0.4c0.2-0.1,0.5-0.2,0.9-0.2s0.5,0.1,0.8,0.4
				c0.2,0.2,0.4,0.5,0.4,0.9s-0.1,0.6-0.4,0.9c-0.2,0.2-0.4,0.4-0.8,0.4c-0.4,0-0.4-0.1-0.5-0.2s-0.1-0.2-0.2-0.4
				c0-0.4-0.1-0.5-0.4-0.5c-0.4,0-0.8,0.2-1.3,0.7l-1.4,6.4h-2.5L200.3,14.4z"/>
			<path class="st0" d="M207.8,14.3l2.5-0.4c0.1,2.1,0.2,3.5,0.2,4.4c0.1,0.9,0.1,1.4,0.1,1.8c0,0.7-0.2,1.3-0.5,1.7
				c-0.7,0.8-1.5,1.3-2.8,1.3c-0.8,0-1.4-0.2-1.8-0.7c-0.5-0.4-0.7-0.9-0.7-1.4c0-0.4,0.1-0.7,0.2-1c0.2-0.2,0.4-0.5,0.7-0.5
				C206.6,17.9,207.2,16.3,207.8,14.3z M206.6,19.3c0.2,0.1,0.4,0.4,0.4,0.5c0,0.2-0.1,0.4-0.2,0.5c-0.1,0.1-0.4,0.2-0.5,0.2
				s-0.4-0.1-0.4-0.2c0,0.5,0.1,0.7,0.2,0.9c0.1,0.2,0.4,0.4,0.8,0.4c0.4,0,0.7-0.1,1-0.4c0.2-0.2,0.4-0.6,0.4-1.3
				c0-0.2,0-0.8-0.1-1.6c-0.1-0.8-0.1-1.6-0.2-2.4C207.7,17,207.2,18,206.6,19.3z"/>
			<path class="st0" d="M211.7,22.6c-0.2-0.2-0.4-0.5-0.4-0.9s0.1-0.7,0.4-1c0.2-0.2,0.5-0.5,0.9-0.5s0.7,0.1,0.9,0.5
				c0.2,0.2,0.4,0.5,0.4,1s-0.1,0.6-0.4,0.9c-0.2,0.2-0.5,0.4-0.9,0.4S212,22.9,211.7,22.6z"/>
		</g>
		<g>
			<path class="st0" d="M161.3,23.2c-1.3,0-2.3-0.4-3.1-1.3c-0.8-0.8-1.1-1.7-1.1-2.8c0-1,0.4-2,0.9-2.8c0.7-0.8,1.6-1.4,2.7-1.7
				c-1.1-0.7-1.7-1.6-1.7-2.6s0.4-2,1.3-2.8c0.9-0.8,1.9-1.3,3.2-1.3s2.2,0.2,2.9,0.8c0.7,0.5,1,1.3,1,2c0,0.8-0.2,1.4-0.8,2.2
				c-0.4,0.7-1.3,1.3-2.2,1.7c0.8,0.2,1.4,0.7,1.8,1.3c0.4,0.5,0.5,1.3,0.5,1.9c0,1.4-0.5,2.6-1.7,3.7
				C164.2,22.6,163,23.2,161.3,23.2z M161.5,21.7c0.7,0,1.3-0.4,1.7-1s0.7-1.4,0.7-2.3c0-1.3-0.4-2.2-1.3-3.1
				c-0.8,0.5-1.4,1.3-1.8,2c-0.4,0.8-0.6,1.6-0.6,2.2c0,0.7,0.1,1.3,0.4,1.6C160.6,21.6,161,21.7,161.5,21.7z M162.7,14
				c0.7-0.5,1.1-1,1.4-1.7c0.4-0.6,0.5-1.4,0.5-1.8c0-0.5-0.1-0.9-0.2-1.1c-0.2-0.3-0.5-0.4-0.7-0.4c-0.6,0-1.1,0.2-1.6,0.8
				c-0.4,0.5-0.5,1.1-0.5,1.9C161.6,12.6,162.1,13.4,162.7,14z"/>
			<path class="st0" d="M175,7.9c2.3,0,3.6,1.8,3.6,5.3c0,1-0.1,2.2-0.4,3.2c-0.4,1.1-0.6,2.2-1.3,3.2c-0.6,1-1.3,1.9-2.1,2.6
				c-0.9,0.6-1.8,1-2.7,1c-1.6,0-2.7-0.4-3.2-1.3s-0.9-2.2-0.9-4.1c0-1.8,0.2-3.5,0.8-5c0.5-1.4,1.4-2.7,2.4-3.6
				C172.3,8.3,173.5,7.9,175,7.9z M171.2,16.6c-0.1,0.9-0.1,1.6-0.1,2c0,2.1,0.4,3.1,1.3,3.1s1.4-0.5,2.1-1.4c0.5-1,1-2.2,1.3-3.6
				c0.4-1.4,0.4-2.8,0.4-4s-0.1-2.2-0.2-2.7c-0.1-0.5-0.4-0.8-0.9-0.8c-0.7,0-1.4,0.8-2.2,2.2C171.8,12.6,171.2,14.4,171.2,16.6z"/>
			<path class="st0" d="M186.1,7.9c2.3,0,3.6,1.8,3.6,5.3c0,1-0.1,2.2-0.4,3.2c-0.4,1.1-0.7,2.2-1.3,3.2c-0.5,1-1.3,1.9-2,2.6
				c-0.9,0.6-1.8,1-2.7,1c-1.7,0-2.7-0.4-3.4-1.3c-0.5-0.9-0.9-2.2-0.9-4.1c0-1.8,0.2-3.5,0.8-5c0.5-1.4,1.3-2.7,2.5-3.6
				C183.4,8.3,184.7,7.9,186.1,7.9z M182.2,16.6c-0.1,0.9-0.1,1.6-0.1,2c0,2.1,0.4,3.1,1.3,3.1s1.4-0.5,2.1-1.4c0.5-1,1-2.2,1.3-3.6
				c0.4-1.4,0.4-2.8,0.4-4s-0.1-2.2-0.2-2.7c-0.1-0.5-0.4-0.8-0.9-0.8c-0.7,0-1.4,0.8-2.2,2.2C182.9,12.6,182.5,14.4,182.2,16.6z"/>
		</g>
	</g>
	<g>
		<g>
			<path class="st3" d="M195.7,14.2h2.5l-1.7,7.9c0.5-0.2,1-0.4,1.3-0.8c0.4-0.4,0.5-0.9,0.8-1.6h0.7c-0.4,1.1-0.8,1.8-1.3,2.3
				c-0.4,0.5-1,0.6-1.6,0.9l-0.2,1.3c-0.4,1.9-1.4,2.8-3.1,2.8c-0.5,0-1-0.1-1.3-0.5c-0.4-0.4-0.5-0.7-0.5-1.3
				c0-1.1,0.9-1.9,2.7-2.5l0.2-0.9c-0.5,0.5-1.3,0.9-1.9,0.9c-0.7,0-1.3-0.2-1.7-0.7c-0.5-0.5-0.7-1.1-0.7-2c0-1.3,0.4-2.5,1-3.8
				c0.4-0.5,0.8-1.1,1.3-1.4c0.5-0.5,1.3-0.5,1.9-0.5c0.9,0,1.3,0.4,1.3,0.9v0.1L195.7,14.2z M191.9,25c0,0.1,0,0.2,0.1,0.4
				c0.1,0.1,0.2,0.2,0.4,0.2s0.4-0.1,0.5-0.5c0.2-0.2,0.4-0.7,0.4-1.1l0.1-0.5C192.5,24,191.9,24.5,191.9,25z M194.6,15.2
				c-0.4,0-0.9,0.2-1.3,0.8c-0.4,0.5-0.6,1.3-0.9,1.9c-0.2,0.6-0.2,1.3-0.2,1.7c0,0.4,0,0.8,0.1,0.9c0.1,0.2,0.1,0.4,0.2,0.5
				s0.4,0.1,0.5,0.1c0.2,0,0.5-0.1,0.8-0.4c0.2-0.2,0.4-0.5,0.5-1l0.9-4.1c0-0.1-0.1-0.4-0.2-0.4C194.9,15.3,194.9,15.2,194.6,15.2z
				"/>
			<path class="st3" d="M199.7,14.2h2.4l-0.2,1c0.2-0.2,0.5-0.4,0.6-0.5s0.4-0.2,0.7-0.4c0.2-0.1,0.5-0.2,0.9-0.2s0.5,0.1,0.8,0.4
				c0.2,0.2,0.4,0.5,0.4,0.9s-0.1,0.6-0.4,0.9c-0.2,0.2-0.4,0.4-0.8,0.4c-0.4,0-0.4-0.1-0.5-0.2s-0.1-0.2-0.2-0.4
				c0-0.4-0.1-0.5-0.4-0.5c-0.4,0-0.8,0.2-1.3,0.7l-1.4,6.4h-2.5L199.7,14.2z"/>
			<path class="st3" d="M207.2,14.1l2.5-0.4c0.1,2.1,0.2,3.5,0.2,4.4c0.1,0.9,0.1,1.4,0.1,1.8c0,0.7-0.2,1.3-0.5,1.7
				c-0.7,0.8-1.5,1.3-2.8,1.3c-0.8,0-1.4-0.2-1.8-0.7c-0.4-0.4-0.7-0.9-0.7-1.4c0-0.4,0.1-0.7,0.2-1c0.2-0.2,0.4-0.4,0.7-0.5
				C206,17.7,206.6,16.1,207.2,14.1z M206,19.1c0.2,0.1,0.4,0.4,0.4,0.5s-0.1,0.4-0.2,0.5c-0.1,0.1-0.4,0.2-0.5,0.2
				s-0.4-0.1-0.5-0.2c0,0.4,0.1,0.7,0.2,0.9s0.4,0.4,0.8,0.4c0.4,0,0.7-0.1,1-0.4c0.2-0.2,0.4-0.6,0.4-1.3c0-0.2,0-0.8-0.1-1.6
				c-0.1-0.8-0.1-1.6-0.2-2.4C207,16.8,206.6,17.8,206,19.1z"/>
			<path class="st3" d="M211.1,22.4c-0.2-0.2-0.4-0.5-0.4-0.9s0.1-0.7,0.4-1c0.2-0.2,0.5-0.5,0.9-0.5s0.7,0.1,0.9,0.5
				c0.2,0.2,0.5,0.5,0.5,1s-0.1,0.6-0.5,0.9c-0.2,0.2-0.5,0.4-0.9,0.4C211.5,22.8,211.4,22.7,211.1,22.4z"/>
		</g>
		<g>
			<path class="st3" d="M160.7,23c-1.3,0-2.3-0.4-3.1-1.3s-1.1-1.7-1.1-2.8c0-1,0.4-2,0.9-2.8c0.7-0.8,1.6-1.4,2.7-1.7
				c-1.1-0.7-1.7-1.6-1.7-2.6s0.4-2,1.3-2.8c0.9-0.8,1.9-1.3,3.2-1.3s2.2,0.2,2.9,0.8c0.7,0.5,1,1.3,1,2c0,0.8-0.2,1.4-0.8,2.2
				c-0.4,0.7-1.3,1.3-2.2,1.7c0.8,0.2,1.4,0.7,1.8,1.3c0.4,0.5,0.5,1.3,0.5,1.9c0,1.4-0.5,2.6-1.7,3.7C163.6,22.4,162.4,23,160.7,23
				z M160.9,21.5c0.7,0,1.3-0.4,1.7-1s0.7-1.4,0.7-2.3c0-1.3-0.4-2.2-1.3-3.1c-0.8,0.5-1.4,1.3-1.8,2c-0.4,0.8-0.6,1.6-0.6,2.2
				c0,0.7,0.1,1.3,0.4,1.6C160,21.4,160.4,21.5,160.9,21.5z M162,13.8c0.7-0.4,1.1-1,1.4-1.7c0.4-0.6,0.5-1.4,0.5-1.8
				c0-0.5-0.1-0.9-0.2-1.1c-0.2-0.3-0.5-0.4-0.7-0.4c-0.6,0-1.1,0.2-1.6,0.8c-0.4,0.5-0.5,1.1-0.5,1.9C161,12.4,161.5,13.2,162,13.8
				z"/>
			<path class="st3" d="M174.4,7.7c2.3,0,3.6,1.8,3.6,5.3c0,1-0.1,2.2-0.4,3.2c-0.4,1.1-0.6,2.2-1.3,3.2c-0.6,1-1.3,1.9-2.1,2.6
				c-0.9,0.6-1.8,1-2.7,1c-1.6,0-2.7-0.5-3.2-1.3c-0.5-0.9-0.9-2.2-0.9-4.1c0-1.8,0.2-3.5,0.8-5c0.5-1.4,1.4-2.7,2.4-3.6
				C171.7,8.1,172.8,7.7,174.4,7.7z M170.6,16.4c-0.1,0.9-0.1,1.6-0.1,2c0,2.1,0.4,3.1,1.3,3.1s1.4-0.4,2.1-1.4c0.5-1,1-2.2,1.3-3.6
				c0.4-1.4,0.4-2.8,0.4-4.1s-0.1-2.2-0.2-2.7c-0.1-0.4-0.5-0.8-0.9-0.8c-0.7,0-1.4,0.8-2.2,2.2C171.2,12.4,170.6,14.2,170.6,16.4z"
				/>
			<path class="st3" d="M185.4,7.7c2.3,0,3.6,1.8,3.6,5.3c0,1-0.1,2.2-0.4,3.2c-0.4,1.1-0.7,2.2-1.3,3.2c-0.5,1-1.3,1.9-2,2.6
				c-0.9,0.6-1.8,1-2.7,1c-1.7,0-2.7-0.5-3.4-1.3c-0.5-0.9-0.9-2.2-0.9-4.1c0-1.8,0.2-3.5,0.8-5c0.5-1.4,1.4-2.7,2.5-3.6
				C182.7,8.1,184.1,7.7,185.4,7.7z M181.6,16.4c-0.1,0.9-0.1,1.6-0.1,2c0,2.1,0.4,3.1,1.3,3.1s1.4-0.4,2.1-1.4c0.5-1,1-2.2,1.3-3.6
				c0.4-1.4,0.4-2.8,0.4-4.1s-0.1-2.2-0.2-2.7c-0.1-0.4-0.5-0.8-0.9-0.8c-0.7,0-1.4,0.8-2.2,2.2C182.3,12.4,181.8,14.2,181.6,16.4z"
				/>
		</g>
	</g>
</g>
<g id="_x33_0_Apr_2021" class="st4">
	<text transform="matrix(1 0 0 1 26.4001 57.2091)" class="st5 st6 st7">250</text>
	<text transform="matrix(1 0 0 1 306 396)" class="st8" style="font-family:'ArialMT'; font-size:12px;">30 Apr 2021</text>
	<text transform="matrix(1 0 0 1 27.4001 58.2091)" class="st8 st6 st7">250</text>
</g>
<g id="Layer_2_1_" class="st4">
	<g class="st8">
		<path class="st3" d="M36.8,20.9h-5.2l0.7-2.5c2,0,4.1-0.3,6.3-0.8c2.2-0.6,4.7-1.7,7.7-3.5l-8.7,41.1h-7.9L36.8,20.9z"/>
		<path class="st3" d="M52.6,53.7c-1-1.2-1.5-2.8-1.5-4.9c0-2.2,0.5-4.5,1.6-6.8s2.4-4.4,3.8-6.4c1.4-2,3.3-4.3,5.6-7
			c1.8-2.2,3.1-3.8,3.9-4.9c0.8-1.1,1.2-2,1.2-2.7c-0.7,0.2-1.3,0.3-1.9,0.5c-0.6,0.1-1.2,0.2-1.8,0.2c-1,0-2.1-0.2-3.5-0.6
			c-0.1,0-0.6-0.1-1.4-0.3c-0.8-0.2-1.6-0.3-2.3-0.3c-1.1,0-2,0.2-2.9,0.7c-0.8,0.4-1.7,1.2-2.5,2.2l-0.2-0.1
			c-0.5-1.1-0.7-2.2-0.7-3.4c0-1.9,0.7-3.5,2.1-4.6c1.4-1.2,3.2-1.7,5.4-1.7c0.8,0,1.6,0.1,2.3,0.2c0.7,0.1,1.6,0.3,2.6,0.6
			c1.2,0.3,2.2,0.6,3,0.7c0.8,0.1,1.7,0.2,2.6,0.2c2.1,0,4.5-0.4,7.4-1.2l0.1,0.2c0,0.8-0.4,2-1.3,3.5s-2.2,3.7-4.1,6.6
			c-2.2,3.4-4,6.3-5.4,8.8c-1.4,2.4-2.7,5-3.7,7.8c-1.1,2.7-1.6,5.3-1.6,7.6c0,1.9,0.3,3.8,1,5.7c-1.3,0.7-2.6,1-3.9,1
			C54.9,55.5,53.5,54.9,52.6,53.7z"/>
		<path class="st3" d="M74.7,52.1c-1.7-2.5-2.5-5.8-2.5-10.1c0-5.1,0.8-9.8,2.4-14.1s3.8-7.8,6.6-10.4c2.8-2.6,6.1-3.9,9.7-3.9
			c3.5,0,6.2,1.2,7.9,3.5c1.8,2.3,2.7,5.6,2.7,9.7s-0.6,8.3-1.9,12.8c-1.2,4.5-3.2,8.2-6,11.4c-2.7,3.1-6.2,4.7-10.4,4.7
			C79.3,55.8,76.4,54.6,74.7,52.1z M88.9,47.7c1.5-2.6,2.8-6,3.7-10.2c1-4.1,1.4-8.3,1.4-12.5c0-2.3-0.3-4.2-0.8-5.7
			S91.9,17,90.8,17c-1.7,0-3.3,1.3-4.9,4s-2.9,6.1-4,10.2c-1,4.1-1.5,8.2-1.5,12.2c0,5.5,1.2,8.2,3.6,8.2
			C85.7,51.7,87.4,50.3,88.9,47.7z"/>
	</g>
	<g class="st8">
		<path d="M37.8,21.9h-5.2l0.7-2.5c2,0,4.1-0.3,6.3-0.8c2.2-0.6,4.7-1.7,7.7-3.5l-8.7,41.1h-7.9L37.8,21.9z"/>
		<path d="M53.6,54.7c-1-1.2-1.5-2.8-1.5-4.9c0-2.2,0.5-4.5,1.6-6.8s2.4-4.4,3.8-6.4c1.4-2,3.3-4.3,5.6-7c1.8-2.2,3.1-3.8,3.9-4.9
			c0.8-1.1,1.2-2,1.2-2.7c-0.7,0.2-1.3,0.3-1.9,0.5c-0.6,0.1-1.2,0.2-1.8,0.2c-1,0-2.1-0.2-3.5-0.6c-0.1,0-0.6-0.1-1.4-0.3
			c-0.8-0.2-1.6-0.3-2.3-0.3c-1.1,0-2,0.2-2.9,0.7c-0.8,0.4-1.7,1.2-2.5,2.2l-0.2-0.1c-0.5-1.1-0.7-2.2-0.7-3.4
			c0-1.9,0.7-3.5,2.1-4.6c1.4-1.2,3.2-1.7,5.4-1.7c0.8,0,1.6,0.1,2.3,0.2c0.7,0.1,1.6,0.3,2.6,0.6c1.2,0.3,2.2,0.6,3,0.7
			s1.7,0.2,2.6,0.2c2.1,0,4.5-0.4,7.4-1.2l0.1,0.2c0,0.8-0.4,2-1.3,3.5s-2.2,3.7-4.1,6.6c-2.2,3.4-4,6.3-5.4,8.8
			c-1.4,2.4-2.7,5-3.7,7.8c-1.1,2.7-1.6,5.3-1.6,7.6c0,1.9,0.3,3.8,1,5.7c-1.3,0.7-2.6,1-3.9,1C55.9,56.5,54.5,55.9,53.6,54.7z"/>
		<path d="M75.7,53.1c-1.7-2.5-2.5-5.8-2.5-10.1c0-5.1,0.8-9.8,2.4-14.1s3.8-7.8,6.6-10.4c2.8-2.6,6.1-3.9,9.7-3.9
			c3.5,0,6.2,1.2,7.9,3.5c1.8,2.3,2.7,5.6,2.7,9.7s-0.6,8.3-1.9,12.8c-1.2,4.5-3.2,8.2-6,11.4c-2.7,3.1-6.2,4.7-10.4,4.7
			C80.3,56.8,77.4,55.6,75.7,53.1z M89.9,48.7c1.5-2.6,2.8-6,3.7-10.2c1-4.1,1.4-8.3,1.4-12.5c0-2.3-0.3-4.2-0.8-5.7
			S92.9,18,91.8,18c-1.7,0-3.3,1.3-4.9,4s-2.9,6.1-4,10.2c-1,4.1-1.5,8.2-1.5,12.2c0,5.5,1.2,8.2,3.6,8.2
			C86.7,52.7,88.4,51.3,89.9,48.7z"/>
	</g>
</g>
</svg>
