<?xml version="1.0" encoding="utf-8"?>
<!-- Generator: Adobe Illustrator 13.0.0, SVG Export Plug-In . SVG Version: 6.00 Build 14948)  -->
<!DOCTYPE svg PUBLIC "-//W3C//DTD SVG 1.1//EN" "http://www.w3.org/Graphics/SVG/1.1/DTD/svg11.dtd">
<svg version="1.1" id="Layer_3" xmlns="http://www.w3.org/2000/svg" xmlns:xlink="http://www.w3.org/1999/xlink" x="0px" y="0px"
	 width="100%" height="38px" viewBox="-1246.215 1738.413 60 76" enable-background="new -1246.215 1738.413 60 76"
	 xml:space="preserve">
<g>
	<g>
		<path fill="#555" d="M-1216.499,1754.762c-16.569,0-30.001,13.277-30.001,29.659c0,16.377,13.432,29.654,30.001,29.654
			c16.568,0,29.999-13.277,29.999-29.654C-1186.501,1768.041-1199.933,1754.762-1216.499,1754.762z M-1216.499,1809.167
			c-13.826,0-25.034-11.078-25.034-24.746c0-13.672,11.208-24.75,25.034-24.75c13.824,0,25.031,11.08,25.031,24.75
			C-1191.468,1798.086-1202.675,1809.167-1216.499,1809.167z"/>
		<ellipse fill="#555" cx="-1216.499" cy="1752.805" rx="4.66" ry="4.609"/>
		<path fill="#555" d="M-1216.499,1738.074c-4.777,0-8.651,3.827-8.651,8.549c0,4.723,3.872,8.549,8.651,8.549
			c4.777,0,8.646-3.827,8.646-8.549C-1207.854,1741.902-1211.726,1738.074-1216.499,1738.074z M-1216.499,1752.385
			c-3.219,0-5.826-2.579-5.826-5.76c0-3.184,2.607-5.761,5.826-5.761c3.22,0,5.828,2.579,5.828,5.761
			C-1210.671,1749.806-1213.281,1752.385-1216.499,1752.385z"/>
	</g>
	<path fill="#555" d="M-1192.873,1784.44l-16.186-4.514l4.116-7.375l-7.261,3.98l-4.455-15.4l-4.558,15.567l-7.567-4.146
		l4.155,7.413l-15.676,4.471l15.604,4.408l-4.083,7.281l7.552-4.137l4.562,15.809l4.48-15.639l7.25,3.971l-3.982-7.174
		L-1192.873,1784.44z M-1216.499,1790.297c-3.281,0-5.944-2.629-5.944-5.877s2.663-5.879,5.944-5.879
		c3.283,0,5.945,2.631,5.945,5.879S-1213.216,1790.297-1216.499,1790.297z"/>
</g>
</svg>
