<?xml version="1.0" encoding="utf-8"?>
<!-- Generator: Adobe Illustrator 16.0.0, SVG Export Plug-In . SVG Version: 6.00 Build 0)  -->
<!DOCTYPE svg PUBLIC "-//W3C//DTD SVG 1.1//EN" "http://www.w3.org/Graphics/SVG/1.1/DTD/svg11.dtd">
<svg version="1.1" id="Layer_1" xmlns="http://www.w3.org/2000/svg" xmlns:xlink="http://www.w3.org/1999/xlink" x="0px" y="0px"
	 width="68px" height="46px" viewBox="0 0 106.615 62.392" enable-background="new 0 0 106.615 62.392"
	 xml:space="preserve">
<path fill="#333333" d="M52.511,12.469c12.359-1.537,20.689-4.317,22.99-5.574c3.619-1.845,6.977-4.51,4.143-5.899
	c3.459-0.085,3.373,2.853,3.373,2.853l0.605,18.423c0,0,0.777,2.42-4.928,5.273c-10.639,5.104-36.148,5.104-46.009,6.832
	c-15.998,2.336-16.431,6.832-14.7,10.379c-1.402-0.258-2.94-1.037-3.287-3.201c-0.346-2.162-0.604-16.777-0.69-18.074
	c-0.087-1.298-0.52-3.978,5.188-6.746C26.287,12.498,47.175,13.131,52.511,12.469z"/>
<path d="M53.087,12.172c12.359-1.535,20.689-4.32,22.992-5.575c3.619-1.844,6.975-4.511,4.139-5.899
	c3.461-0.086,3.375,2.854,3.375,2.854l0.605,18.42c0,0,0.779,2.422-4.93,5.276c-10.637,5.102-34.648,4.631-44.508,6.359
	c-15.996,2.334-17.93,7.303-16.199,10.848c-1.402-0.254-2.941-1.035-3.287-3.199c-0.346-2.16-0.605-16.776-0.691-18.075
	c-0.087-1.297-0.519-3.976,5.188-6.742C26.863,12.198,47.751,12.833,53.087,12.172z"/>
<path fill="#FFFFFF" d="M53.661,11.475C66.023,9.94,74.353,7.156,76.654,5.902c3.619-1.848,6.977-4.514,4.141-5.9
	c3.461-0.086,3.373,2.855,3.373,2.855l0.607,18.418c0,0,0.777,2.42-4.93,5.274c-10.637,5.104-36.147,5.104-46.007,6.834
	c-15.999,2.334-16.432,6.83-14.701,10.377c-1.403-0.26-2.94-1.039-3.286-3.201c-0.346-2.164-0.605-16.776-0.691-18.073
	c-0.087-1.297-0.519-3.979,5.188-6.748C27.439,11.504,48.328,12.137,53.661,11.475z"/>
<path fill="#FFFFFF" d="M7.231,35.479c-0.718,1.373-2.399,3.295,7.806,3.893c10.206,0.842,30.377-4.199,43.824-9.002
	c35.42-12.729,39.861-3.723,39.861-3.723s7.688,18.273,7.805,18.969c0.48,2.762-1.117,4.414-2.422,4.902
	c-0.754-7.488-8.014-6.33-11.359-5.891C89.4,45.069,52.859,55.34,39.531,58.346c-24.854,5.881-27.27,0.445-27.27,0.445
	s-5.869-14.135-7.43-17.979C3.271,36.971,5.55,36.37,7.231,35.479z"/>
<path fill="#333333" d="M11.576,59.69c0,0-7.471-18.045-7.43-17.98c0.039,0.066,0,0,0,0c-1.098-2.838-0.229-3.443,0.268-3.92
	c-0.375,1.291,0.138,2.742,0.49,3.611l0,0c0.777,1.92,2.638,6.414,4.299,10.428l0,0c1.621,3.914,3.053,7.359,3.123,7.531l0,0
	c0.004,0.008,0.013,0.023,0.025,0.041l0,0c0.029,0.041,0.082,0.113,0.169,0.203l0,0c0.179,0.18,0.499,0.434,1.058,0.703l0,0
	c1.115,0.537,4.062,1.363,6.956,1.324C36.228,61.969,90.47,44.76,94.66,44.93c8.76-1.291,8.471,6.1,8.471,6.1
	c-0.32-1.275-1.945-6.1-8.471-5.223c-8.004,0.406-51.916,15.822-73.562,16.568C14.572,62.625,11.662,59.897,11.576,59.69
	L11.576,59.69z"/>
<g>
	<path fill="#333333" d="M23.543,15.021c2.072-1.473,4.406-2.553,6.836-3.29c1.803-0.523,3.666-0.972,5.554-0.861
		c1.525,0.063,3.103,0.475,4.287,1.482c1.46,1.245,2.069,3.321,1.716,5.183c-0.46,2.193-2.082,3.916-3.791,5.254
		c-2.477,1.845-5.33,3.187-8.334,3.901c-0.312,0.055-0.872,0.215-0.992-0.186c0.124-0.421,0.582-0.561,0.932-0.735
		c2.495-1.199,4.801-2.778,6.869-4.613c1.278-1.164,2.499-2.449,3.268-4.016c0.374-0.806,0.598-1.768,0.22-2.617
		c-0.494-0.938-1.604-1.286-2.589-1.411c-2.885-0.282-5.777,0.462-8.395,1.634c-2.996,1.354-5.681,3.455-7.59,6.147
		c-0.586,0.948-1.021,2.13-0.635,3.237c0.182,0.728,0.873,1.111,1.293,1.684c-0.611,0.091-1.156-0.262-1.658-0.557
		c-0.926-0.584-1.818-1.401-2.076-2.506c-0.216-1.211,0.244-2.412,0.861-3.436C20.375,17.585,21.913,16.204,23.543,15.021
		L23.543,15.021z"/>
	<path fill="#333333" d="M66.919,3.802c0.99-0.299,1.992,0.297,2.672,0.979c0.559,0.539,0.48,1.408,0.131,2.039
		c-2.984,5.414-6.369,10.672-8.434,16.535c-0.312,1.057-0.869,2.096-0.774,3.227c-0.064,0.287,0.608,0.255,0.191,0.501
		c-0.557,0.039-1.233,0.023-1.609-0.459c-0.43-0.618-0.337-1.421-0.197-2.116c0.271-1.323,0.752-2.59,1.258-3.84
		c1.202-2.887,2.552-5.707,3.909-8.523c1.07-2.268,2.227-4.509,3.062-6.876C67.343,4.765,67.138,4.259,66.919,3.802L66.919,3.802z"
		/>
	<path fill="#333333" d="M72.072,2.727c0.988-0.36,2.006,0.274,2.684,0.96c0.568,0.58,0.467,1.502,0.086,2.153
		c-3.324,5.954-7.107,11.77-9.037,18.372c-0.057,0.53-0.396,1.359,0.262,1.626c-0.336,0.246-0.797,0.143-1.176,0.078
		c-0.744-0.158-1.014-1.025-0.947-1.7c0.139-1.617,0.771-3.138,1.355-4.636c1.357-3.226,2.896-6.368,4.398-9.524
		c0.914-1.973,1.936-3.906,2.639-5.969C72.523,3.612,72.298,3.144,72.072,2.727L72.072,2.727z"/>
	<path fill="#333333" d="M29.993,19.856c0.916-0.808,1.879-1.576,2.975-2.123c0.326-0.115,0.801-0.426,1.056-0.02
		c0.178,0.207,0.036,0.468-0.164,0.586c-1.901,1.326-3.397,3.148-4.683,5.058c-1.34,2.056-2.45,4.311-2.883,6.741
		c-0.136,1.027-0.217,2.117,0.127,3.109c0.173,0.504,0.732,0.516,1.173,0.541c-0.354,0.371-0.837,0.662-1.368,0.629
		c-1.263-0.02-2.371-1.104-2.51-2.342c-0.275-1.896,0.33-3.789,1.146-5.479C26.118,24.021,27.904,21.759,29.993,19.856
		L29.993,19.856z"/>
	<path fill="#333333" d="M43.366,19.03c1.049-0.898,2.266-1.752,3.679-1.887c0.981,0.307,1.796,1.043,2.405,1.852
		c0.301,0.718,0.34,1.697-0.27,2.273c-0.158-0.559,0.299-1.167-0.072-1.689c-0.364-0.393-0.968-0.344-1.447-0.254
		c-1.372,0.302-2.506,1.211-3.508,2.156c-1.841,1.84-3.369,4.085-4.012,6.636c-0.148,0.549-0.183,1.119-0.189,1.684
		c1.496-2.488,3.54-4.584,5.506-6.703c0.223-0.244,0.491-0.477,0.831-0.525c0.661,0.033,1.212,0.469,1.683,0.895
		c-0.879,1.115-0.994,2.623-0.982,3.992c0.037,0.744,0.26,1.691,1.025,2.002c0.158,0.062,0.295,0.154,0.412,0.277
		c-0.844,0.344-1.823,0.004-2.345-0.719c-1.071-1.287-0.953-3.083-0.757-4.64c-0.945,0.906-1.695,1.987-2.477,3.031
		c-0.915,1.234-1.684,2.574-2.35,3.955c-0.171,0.273-0.303,0.699-0.684,0.725c-0.803-0.152-1.396-0.844-1.744-1.543
		c-0.426-1.645,0.039-3.359,0.647-4.898C39.762,23.146,41.342,20.847,43.366,19.03L43.366,19.03z"/>
	<path fill="#333333" d="M73.527,13.065c1.094-1.07,2.354-2.076,3.873-2.441c0.207-0.043,0.445-0.105,0.654-0.013
		c0.883,0.382,1.643,1.024,2.213,1.8c0.303,0.72,0.342,1.701-0.27,2.279c-0.156-0.561,0.301-1.174-0.072-1.691
		c-0.361-0.395-0.961-0.342-1.439-0.256c-1.373,0.303-2.51,1.215-3.508,2.157c-1.852,1.839-3.381,4.091-4.021,6.647
		c-0.146,0.547-0.182,1.111-0.188,1.674c1.498-2.489,3.541-4.584,5.508-6.7c0.219-0.248,0.492-0.477,0.83-0.528
		c0.662,0.032,1.213,0.469,1.682,0.896c-0.857,1.087-0.982,2.552-0.984,3.891c-0.021,0.933,0.387,2.025,1.385,2.269
		c-0.039,0.279-0.469,0.207-0.678,0.243c-1.051,0.012-1.814-0.912-2.178-1.805c-0.445-1.174-0.34-2.465-0.191-3.686
		c-0.893,0.854-1.607,1.868-2.346,2.852c-0.92,1.23-1.715,2.549-2.377,3.934c-0.186,0.314-0.307,0.707-0.639,0.9
		c-0.508,0.064-0.949-0.312-1.283-0.648c-0.307-0.334-0.621-0.707-0.686-1.173c-0.279-1.569,0.15-3.155,0.729-4.606
		C70.464,16.831,71.832,14.782,73.527,13.065L73.527,13.065z"/>
	<path fill="#333333" d="M55.614,15.753c0.513-0.343,1.186-0.673,1.787-0.35c0.919,0.455,1.766,1.134,2.317,2.002
		c0.202,1.091-0.52,2.065-1.19,2.844c-1.127,1.184-2.5,2.21-4.091,2.656c-0.435,0.101-0.95,0.207-1.329-0.1
		c0.466-0.271,0.996-0.416,1.436-0.732c1.035-0.717,1.852-1.701,2.553-2.736c0.443-0.719,0.889-1.491,0.914-2.357
		c-1.645,0.871-2.971,2.23-4.14,3.662c-1.016,1.289-1.964,2.681-2.438,4.269c-0.213,0.716-0.389,1.484-0.182,2.223
		c0.106,0.359,0.414,0.656,0.791,0.705c0.584,0.074,1.092-0.285,1.563-0.574c1.351-0.961,2.493-2.183,3.487-3.498
		c0.257-0.307,0.401-0.801,0.866-0.828c0,0.521-0.271,0.973-0.505,1.42c-0.789,1.41-1.764,2.724-2.899,3.876
		c-0.547,0.516-1.196,1.107-2.01,1.01c-1.204-0.129-2.245-0.965-2.849-1.984c-0.51-0.899-0.431-1.983-0.232-2.962
		c0.382-1.633,1.2-3.13,2.155-4.495C52.73,18.259,54.046,16.841,55.614,15.753L55.614,15.753z"/>
</g>
<g>
	<g>
		<path d="M24.491,14.835c2.073-1.471,4.408-2.555,6.838-3.29c1.802-0.522,3.665-0.972,5.554-0.864
			c1.525,0.064,3.103,0.479,4.286,1.485c1.459,1.243,2.072,3.321,1.715,5.182c-0.459,2.194-2.078,3.915-3.79,5.255
			c-2.476,1.845-5.331,3.187-8.334,3.901c-0.31,0.055-0.873,0.217-0.993-0.184c0.126-0.424,0.584-0.562,0.934-0.737
			c2.493-1.199,4.801-2.777,6.869-4.613c1.279-1.164,2.498-2.449,3.267-4.016c0.374-0.808,0.597-1.768,0.218-2.614
			c-0.496-0.942-1.602-1.29-2.587-1.413c-2.882-0.285-5.778,0.463-8.395,1.633c-2.996,1.355-5.679,3.457-7.589,6.146
			c-0.586,0.949-1.021,2.132-0.635,3.236c0.181,0.727,0.873,1.115,1.292,1.684c-0.61,0.094-1.155-0.26-1.659-0.555
			c-0.926-0.583-1.816-1.398-2.074-2.506c-0.217-1.209,0.244-2.413,0.86-3.437C21.323,17.397,22.861,16.017,24.491,14.835
			L24.491,14.835z"/>
		<path d="M67.871,3.616c0.988-0.303,1.988,0.299,2.67,0.978c0.559,0.538,0.479,1.409,0.133,2.041
			c-2.982,5.415-6.371,10.671-8.438,16.535c-0.312,1.056-0.865,2.095-0.773,3.225c-0.062,0.285,0.609,0.256,0.191,0.5
			c-0.557,0.043-1.234,0.025-1.61-0.458c-0.426-0.617-0.336-1.421-0.197-2.119c0.272-1.321,0.753-2.587,1.259-3.837
			c1.201-2.887,2.551-5.708,3.912-8.525c1.07-2.266,2.223-4.507,3.059-6.873C68.291,4.581,68.085,4.073,67.871,3.616L67.871,3.616z"
			/>
		<path d="M73.019,2.542c0.99-0.361,2.006,0.277,2.684,0.961c0.57,0.579,0.469,1.498,0.086,2.151
			c-3.322,5.954-7.107,11.769-9.035,18.37c-0.057,0.531-0.396,1.362,0.26,1.629c-0.334,0.245-0.795,0.142-1.174,0.078
			c-0.744-0.16-1.016-1.025-0.947-1.7c0.137-1.618,0.77-3.139,1.355-4.636c1.359-3.227,2.895-6.368,4.396-9.524
			c0.918-1.976,1.936-3.909,2.639-5.971C73.47,3.425,73.248,2.958,73.019,2.542L73.019,2.542z"/>
		<path d="M30.94,19.669c0.916-0.805,1.881-1.576,2.977-2.121c0.324-0.117,0.799-0.428,1.057-0.02
			c0.176,0.205,0.034,0.467-0.166,0.588c-1.902,1.323-3.398,3.146-4.684,5.057c-1.338,2.053-2.449,4.308-2.88,6.74
			c-0.14,1.027-0.218,2.117,0.126,3.111c0.172,0.5,0.73,0.514,1.174,0.539c-0.356,0.373-0.84,0.662-1.37,0.631
			c-1.261-0.02-2.372-1.104-2.511-2.344c-0.275-1.895,0.33-3.791,1.146-5.477C27.067,23.834,28.852,21.573,30.94,19.669
			L30.94,19.669z"/>
		<path d="M44.314,18.843c1.051-0.896,2.266-1.749,3.679-1.885c0.98,0.307,1.795,1.042,2.408,1.853
			c0.297,0.719,0.336,1.695-0.27,2.272c-0.162-0.559,0.297-1.17-0.074-1.688c-0.364-0.396-0.969-0.344-1.445-0.258
			c-1.373,0.304-2.508,1.213-3.508,2.156c-1.844,1.84-3.373,4.086-4.016,6.636c-0.148,0.551-0.186,1.117-0.19,1.686
			c1.499-2.488,3.544-4.585,5.509-6.703c0.221-0.246,0.492-0.477,0.832-0.525c0.659,0.033,1.209,0.468,1.68,0.895
			c-0.878,1.116-0.993,2.622-0.982,3.992c0.039,0.744,0.26,1.693,1.023,2.002c0.16,0.066,0.297,0.154,0.414,0.279
			c-0.842,0.342-1.822,0-2.344-0.721c-1.071-1.287-0.951-3.08-0.758-4.64c-0.945,0.908-1.693,1.986-2.477,3.031
			c-0.914,1.234-1.683,2.57-2.35,3.955c-0.169,0.277-0.303,0.699-0.686,0.725c-0.801-0.15-1.39-0.846-1.739-1.543
			c-0.427-1.646,0.039-3.357,0.646-4.899C40.71,22.958,42.288,20.661,44.314,18.843L44.314,18.843z"/>
		<path d="M74.474,12.878c1.096-1.07,2.355-2.073,3.873-2.44c0.211-0.043,0.445-0.104,0.654-0.015
			c0.883,0.385,1.643,1.029,2.215,1.803c0.303,0.719,0.342,1.7-0.27,2.279c-0.156-0.559,0.299-1.172-0.072-1.691
			c-0.363-0.393-0.959-0.343-1.441-0.255c-1.373,0.302-2.512,1.212-3.508,2.157c-1.852,1.839-3.379,4.093-4.018,6.645
			c-0.15,0.547-0.188,1.111-0.188,1.676c1.496-2.49,3.537-4.583,5.5-6.701c0.227-0.246,0.498-0.475,0.838-0.527
			c0.658,0.035,1.209,0.466,1.68,0.896c-0.857,1.084-0.982,2.551-0.986,3.89c-0.018,0.933,0.387,2.024,1.385,2.27
			c-0.039,0.278-0.467,0.204-0.678,0.241c-1.047,0.014-1.812-0.909-2.178-1.803c-0.443-1.176-0.34-2.467-0.188-3.688
			c-0.896,0.854-1.609,1.871-2.348,2.855c-0.918,1.229-1.713,2.548-2.379,3.93c-0.182,0.317-0.305,0.711-0.639,0.903
			c-0.508,0.063-0.947-0.312-1.281-0.65c-0.307-0.334-0.623-0.706-0.686-1.173c-0.279-1.568,0.152-3.152,0.727-4.604
			C71.41,16.646,72.779,14.597,74.474,12.878L74.474,12.878z"/>
		<path d="M56.561,15.566c0.514-0.343,1.186-0.671,1.791-0.351c0.916,0.457,1.762,1.136,2.317,2.006
			c0.199,1.087-0.522,2.063-1.193,2.84c-1.124,1.185-2.501,2.213-4.091,2.658c-0.436,0.102-0.948,0.208-1.326-0.1
			c0.463-0.271,0.994-0.415,1.434-0.73c1.033-0.719,1.852-1.702,2.551-2.737c0.447-0.72,0.889-1.492,0.916-2.36
			c-1.646,0.875-2.973,2.23-4.141,3.662c-1.014,1.291-1.961,2.684-2.44,4.273c-0.211,0.714-0.388,1.481-0.18,2.22
			c0.106,0.359,0.414,0.658,0.79,0.709c0.584,0.07,1.094-0.289,1.565-0.578c1.349-0.961,2.492-2.185,3.487-3.498
			c0.256-0.308,0.4-0.801,0.865-0.828c0,0.521-0.27,0.973-0.505,1.42c-0.792,1.412-1.764,2.722-2.899,3.878
			c-0.547,0.512-1.195,1.105-2.01,1.008c-1.204-0.129-2.242-0.965-2.847-1.98c-0.512-0.905-0.433-1.99-0.235-2.964
			c0.383-1.635,1.201-3.13,2.157-4.496C53.678,18.073,54.995,16.655,56.561,15.566L56.561,15.566z"/>
	</g>
</g>
<g>
	<path fill="none" stroke="#F2F2F2" stroke-width="0.3862" d="M24.491,14.835c2.073-1.471,4.408-2.555,6.838-3.29
		c1.802-0.522,3.665-0.972,5.554-0.864c1.525,0.064,3.103,0.479,4.286,1.485c1.459,1.243,2.072,3.321,1.715,5.182
		c-0.459,2.194-2.078,3.915-3.79,5.255c-2.476,1.845-5.331,3.187-8.334,3.901c-0.31,0.055-0.873,0.217-0.993-0.184
		c0.126-0.424,0.584-0.562,0.934-0.737c2.493-1.199,4.801-2.777,6.869-4.613c1.279-1.164,2.498-2.449,3.267-4.016
		c0.374-0.808,0.597-1.768,0.218-2.614c-0.496-0.942-1.602-1.29-2.587-1.413c-2.882-0.285-5.778,0.463-8.395,1.633
		c-2.996,1.355-5.679,3.457-7.589,6.146c-0.586,0.949-1.021,2.132-0.635,3.236c0.181,0.727,0.873,1.115,1.292,1.684
		c-0.61,0.094-1.155-0.26-1.659-0.555c-0.926-0.583-1.816-1.398-2.074-2.506c-0.217-1.209,0.244-2.413,0.86-3.437
		C21.323,17.397,22.861,16.017,24.491,14.835L24.491,14.835z"/>
	<path fill="none" stroke="#F2F2F2" stroke-width="0.3862" d="M67.871,3.616c0.988-0.303,1.988,0.299,2.67,0.978
		c0.559,0.538,0.479,1.409,0.133,2.041c-2.982,5.415-6.371,10.671-8.438,16.535c-0.312,1.056-0.865,2.095-0.773,3.225
		c-0.062,0.285,0.609,0.256,0.191,0.5c-0.557,0.043-1.234,0.025-1.61-0.458c-0.426-0.617-0.336-1.421-0.197-2.119
		c0.272-1.321,0.753-2.587,1.259-3.837c1.201-2.887,2.551-5.708,3.912-8.525c1.07-2.266,2.223-4.507,3.059-6.873
		C68.291,4.581,68.085,4.073,67.871,3.616L67.871,3.616z"/>
	<path fill="none" stroke="#F2F2F2" stroke-width="0.3862" d="M73.019,2.542c0.99-0.361,2.006,0.277,2.684,0.961
		c0.57,0.579,0.469,1.498,0.086,2.151c-3.322,5.954-7.107,11.769-9.035,18.37c-0.057,0.531-0.396,1.362,0.26,1.629
		c-0.334,0.245-0.795,0.142-1.174,0.078c-0.744-0.16-1.016-1.025-0.947-1.7c0.137-1.618,0.77-3.139,1.355-4.636
		c1.359-3.227,2.895-6.368,4.396-9.524c0.918-1.976,1.936-3.909,2.639-5.971C73.47,3.425,73.248,2.958,73.019,2.542L73.019,2.542z"
		/>
	<path fill="none" stroke="#F2F2F2" stroke-width="0.3862" d="M30.94,19.669c0.916-0.805,1.881-1.576,2.977-2.121
		c0.324-0.117,0.799-0.428,1.057-0.02c0.176,0.205,0.034,0.467-0.166,0.588c-1.902,1.323-3.398,3.146-4.684,5.057
		c-1.338,2.053-2.449,4.308-2.88,6.74c-0.14,1.027-0.218,2.117,0.126,3.111c0.172,0.5,0.73,0.514,1.174,0.539
		c-0.356,0.373-0.84,0.662-1.37,0.631c-1.261-0.02-2.372-1.104-2.511-2.344c-0.275-1.895,0.33-3.791,1.146-5.477
		C27.067,23.834,28.852,21.573,30.94,19.669L30.94,19.669z"/>
	<path fill="none" stroke="#F2F2F2" stroke-width="0.3862" d="M44.314,18.843c1.051-0.896,2.266-1.749,3.679-1.885
		c0.98,0.307,1.795,1.042,2.408,1.853c0.297,0.719,0.336,1.695-0.27,2.272c-0.162-0.559,0.297-1.17-0.074-1.688
		c-0.364-0.396-0.969-0.344-1.445-0.258c-1.373,0.304-2.508,1.213-3.508,2.156c-1.844,1.84-3.373,4.086-4.016,6.636
		c-0.148,0.551-0.186,1.117-0.19,1.686c1.499-2.488,3.544-4.585,5.509-6.703c0.221-0.246,0.492-0.477,0.832-0.525
		c0.659,0.033,1.209,0.468,1.68,0.895c-0.878,1.116-0.993,2.622-0.982,3.992c0.039,0.744,0.26,1.693,1.023,2.002
		c0.16,0.066,0.297,0.154,0.414,0.279c-0.842,0.342-1.822,0-2.344-0.721c-1.071-1.287-0.951-3.08-0.758-4.64
		c-0.945,0.908-1.693,1.986-2.477,3.031c-0.914,1.234-1.683,2.57-2.35,3.955c-0.169,0.277-0.303,0.699-0.686,0.725
		c-0.801-0.15-1.39-0.846-1.739-1.543c-0.427-1.646,0.039-3.357,0.646-4.899C40.71,22.958,42.288,20.661,44.314,18.843
		L44.314,18.843z"/>
	<path fill="none" stroke="#F2F2F2" stroke-width="0.3862" d="M74.474,12.878c1.096-1.07,2.355-2.073,3.873-2.44
		c0.211-0.043,0.445-0.104,0.654-0.015c0.883,0.385,1.643,1.029,2.215,1.803c0.303,0.719,0.342,1.7-0.27,2.279
		c-0.156-0.559,0.299-1.172-0.072-1.691c-0.363-0.393-0.959-0.343-1.441-0.255c-1.373,0.302-2.512,1.212-3.508,2.157
		c-1.852,1.839-3.379,4.093-4.018,6.645c-0.15,0.547-0.188,1.111-0.188,1.676c1.496-2.49,3.537-4.583,5.5-6.701
		c0.227-0.246,0.498-0.475,0.838-0.527c0.658,0.035,1.209,0.466,1.68,0.896c-0.857,1.084-0.982,2.551-0.986,3.89
		c-0.018,0.933,0.387,2.024,1.385,2.27c-0.039,0.278-0.467,0.204-0.678,0.241c-1.047,0.014-1.812-0.909-2.178-1.803
		c-0.443-1.176-0.34-2.467-0.188-3.688c-0.896,0.854-1.609,1.871-2.348,2.855c-0.918,1.229-1.713,2.548-2.379,3.93
		c-0.182,0.317-0.305,0.711-0.639,0.903c-0.508,0.063-0.947-0.312-1.281-0.65c-0.307-0.334-0.623-0.706-0.686-1.173
		c-0.279-1.568,0.152-3.152,0.727-4.604C71.41,16.646,72.779,14.597,74.474,12.878L74.474,12.878z"/>
	<path fill="none" stroke="#F2F2F2" stroke-width="0.3862" d="M56.561,15.566c0.514-0.343,1.186-0.671,1.791-0.351
		c0.916,0.457,1.762,1.136,2.317,2.006c0.199,1.087-0.522,2.063-1.193,2.84c-1.124,1.185-2.501,2.213-4.091,2.658
		c-0.436,0.102-0.948,0.208-1.326-0.1c0.463-0.271,0.994-0.415,1.434-0.73c1.033-0.719,1.852-1.702,2.551-2.737
		c0.447-0.72,0.889-1.492,0.916-2.36c-1.646,0.875-2.973,2.23-4.141,3.662c-1.014,1.291-1.961,2.684-2.44,4.273
		c-0.211,0.714-0.388,1.481-0.18,2.22c0.106,0.359,0.414,0.658,0.79,0.709c0.584,0.07,1.094-0.289,1.565-0.578
		c1.349-0.961,2.492-2.185,3.487-3.498c0.256-0.308,0.4-0.801,0.865-0.828c0,0.521-0.27,0.973-0.505,1.42
		c-0.792,1.412-1.764,2.722-2.899,3.878c-0.547,0.512-1.195,1.105-2.01,1.008c-1.204-0.129-2.242-0.965-2.847-1.98
		c-0.512-0.905-0.433-1.99-0.235-2.964c0.383-1.635,1.201-3.13,2.157-4.496C53.678,18.073,54.995,16.655,56.561,15.566
		L56.561,15.566z"/>
</g>
<g>
	<path fill="#333333" d="M62.464,29.633c0.545-0.945,0.918-2.01,0.793-3.118c1.375-0.049,2.723,1.083,2.803,2.477
		c0.002,0.898-0.547,1.664-1.014,2.393c-1.449,2.08-3.045,4.059-4.454,6.17c1.271-0.58,2.583-1.119,3.97-1.348
		c0.33-0.074,0.662-0.006,0.941,0.186c-1.49,0.615-3.031,1.105-4.49,1.807c-0.584,0.318-1.38,0.408-1.717,1.051
		c-2.46,3.792-4.825,7.687-6.474,11.915c-0.633,1.676-1.297,3.451-1.029,5.271c0.053,0.549,0.455,0.992,1.016,1.029
		c1.49-0.471,2.601-1.631,3.595-2.779c1.534-1.832,2.896-3.82,3.938-5.977c0.929-1.94,1.704-4.018,1.78-6.195
		c0.029-0.76-0.107-1.602-0.666-2.161c-0.504-0.468-1.239-0.38-1.87-0.436c-0.016-0.239-0.129-0.553,0.164-0.676
		c0.91-0.312,1.966,0.023,2.597,0.734c0.84,0.889,1.109,2.156,1.105,3.346c-0.023,2.589-0.947,5.062-2.076,7.356
		c-1.089,2.068-2.321,4.098-3.919,5.822c-1.033,1.109-2.364,2.088-3.919,2.232c-1.528,0.094-2.899-1.047-3.442-2.42
		c-0.324-0.904-0.35-1.887-0.291-2.838c0.221-2.492,1.229-4.83,2.354-7.031c1.096-2.128,2.355-4.165,3.603-6.202
		c-0.662,0.343-1.302,0.751-2.016,0.975c-0.662,0.114-1.016-0.575-1.327-1.03c1.465-0.151,2.772-0.85,4.107-1.411
		C58.456,35.694,60.656,32.79,62.464,29.633L62.464,29.633z"/>
	<path fill="#333333" d="M85.283,26.465c0.449-0.586,1.305-0.133,1.811,0.175c0.588,0.425-0.152,0.929-0.494,1.22
		c-1.557,1.129-3.195,2.275-5.09,2.734c0.121-0.262,0.293-0.496,0.492-0.703C83.085,28.741,84.207,27.625,85.283,26.465
		L85.283,26.465z"/>
	<path fill="#333333" d="M45.735,39.296c0.926-0.61,1.98-1.21,3.122-1.165c0.983,0.443,1.865,1.192,2.416,2.123
		c0.155,0.72,0.281,1.8-0.49,2.21c0.032-0.525,0.283-1.063,0.126-1.591c-0.189-0.498-0.805-0.535-1.258-0.506
		c-1.464,0.143-2.706,1.043-3.791,1.975c-1.87,1.696-3.445,3.774-4.336,6.149c-0.324,0.859-0.547,1.764-0.551,2.691
		c1.621-2.463,3.693-4.582,5.754-6.675c0.309-0.328,0.66-0.709,1.146-0.727c0.666,0.089,1.197,0.547,1.684,0.977
		c-0.789,0.874-0.988,2.093-1.107,3.222c-0.09,0.885-0.075,1.836,0.426,2.605c0.224,0.4,0.705,0.502,1.069,0.734
		c-0.948,0.412-2.042-0.029-2.583-0.865c-1.014-1.395-0.869-3.217-0.603-4.822c-2.097,2.119-3.878,4.57-5.237,7.225
		c-0.201,0.295-0.354,0.809-0.795,0.754c-0.774-0.217-1.338-0.879-1.699-1.557c-0.336-1.137-0.169-2.348,0.124-3.469
		c0.522-1.813,1.413-3.499,2.479-5.047C42.767,41.927,44.11,40.431,45.735,39.296L45.735,39.296z"/>
	<path fill="#333333" d="M81.9,32.061c0.703-0.357,1.475-0.701,2.273-0.65c0.986,0.441,1.861,1.193,2.418,2.119
		c0.152,0.709,0.305,1.836-0.506,2.195c0.064-0.564,0.369-1.178,0.072-1.717c-0.318-0.414-0.906-0.385-1.373-0.338
		c-1.43,0.217-2.643,1.115-3.707,2.045c-1.787,1.65-3.301,3.651-4.184,5.931c-0.346,0.902-0.596,1.849-0.6,2.821
		c1.752-2.642,3.99-4.91,6.23-7.137c0.807-0.664,1.744,0.176,2.352,0.709c-0.793,0.879-0.988,2.099-1.107,3.231
		c-0.084,0.876-0.07,1.816,0.418,2.58c0.219,0.417,0.707,0.518,1.08,0.749c-0.949,0.419-2.043-0.028-2.588-0.863
		c-1.014-1.395-0.863-3.215-0.598-4.82c-2.166,2.179-3.971,4.723-5.369,7.455c-0.158,0.242-0.33,0.593-0.676,0.521
		c-0.766-0.218-1.326-0.88-1.686-1.555c-0.361-1.223-0.15-2.53,0.199-3.729c0.645-2.044,1.717-3.938,3.021-5.63
		C78.779,34.442,80.181,33.012,81.9,32.061L81.9,32.061z"/>
	<path fill="#333333" d="M68.316,34.987c0.518-0.365,1.191-0.129,1.672,0.188c0.418,0.279,0.838,0.822,0.521,1.324
		c-1.008,1.939-2.127,3.821-3.127,5.767c1.6-2.242,3.291-4.433,5.244-6.378c0.533-0.627,1.371-0.006,1.811,0.438
		c0.504,0.543-0.102,1.178-0.4,1.654c-0.641,0.938-1.312,2.298-0.439,3.308c-0.5,0.042-1.035-0.03-1.398-0.409
		c-0.807-0.789-0.824-2.057-0.52-3.078c-1.971,2.679-4.254,5.147-5.855,8.086c-0.51,0.991-1.057,2.04-1.016,3.19
		c-0.439-0.08-0.949-0.176-1.178-0.609c-0.58-0.992-0.213-2.184,0.156-3.182c1.268-3.021,2.566-6.032,4.014-8.976
		c-0.902,0.697-1.66,1.568-2.592,2.221c-0.102-0.031-0.303-0.092-0.406-0.127c0.326-0.562,0.836-0.979,1.283-1.443
		C66.794,36.262,67.488,35.542,68.316,34.987L68.316,34.987z"/>
	<path fill="#333333" d="M34.075,42.89c1.697-0.482,3.197-1.454,4.871-2.002c0.74,0.286,1.373,0.881,1.668,1.624
		c0.041,0.486-0.375,0.826-0.678,1.146c-3.154,3.012-6.185,6.15-9.091,9.402c1.622-1.154,3.593-1.672,5.529-1.986
		c0.574-0.061,1.2-0.188,1.74,0.076c0.135,0.512-0.499,0.51-0.829,0.617c-1.569,0.295-3.08,0.895-4.373,1.834
		c-0.795,0.523-1.445,1.232-2.244,1.744c-1.246,0.219-2.507-1.443-1.688-2.537c1.077-1.629,2.354-3.115,3.587-4.631
		c1.634-2.005,3.539-3.775,5.174-5.778c-1.518,0.993-3.077,2.197-4.965,2.276c-1.013-0.013-1.617-1.021-1.705-1.93
		C32.053,42.963,33.083,43.177,34.075,42.89L34.075,42.89z"/>
	<path fill="#333333" d="M90.958,31.133c0.746-0.574,1.791-0.141,2.373,0.461c0.439,0.449,0.043,1.074-0.139,1.549
		c-0.969,1.977-2.18,3.824-3.287,5.727c2.066-2.461,3.938-5.102,6.25-7.346c0.492-0.459,1.17-1,1.885-0.73
		c0.541,0.215,1.164,0.588,1.242,1.223c-0.186,0.559-0.555,1.031-0.826,1.551c-0.906,1.658-1.791,3.354-2.277,5.191
		c-0.215,0.917-0.305,1.979,0.234,2.801c0.203,0.343,0.641,0.293,0.973,0.384c-0.477,0.812-1.637,0.666-2.287,0.162
		c-1.029-0.728-1.297-2.089-1.199-3.273c0.186-2.259,1.328-4.274,2.252-6.296c-2.021,2.186-3.863,4.531-5.621,6.936
		c-0.871,1.252-1.77,2.513-2.348,3.935c-0.141,0.285-0.053,0.595,0.01,0.886c-0.715,0.099-1.559-0.133-1.881-0.836
		c-0.365-0.843,0.09-1.709,0.428-2.476c1.283-3.032,2.693-6.009,4.117-8.978c-0.461,0.426-0.938,0.836-1.414,1.24
		c-0.258,0.197-0.504,0.469-0.852,0.461c-0.137-0.275,0.105-0.512,0.266-0.707C89.5,32.313,90.22,31.706,90.958,31.133
		L90.958,31.133z"/>
	<g>
		<g>
			<path fill="#333333" d="M34.141,35.317c-0.597-0.924-1.527-1.779-2.681-1.824c-5.478-1.027-11.262-0.797-16.505,1.168
				c-1.105,0.453-2.328,0.977-2.938,2.068c-0.577,1.113,0.376,2.628,1.646,2.533c-0.223-0.206-0.447-0.401-0.676-0.598
				c0.065-0.939,0.934-1.471,1.672-1.881c1.828-0.928,3.814-1.494,5.805-1.959c3.383-0.779,6.879-0.783,10.319-0.5
				c-0.571,0.525-1.074,1.111-1.593,1.686c-3.213,3.605-6.427,7.207-9.684,10.776c-5.74,0.916-11.6,2.385-16.375,5.846
				c-1.194,0.887-2.381,1.934-2.934,3.354c-0.487,1.223-0.046,2.721,1.012,3.5c1.207,0.893,2.805,1.004,4.248,0.83
				c2.566-0.381,4.899-1.684,6.896-3.291c3.454-2.785,6.113-6.373,8.93-9.76c1.469-0.201,2.965-0.338,4.445-0.141
				c-0.574,1.643-1.113,3.33-1.191,5.08c-0.045,1.352,0.396,2.859,1.555,3.66c0.545,0.381,1.229,0.393,1.853,0.223
				c-0.427-0.281-1.008-0.418-1.221-0.932c-0.304-0.711-0.225-1.51-0.138-2.256c0.302-1.926,0.961-3.771,1.68-5.574
				c0.771,0.08,1.514,0.307,2.264,0.492c0.112-0.025,0.343-0.084,0.457-0.109c-0.572-0.756-1.607-0.83-2.471-0.972
				c1.607-3.392,3.347-6.729,5.377-9.889C34.152,36.393,34.489,35.815,34.141,35.317z M9.483,56.162
				c-1.525,1.09-3.262,1.939-5.119,2.281c-0.869,0.119-1.893,0.141-2.58-0.504c-0.574-0.588-0.489-1.535-0.096-2.199
				c0.627-1.082,1.634-1.877,2.632-2.604c4.229-3.033,9.337-4.463,14.38-5.447C15.867,50.757,12.844,53.671,9.483,56.162z
				 M25.913,46.445c-1.378-0.111-2.76-0.025-4.125,0.146c1.51-1.623,3.023-3.238,4.494-4.891c1.383-1.536,2.729-3.117,4.305-4.465
				C28.795,40.173,27.141,43.222,25.913,46.445z"/>
		</g>
	</g>
</g>
<g>
	<g>
		<path d="M63.462,29.327c0.543-0.947,0.914-2.01,0.791-3.118c1.377-0.052,2.723,1.083,2.803,2.479c0,0.9-0.549,1.662-1.014,2.391
			c-1.451,2.08-3.045,4.061-4.453,6.172c1.27-0.582,2.582-1.123,3.967-1.348c0.332-0.078,0.664-0.008,0.943,0.186
			c-1.49,0.615-3.033,1.105-4.492,1.807c-0.58,0.316-1.379,0.404-1.717,1.047c-2.458,3.796-4.823,7.69-6.472,11.915
			c-0.635,1.674-1.296,3.455-1.031,5.273c0.055,0.543,0.458,0.99,1.018,1.027c1.487-0.471,2.599-1.631,3.596-2.775
			c1.531-1.834,2.893-3.82,3.938-5.975c0.93-1.943,1.703-4.023,1.777-6.2c0.031-0.759-0.105-1.602-0.662-2.16
			c-0.504-0.467-1.242-0.38-1.871-0.435c-0.017-0.24-0.132-0.557,0.165-0.678c0.907-0.312,1.962,0.025,2.597,0.734
			c0.838,0.888,1.107,2.158,1.102,3.347c-0.021,2.586-0.945,5.063-2.074,7.354c-1.09,2.072-2.321,4.1-3.921,5.82
			c-1.032,1.115-2.362,2.092-3.916,2.24c-1.531,0.09-2.899-1.055-3.445-2.422c-0.324-0.904-0.35-1.891-0.289-2.84
			c0.222-2.492,1.228-4.83,2.354-7.033c1.095-2.127,2.354-4.162,3.604-6.199c-0.665,0.34-1.3,0.751-2.016,0.975
			c-0.664,0.114-1.016-0.578-1.329-1.028c1.466-0.154,2.774-0.851,4.109-1.414C59.449,35.389,61.65,32.481,63.462,29.327
			L63.462,29.327z"/>
		<g>
			<path d="M86.277,26.157c0.449-0.586,1.309-0.132,1.811,0.177c0.588,0.426-0.152,0.93-0.492,1.221
				c-1.555,1.127-3.197,2.273-5.088,2.734c0.121-0.262,0.289-0.496,0.488-0.703C84.082,28.436,85.203,27.321,86.277,26.157
				L86.277,26.157z"/>
			<path d="M46.732,38.989c0.925-0.609,1.979-1.211,3.118-1.166c0.985,0.445,1.867,1.194,2.42,2.126
				c0.154,0.719,0.279,1.798-0.494,2.21c0.035-0.526,0.283-1.063,0.129-1.594c-0.191-0.498-0.808-0.534-1.259-0.502
				c-1.466,0.138-2.708,1.046-3.79,1.971c-1.871,1.696-3.447,3.775-4.334,6.149c-0.327,0.863-0.548,1.766-0.553,2.693
				c1.623-2.463,3.693-4.58,5.754-6.674c0.309-0.332,0.659-0.712,1.145-0.725c0.668,0.086,1.199,0.545,1.684,0.974
				c-0.787,0.874-0.986,2.092-1.105,3.22c-0.09,0.881-0.077,1.836,0.427,2.605c0.219,0.404,0.703,0.502,1.067,0.736
				c-0.947,0.416-2.039-0.027-2.584-0.867c-1.014-1.393-0.867-3.211-0.602-4.82c-2.098,2.117-3.879,4.566-5.237,7.223
				c-0.2,0.297-0.354,0.809-0.796,0.756c-0.773-0.217-1.336-0.877-1.7-1.559c-0.335-1.135-0.167-2.348,0.127-3.467
				c0.521-1.814,1.412-3.499,2.479-5.047C43.764,41.621,45.106,40.121,46.732,38.989L46.732,38.989z"/>
			<path d="M82.898,31.754c0.699-0.355,1.471-0.703,2.271-0.648c0.986,0.441,1.859,1.189,2.418,2.115
				c0.15,0.713,0.303,1.838-0.506,2.197c0.062-0.561,0.369-1.174,0.074-1.715c-0.322-0.416-0.908-0.389-1.375-0.342
				c-1.432,0.219-2.645,1.119-3.707,2.045c-1.789,1.652-3.301,3.651-4.184,5.936c-0.348,0.899-0.596,1.847-0.602,2.818
				c1.754-2.643,3.992-4.913,6.23-7.135c0.809-0.666,1.748,0.174,2.354,0.707c-0.791,0.877-0.988,2.102-1.109,3.231
				c-0.082,0.874-0.07,1.816,0.42,2.579c0.217,0.418,0.707,0.518,1.078,0.75c-0.949,0.421-2.045-0.029-2.586-0.864
				c-1.012-1.396-0.863-3.212-0.596-4.819c-2.17,2.176-3.973,4.721-5.369,7.455c-0.162,0.243-0.332,0.593-0.68,0.518
				c-0.766-0.216-1.322-0.873-1.689-1.552c-0.354-1.222-0.146-2.53,0.205-3.73c0.643-2.044,1.719-3.935,3.021-5.63
				C79.773,34.137,81.175,32.708,82.898,31.754L82.898,31.754z"/>
			<path d="M69.312,34.682c0.514-0.363,1.193-0.127,1.672,0.186c0.416,0.277,0.836,0.824,0.523,1.324
				c-1.01,1.939-2.131,3.824-3.129,5.767c1.598-2.24,3.289-4.431,5.24-6.38c0.537-0.625,1.375-0.004,1.816,0.439
				c0.5,0.543-0.104,1.178-0.4,1.654c-0.645,0.938-1.318,2.298-0.441,3.31c-0.502,0.037-1.035-0.031-1.398-0.413
				c-0.809-0.79-0.828-2.055-0.52-3.078c-1.971,2.682-4.256,5.15-5.859,8.086c-0.504,0.994-1.051,2.044-1.012,3.192
				c-0.439-0.082-0.947-0.176-1.178-0.607c-0.58-0.994-0.213-2.185,0.156-3.185c1.268-3.021,2.566-6.031,4.014-8.973
				c-0.9,0.693-1.66,1.566-2.592,2.219c-0.104-0.029-0.305-0.096-0.406-0.125c0.326-0.564,0.836-0.98,1.283-1.445
				C67.789,35.959,68.484,35.235,69.312,34.682L69.312,34.682z"/>
			<path d="M35.069,42.58c1.698-0.477,3.199-1.449,4.873-2.001c0.738,0.289,1.373,0.883,1.668,1.627
				c0.041,0.486-0.375,0.825-0.68,1.143c-3.152,3.014-6.182,6.155-9.088,9.407c1.621-1.156,3.59-1.674,5.527-1.988
				c0.574-0.059,1.2-0.189,1.742,0.074c0.133,0.514-0.5,0.514-0.832,0.621c-1.568,0.293-3.078,0.891-4.373,1.836
				c-0.794,0.516-1.444,1.23-2.244,1.742c-1.244,0.217-2.506-1.445-1.688-2.541c1.077-1.627,2.354-3.113,3.587-4.631
				c1.634-2.004,3.54-3.772,5.174-5.775c-1.519,0.994-3.078,2.194-4.962,2.275c-1.014-0.012-1.618-1.021-1.705-1.93
				C33.048,42.657,34.079,42.87,35.069,42.58L35.069,42.58z"/>
			<path d="M91.957,30.825c0.746-0.572,1.785-0.141,2.371,0.463c0.438,0.449,0.045,1.074-0.139,1.549
				c-0.969,1.977-2.178,3.826-3.287,5.725c2.064-2.459,3.938-5.1,6.25-7.34c0.492-0.461,1.17-1.004,1.885-0.736
				c0.539,0.215,1.164,0.592,1.242,1.227c-0.184,0.559-0.555,1.031-0.826,1.549c-0.906,1.656-1.789,3.355-2.277,5.193
				c-0.215,0.915-0.305,1.978,0.236,2.799c0.201,0.338,0.639,0.291,0.971,0.384c-0.475,0.812-1.639,0.667-2.287,0.164
				c-1.029-0.73-1.295-2.089-1.199-3.278c0.188-2.256,1.328-4.27,2.254-6.293c-2.025,2.188-3.865,4.531-5.621,6.937
				c-0.877,1.252-1.771,2.515-2.348,3.935c-0.145,0.282-0.055,0.595,0.004,0.886c-0.713,0.099-1.555-0.133-1.875-0.835
				c-0.369-0.845,0.086-1.71,0.424-2.479c1.287-3.03,2.697-6.007,4.119-8.976c-0.463,0.426-0.938,0.834-1.418,1.242
				c-0.252,0.195-0.502,0.463-0.846,0.457c-0.139-0.273,0.104-0.508,0.264-0.703C90.494,32.006,91.214,31.399,91.957,30.825
				L91.957,30.825z"/>
			<g>
				<g>
					<path d="M35.137,35.008c-0.598-0.92-1.53-1.775-2.682-1.822c-5.477-1.027-11.262-0.797-16.506,1.172
						c-1.104,0.447-2.328,0.973-2.936,2.064c-0.579,1.113,0.375,2.629,1.644,2.531c-0.22-0.205-0.45-0.396-0.675-0.598
						c0.064-0.938,0.934-1.471,1.67-1.881c1.83-0.924,3.815-1.492,5.807-1.955c3.381-0.781,6.879-0.787,10.318-0.5
						c-0.57,0.52-1.074,1.109-1.592,1.682c-3.212,3.608-6.428,7.212-9.686,10.776c-5.738,0.918-11.597,2.387-16.374,5.848
						c-1.194,0.887-2.38,1.936-2.933,3.354c-0.488,1.223-0.047,2.719,1.012,3.502c1.206,0.889,2.805,1.002,4.248,0.828
						c2.565-0.381,4.898-1.684,6.896-3.295c3.454-2.777,6.112-6.367,8.932-9.754c1.468-0.203,2.964-0.338,4.443-0.141
						c-0.574,1.641-1.113,3.326-1.191,5.078c-0.044,1.354,0.399,2.857,1.554,3.658c0.545,0.383,1.23,0.395,1.854,0.227
						c-0.426-0.283-1.009-0.422-1.221-0.934c-0.303-0.709-0.225-1.508-0.139-2.258c0.303-1.922,0.963-3.768,1.682-5.574
						c0.771,0.08,1.514,0.311,2.262,0.498c0.113-0.029,0.344-0.086,0.459-0.115c-0.574-0.752-1.607-0.829-2.471-0.969
						c1.606-3.394,3.347-6.728,5.375-9.892C35.147,36.088,35.485,35.51,35.137,35.008z M10.479,55.857
						c-1.525,1.09-3.263,1.936-5.118,2.281c-0.87,0.121-1.895,0.139-2.581-0.506c-0.573-0.586-0.49-1.537-0.097-2.201
						c0.627-1.082,1.634-1.877,2.634-2.602c4.226-3.035,9.336-4.463,14.379-5.447C16.862,50.449,13.839,53.365,10.479,55.857z
						 M26.909,46.136c-1.377-0.108-2.758-0.026-4.125,0.146c1.508-1.621,3.023-3.234,4.494-4.889
						c1.382-1.536,2.729-3.118,4.301-4.468C29.789,39.865,28.136,42.916,26.909,46.136z"/>
				</g>
			</g>
		</g>
	</g>
</g>
<g>
	<path fill="#E5E5E5" d="M54.819,57.779c2.945-0.859,5.48-4.186,6.665-7.535C59.7,53.781,57.687,56.154,54.819,57.779z"/>
	<g>
		<path fill="#E5E5E5" d="M76.128,43.506c-0.525-1.716,3.508-11.059,8.57-11.455C79.626,33.358,76.576,41.004,76.128,43.506z"/>
		<path fill="#E5E5E5" d="M40.514,50.48c-0.525-1.717,3.506-11.062,8.568-11.455C44.012,40.332,40.958,47.974,40.514,50.48z"/>
		<path fill="#E5E5E5" d="M65.902,27.749c0,0,1.121,0.631,0.068,2.168c-1.051,1.539-7.61,10.089-9.335,13.776
			c1.562-4.225,8.255-12.903,8.921-13.886C66.386,28.5,65.902,27.749,65.902,27.749z"/>
		<path fill="#E5E5E5" d="M33.544,34.532c0,0,1.188,0.494,0.323,2.143c-0.867,1.648-5.749,9.649-6.705,14.692
			c0.18-4.753,5.733-13.702,6.28-14.755C34.116,35.217,33.544,34.532,33.544,34.532z"/>
		<path fill="#E5E5E5" d="M5.377,59.56c5.375,0.047,10.777-6.379,10.777-6.379S10.756,58.636,5.377,59.56z"/>
		<path fill="#E5E5E5" d="M32.86,43.222c0.607,1.58,3.416-0.371,3.416-0.371S33.594,43.928,32.86,43.222z"/>
		<path fill="#E5E5E5" d="M40.589,41.539c0.112,0.147,0.284,0.371-0.036,0.902c-0.322,0.529-3.785,4.145-7.75,8.025
			C37.42,45.352,40.683,42.458,40.589,41.539z"/>
		<path fill="#E5E5E5" d="M13.479,37.155c0,0-0.098-2.797,10.479-3.965C14.387,34.895,13.479,37.155,13.479,37.155z"/>
		<path fill="#E5E5E5" d="M98.894,30.965c0.256,0.051,0.975,0.408,0.672,0.912c-0.297,0.506-1.693,3.018-3.184,6.592
			C98.177,32.844,99.789,31.983,98.894,30.965z"/>
		<path fill="#E5E5E5" d="M70.162,35.12c0.256,0.062,0.955,0.453,0.633,0.943c-0.324,0.49-1.846,2.931-3.51,6.427
			C69.355,36.959,71.005,36.18,70.162,35.12z"/>
		<path fill="#E5E5E5" d="M87.642,26.41c0.039,0.913-3.117,2.52-3.117,2.52S86.548,27.331,87.642,26.41z"/>
		<path fill="#E5E5E5" d="M74.615,36.18c0,0,0.424-0.016,0.285,0.369c-0.697,0.775-1.15,1.357-1.391,3.388
			C73.029,37.836,74.615,36.18,74.615,36.18z"/>
	</g>
</g>
<g>
	<g>
		<g>
			<path fill="none" stroke="#F2F2F2" stroke-width="0.3669" d="M35.137,35.008c-0.598-0.92-1.53-1.775-2.682-1.822
				c-5.477-1.027-11.262-0.797-16.506,1.172c-1.104,0.447-2.328,0.973-2.936,2.064c-0.579,1.113,0.375,2.629,1.644,2.531
				c-0.22-0.205-0.45-0.396-0.675-0.598c0.064-0.938,0.934-1.471,1.67-1.881c1.83-0.924,3.815-1.492,5.807-1.955
				c3.381-0.781,6.879-0.787,10.318-0.5c-0.57,0.52-1.074,1.109-1.592,1.682c-3.212,3.608-6.428,7.212-9.686,10.776
				c-5.738,0.918-11.597,2.387-16.374,5.848c-1.194,0.887-2.38,1.936-2.933,3.354c-0.488,1.223-0.047,2.719,1.012,3.502
				c1.206,0.889,2.805,1.002,4.248,0.828c2.565-0.381,4.898-1.684,6.896-3.295c3.454-2.777,6.112-6.367,8.932-9.754
				c1.468-0.203,2.964-0.338,4.443-0.141c-0.574,1.641-1.113,3.326-1.191,5.078c-0.044,1.354,0.399,2.857,1.554,3.658
				c0.545,0.383,1.23,0.395,1.854,0.227c-0.426-0.283-1.009-0.422-1.221-0.934c-0.303-0.709-0.225-1.508-0.139-2.258
				c0.303-1.922,0.963-3.768,1.682-5.574c0.771,0.08,1.514,0.311,2.262,0.498c0.113-0.029,0.344-0.086,0.459-0.115
				c-0.574-0.752-1.607-0.829-2.471-0.969c1.606-3.394,3.347-6.728,5.375-9.892C35.147,36.088,35.485,35.51,35.137,35.008z
				 M10.479,55.857c-1.525,1.09-3.263,1.936-5.118,2.281c-0.87,0.121-1.895,0.139-2.581-0.506c-0.573-0.586-0.49-1.537-0.097-2.201
				c0.627-1.082,1.634-1.877,2.634-2.602c4.226-3.035,9.336-4.463,14.379-5.447C16.862,50.449,13.839,53.365,10.479,55.857z
				 M26.909,46.136c-1.377-0.108-2.758-0.026-4.125,0.146c1.508-1.621,3.023-3.234,4.494-4.889c1.382-1.536,2.729-3.118,4.301-4.468
				C29.789,39.865,28.136,42.916,26.909,46.136z"/>
		</g>
	</g>
	<g>
		<g>
			<path fill="none" stroke="#F2F2F2" stroke-width="0.3669" d="M63.462,29.327c0.543-0.947,0.914-2.01,0.791-3.118
				c1.377-0.052,2.723,1.083,2.803,2.479c0,0.9-0.549,1.662-1.014,2.391c-1.451,2.08-3.045,4.061-4.453,6.172
				c1.27-0.582,2.582-1.123,3.967-1.348c0.332-0.078,0.664-0.008,0.943,0.186c-1.49,0.615-3.033,1.105-4.492,1.807
				c-0.58,0.316-1.379,0.404-1.717,1.047c-2.458,3.796-4.823,7.69-6.472,11.915c-0.635,1.674-1.296,3.455-1.031,5.273
				c0.055,0.543,0.458,0.99,1.018,1.027c1.487-0.471,2.599-1.631,3.596-2.775c1.531-1.834,2.893-3.82,3.938-5.975
				c0.93-1.943,1.703-4.023,1.777-6.2c0.031-0.759-0.105-1.602-0.662-2.16c-0.504-0.467-1.242-0.38-1.871-0.435
				c-0.017-0.24-0.132-0.557,0.165-0.678c0.907-0.312,1.962,0.025,2.597,0.734c0.838,0.888,1.107,2.158,1.102,3.347
				c-0.021,2.586-0.945,5.063-2.074,7.354c-1.09,2.072-2.321,4.1-3.921,5.82c-1.032,1.115-2.362,2.092-3.916,2.24
				c-1.531,0.09-2.899-1.055-3.445-2.422c-0.324-0.904-0.35-1.891-0.289-2.84c0.222-2.492,1.228-4.83,2.354-7.033
				c1.095-2.127,2.354-4.162,3.604-6.199c-0.665,0.34-1.3,0.751-2.016,0.975c-0.664,0.114-1.016-0.578-1.329-1.028
				c1.466-0.154,2.774-0.851,4.109-1.414C59.449,35.389,61.65,32.481,63.462,29.327L63.462,29.327z"/>
			<path fill="none" stroke="#F2F2F2" stroke-width="0.3669" d="M46.732,38.989c0.925-0.609,1.979-1.211,3.118-1.166
				c0.985,0.445,1.867,1.194,2.42,2.126c0.154,0.719,0.279,1.798-0.494,2.21c0.035-0.526,0.283-1.063,0.129-1.594
				c-0.191-0.498-0.808-0.534-1.259-0.502c-1.466,0.138-2.708,1.046-3.79,1.971c-1.871,1.696-3.447,3.775-4.334,6.149
				c-0.327,0.863-0.548,1.766-0.553,2.693c1.623-2.463,3.693-4.58,5.754-6.674c0.309-0.332,0.659-0.712,1.145-0.725
				c0.668,0.086,1.199,0.545,1.684,0.974c-0.787,0.874-0.986,2.092-1.105,3.22c-0.09,0.881-0.077,1.836,0.427,2.605
				c0.219,0.404,0.703,0.502,1.067,0.736c-0.947,0.416-2.039-0.027-2.584-0.867c-1.014-1.393-0.867-3.211-0.602-4.82
				c-2.098,2.117-3.879,4.566-5.237,7.223c-0.2,0.297-0.354,0.809-0.796,0.756c-0.773-0.217-1.336-0.877-1.7-1.559
				c-0.335-1.135-0.167-2.348,0.127-3.467c0.521-1.814,1.412-3.499,2.479-5.047C43.764,41.621,45.106,40.121,46.732,38.989
				L46.732,38.989z"/>
			<path fill="none" stroke="#F2F2F2" stroke-width="0.3669" d="M82.898,31.754c0.699-0.355,1.471-0.703,2.271-0.648
				c0.986,0.441,1.859,1.189,2.418,2.115c0.15,0.713,0.303,1.838-0.506,2.197c0.062-0.561,0.369-1.174,0.074-1.715
				c-0.322-0.416-0.908-0.389-1.375-0.342c-1.432,0.219-2.645,1.119-3.707,2.045c-1.789,1.652-3.301,3.651-4.184,5.936
				c-0.348,0.899-0.596,1.847-0.602,2.818c1.754-2.643,3.992-4.913,6.23-7.135c0.809-0.666,1.748,0.174,2.354,0.707
				c-0.791,0.877-0.988,2.102-1.109,3.231c-0.082,0.874-0.07,1.816,0.42,2.579c0.217,0.418,0.707,0.518,1.078,0.75
				c-0.949,0.421-2.045-0.029-2.586-0.864c-1.012-1.396-0.863-3.212-0.596-4.819c-2.17,2.176-3.973,4.721-5.369,7.455
				c-0.162,0.243-0.332,0.593-0.68,0.518c-0.766-0.216-1.322-0.873-1.689-1.552c-0.354-1.222-0.146-2.53,0.205-3.73
				c0.643-2.044,1.719-3.935,3.021-5.63C79.773,34.137,81.175,32.708,82.898,31.754L82.898,31.754z"/>
			<path fill="none" stroke="#F2F2F2" stroke-width="0.3669" d="M69.312,34.682c0.514-0.363,1.193-0.127,1.672,0.186
				c0.416,0.277,0.836,0.824,0.523,1.324c-1.01,1.939-2.131,3.824-3.129,5.767c1.598-2.24,3.289-4.431,5.24-6.38
				c0.537-0.625,1.375-0.004,1.816,0.439c0.5,0.543-0.104,1.178-0.4,1.654c-0.645,0.938-1.318,2.298-0.441,3.31
				c-0.502,0.037-1.035-0.031-1.398-0.413c-0.809-0.79-0.828-2.055-0.52-3.078c-1.971,2.682-4.256,5.15-5.859,8.086
				c-0.504,0.994-1.051,2.044-1.012,3.192c-0.439-0.082-0.947-0.176-1.178-0.607c-0.58-0.994-0.213-2.185,0.156-3.185
				c1.268-3.021,2.566-6.031,4.014-8.973c-0.9,0.693-1.66,1.566-2.592,2.219c-0.104-0.029-0.305-0.096-0.406-0.125
				c0.326-0.564,0.836-0.98,1.283-1.445C67.789,35.959,68.484,35.235,69.312,34.682L69.312,34.682z"/>
			<path fill="none" stroke="#F2F2F2" stroke-width="0.3669" d="M35.069,42.58c1.698-0.477,3.199-1.449,4.873-2.001
				c0.738,0.289,1.373,0.883,1.668,1.627c0.041,0.486-0.375,0.825-0.68,1.143c-3.152,3.014-6.182,6.155-9.088,9.407
				c1.621-1.156,3.59-1.674,5.527-1.988c0.574-0.059,1.2-0.189,1.742,0.074c0.133,0.514-0.5,0.514-0.832,0.621
				c-1.568,0.293-3.078,0.891-4.373,1.836c-0.794,0.516-1.444,1.23-2.244,1.742c-1.244,0.217-2.506-1.445-1.688-2.541
				c1.077-1.627,2.354-3.113,3.587-4.631c1.634-2.004,3.54-3.772,5.174-5.775c-1.519,0.994-3.078,2.194-4.962,2.275
				c-1.014-0.012-1.618-1.021-1.705-1.93C33.048,42.657,34.079,42.87,35.069,42.58L35.069,42.58z"/>
			<path fill="none" stroke="#F2F2F2" stroke-width="0.3669" d="M91.957,30.825c0.746-0.572,1.785-0.141,2.371,0.463
				c0.438,0.449,0.045,1.074-0.139,1.549c-0.969,1.977-2.178,3.826-3.287,5.725c2.064-2.459,3.938-5.1,6.25-7.34
				c0.492-0.461,1.17-1.004,1.885-0.736c0.539,0.215,1.164,0.592,1.242,1.227c-0.184,0.559-0.555,1.031-0.826,1.549
				c-0.906,1.656-1.789,3.355-2.277,5.193c-0.215,0.915-0.305,1.978,0.236,2.799c0.201,0.338,0.639,0.291,0.971,0.384
				c-0.475,0.812-1.639,0.667-2.287,0.164c-1.029-0.73-1.295-2.089-1.199-3.278c0.188-2.256,1.328-4.27,2.254-6.293
				c-2.025,2.188-3.865,4.531-5.621,6.937c-0.877,1.252-1.771,2.515-2.348,3.935c-0.145,0.282-0.055,0.595,0.004,0.886
				c-0.713,0.099-1.555-0.133-1.875-0.835c-0.369-0.845,0.086-1.71,0.424-2.479c1.287-3.03,2.697-6.007,4.119-8.976
				c-0.463,0.426-0.938,0.834-1.418,1.242c-0.252,0.195-0.502,0.463-0.846,0.457c-0.139-0.273,0.104-0.508,0.264-0.703
				C90.494,32.006,91.214,31.399,91.957,30.825L91.957,30.825z"/>
		</g>
		<path fill="none" stroke="#F2F2F2" stroke-width="0.3669" d="M86.277,26.157c0.449-0.586,1.309-0.132,1.811,0.177
			c0.588,0.426-0.152,0.93-0.492,1.221c-1.555,1.127-3.197,2.273-5.088,2.734c0.121-0.262,0.289-0.496,0.488-0.703
			C84.082,28.436,85.203,27.321,86.277,26.157L86.277,26.157z"/>
	</g>
</g>
<g>
	<path fill="#737373" d="M42.125,14.556c0,0,1.332,5.819-10.533,11.105C43.948,21.132,42.125,14.556,42.125,14.556z"/>
	<path fill="#737373" d="M56.6,21.438c3.57-1.93,3.949-4.156,3.271-4.482C60.346,17.769,58.847,19.947,56.6,21.438z"/>
	<path fill="#737373" d="M39.675,28.846c-0.499-1.643,3.356-10.583,8.201-10.959C43.024,19.133,40.106,26.451,39.675,28.846z"/>
	<path fill="#737373" d="M70.33,22.847c-0.5-1.643,3.357-10.585,8.199-10.963C73.677,13.136,70.757,20.453,70.33,22.847z"/>
	<path fill="#737373" d="M57.918,15.677c-1.623,0.812-6.284,6.011-6.951,10.152C50.942,21.065,57.055,15.317,57.918,15.677z"/>
	<path fill="#737373" d="M22.801,17.682c3.16-3.602,8.655-6.654,14.235-6.063C32.554,11.906,26.771,13.921,22.801,17.682z"/>
	<path fill="#737373" d="M69.595,4.349c0,0,1.252,0.522,0.338,2.258c-0.91,1.736-6.717,11.48-8.064,15.553
		c1.117-4.613,7.043-14.508,7.619-15.617C70.197,5.076,69.595,4.349,69.595,4.349z"/>
	<path fill="#737373" d="M74.785,3.335c0,0,1.252,0.521,0.342,2.257c-0.914,1.737-6.719,11.479-8.066,15.552
		c1.113-4.612,7.043-14.509,7.619-15.618C75.386,4.062,74.785,3.335,74.785,3.335z"/>
</g>
<g>
	<path fill="#737373" d="M54.819,57.779c2.945-0.859,5.48-4.186,6.665-7.535C59.7,53.781,57.687,56.154,54.819,57.779z"/>
	<g>
		<path fill="#737373" d="M76.128,43.506c-0.525-1.716,3.508-11.059,8.57-11.455C79.626,33.358,76.576,41.004,76.128,43.506z"/>
		<path fill="#737373" d="M40.514,50.48c-0.525-1.717,3.506-11.062,8.568-11.455C44.012,40.332,40.958,47.974,40.514,50.48z"/>
		<path fill="#737373" d="M65.902,27.749c0,0,1.121,0.631,0.068,2.168c-1.051,1.539-7.61,10.089-9.335,13.776
			c1.562-4.225,8.255-12.903,8.921-13.886C66.386,28.5,65.902,27.749,65.902,27.749z"/>
		<path fill="#737373" d="M33.544,34.532c0,0,1.188,0.494,0.323,2.143c-0.867,1.648-5.749,9.649-6.705,14.692
			c0.18-4.753,5.733-13.702,6.28-14.755C34.116,35.217,33.544,34.532,33.544,34.532z"/>
		<path fill="#737373" d="M5.377,59.56c5.375,0.047,10.777-6.379,10.777-6.379S10.756,58.636,5.377,59.56z"/>
		<path fill="#737373" d="M32.86,43.222c0.607,1.58,3.416-0.371,3.416-0.371S33.594,43.928,32.86,43.222z"/>
		<path fill="#737373" d="M40.589,41.539c0.112,0.147,0.284,0.371-0.036,0.902c-0.322,0.529-3.785,4.145-7.75,8.025
			C37.42,45.352,40.683,42.458,40.589,41.539z"/>
		<path fill="#737373" d="M13.479,37.155c0,0-0.098-2.797,10.479-3.965C14.387,34.895,13.479,37.155,13.479,37.155z"/>
		<path fill="#737373" d="M98.894,30.965c0.256,0.051,0.975,0.408,0.672,0.912c-0.297,0.506-1.693,3.018-3.184,6.592
			C98.177,32.844,99.789,31.983,98.894,30.965z"/>
		<path fill="#737373" d="M70.162,35.12c0.256,0.062,0.955,0.453,0.633,0.943c-0.324,0.49-1.846,2.931-3.51,6.427
			C69.355,36.959,71.005,36.18,70.162,35.12z"/>
		<path fill="#737373" d="M87.642,26.41c0.039,0.913-3.117,2.52-3.117,2.52S86.548,27.331,87.642,26.41z"/>
		<path fill="#737373" d="M74.615,36.18c0,0,0.424-0.016,0.285,0.369c-0.697,0.775-1.15,1.357-1.391,3.388
			C73.029,37.836,74.615,36.18,74.615,36.18z"/>
	</g>
</g>
</svg>
