<?xml version="1.0" encoding="utf-8"?>
<!-- Generator: Adobe Illustrator 16.0.0, SVG Export Plug-In . SVG Version: 6.00 Build 0)  -->
<!DOCTYPE svg PUBLIC "-//W3C//DTD SVG 1.1//EN" "http://www.w3.org/Graphics/SVG/1.1/DTD/svg11.dtd">
<svg version="1.1" id="Layer_1" xmlns="http://www.w3.org/2000/svg" xmlns:xlink="http://www.w3.org/1999/xlink" x="0px" y="0px"
	 width="120.562px" height="133.763px" viewBox="0 0 120.562 133.763" enable-background="new 0 0 120.562 133.763"
	 xml:space="preserve">
<path opacity="0.5" d="M30.014,132.205l27.336-36.13c0,0-24.194-48.071-22.623-45.558C36.297,53.031,30.014,132.205,30.014,132.205z
	"/>
<polygon opacity="0.3" points="77.456,130.007 82.798,116.184 64.574,96.703 57.034,102.673 "/>
<path d="M35.041,0h51.213c0,0-4.085,107.059,1.257,133.763c-5.026-7.537-23.25-26.077-27.648-29.848
	c-3.142,1.887-24.507,27.335-24.507,27.335L35.041,0z"/>
<g>
	<g>
		<g>
			<g>
				<polygon fill="#FAAA3A" points="59.119,49.113 61.442,49.047 58.985,4.692 				"/>
				<polygon fill="#FAAA3A" points="60.308,49.938 60.255,48.223 0,50.725 				"/>
				<polygon fill="#FAAA3A" points="60.255,48.223 60.308,49.938 120.562,47.432 				"/>
				<polygon fill="#FAAA3A" points="59.476,49.709 61.084,48.452 16.741,18.857 				"/>
				<polygon fill="#FAAA3A" points="61.124,49.662 59.44,48.5 18.57,81.63 				"/>
				<polygon fill="#FAAA3A" points="59.438,48.5 61.124,49.662 101.991,16.529 				"/>
				<polygon fill="#FAAA3A" points="60.75,49.857 59.811,48.301 5.084,67.588 				"/>
				<polygon fill="#FAAA3A" points="59.81,48.301 60.75,49.858 115.479,30.572 				"/>
				<polygon fill="#FAAA3A" points="59.217,49.439 61.347,48.721 36.017,8.701 				"/>
				<polygon fill="#FAAA3A" points="59.194,48.782 61.365,49.377 82.152,7.439 				"/>
				<polygon fill="#FAAA3A" points="60.701,48.276 59.862,49.884 116.468,64.545 				"/>
				<polygon fill="#FAAA3A" points="59.862,49.884 60.701,48.276 4.093,33.613 				"/>
				<polygon fill="#FAAA3A" points="60.948,49.774 59.613,48.387 10.878,75.109 				"/>
				<polygon fill="#FAAA3A" points="59.612,48.387 60.948,49.774 109.686,23.051 				"/>
				<polygon fill="#FAAA3A" points="59.328,49.583 61.235,48.576 25.713,13.088 				"/>
				<polygon fill="#FAAA3A" points="59.136,48.943 61.427,49.215 70.772,5.225 				"/>
				<polygon fill="#FAAA3A" points="60.48,48.232 60.08,49.927 119.655,56.125 				"/>
				<polygon fill="#FAAA3A" points="60.08,49.927 60.48,48.232 0.905,42.034 				"/>
				<polygon fill="#FAAA3A" points="59.146,49.279 61.417,48.881 47.252,5.867 				"/>
				<polygon fill="#FAAA3A" points="60.535,49.914 60.028,48.246 1.411,59.354 				"/>
				<polygon fill="#FAAA3A" points="60.028,48.246 60.535,49.914 119.149,38.807 				"/>
				<polygon fill="#FAAA3A" points="59.655,49.809 60.905,48.35 9.44,25.787 				"/>
				<polygon fill="#FAAA3A" points="60.903,48.35 59.655,49.809 111.122,72.369 				"/>
				<polygon fill="#FAAA3A" points="59.296,48.632 61.264,49.528 92.696,11.26 				"/>
			</g>
			<g>
				<polygon fill="#FFD468" points="56.942,49.068 59.271,49.115 58.976,4.695 				"/>
				<polygon fill="#FFD468" points="60.306,51.63 60.302,49.915 0,50.725 				"/>
				<polygon fill="#FFD468" points="60.251,46.789 60.265,48.502 120.562,47.432 				"/>
				<polygon fill="#FFD468" points="58.274,51.311 59.931,50.111 16.741,18.857 				"/>
				<polygon fill="#FFD468" points="62.581,51.699 60.954,50.457 18.57,81.63 				"/>
				<polygon fill="#FFD468" points="58.282,46.898 59.923,48.125 101.991,16.529 				"/>
				<polygon fill="#FFD468" points="61.288,51.645 60.397,50.061 5.084,67.588 				"/>
				<polygon fill="#FFD468" points="59.391,46.924 60.291,48.506 115.479,30.572 				"/>
				<polygon fill="#FFD468" points="57.407,50.418 59.565,49.794 36.017,8.701 				"/>
				<polygon fill="#FFD468" points="57.569,47.838 59.712,48.518 82.152,7.439 				"/>
				<polygon fill="#FFD468" points="61.134,46.859 60.255,48.443 116.468,64.545 				"/>
				<polygon fill="#FFD468" points="59.36,51.516 60.246,49.932 4.093,33.613 				"/>
				<polygon fill="#FFD468" points="61.86,51.656 60.576,50.217 10.878,75.109 				"/>
				<polygon fill="#FFD468" points="58.902,46.936 60.201,48.36 109.686,23.051 				"/>
				<polygon fill="#FFD468" points="57.881,50.866 59.824,49.932 25.713,13.088 				"/>
				<polygon fill="#FFD468" points="57.183,48.378 59.458,48.752 70.772,5.225 				"/>
				<polygon fill="#FFD468" points="60.709,46.671 60.265,48.353 119.655,56.125 				"/>
				<polygon fill="#FFD468" points="59.813,51.723 60.265,50.041 0.905,42.034 				"/>
				<polygon fill="#FFD468" points="56.952,49.823 59.241,49.537 47.252,5.867 				"/>
				<polygon fill="#FFD468" points="60.781,51.621 60.323,49.939 1.411,59.354 				"/>
				<polygon fill="#FFD468" points="59.805,46.729 60.269,48.406 119.149,38.807 				"/>
				<polygon fill="#FFD468" points="58.802,51.522 60.1,50.104 9.44,25.787 				"/>
				<polygon fill="#FFD468" points="61.672,46.806 60.38,48.23 111.122,72.369 				"/>
				<polygon fill="#FFD468" points="57.767,47.205 59.694,48.184 92.696,11.26 				"/>
			</g>
		</g>
		<g>
			<path fill="#FFFFFF" d="M44.274,55.127c-3.537-0.957-5.793-2.174-7.277-3.32l0,0c-1.351-1.041-2.067-2.041-2.494-2.619l0,0
				c-1.623-0.475-3.826-1.146-5.777-1.977l0,0c-0.617-0.157-1.379-0.656-2.166-1.348l0,0c-0.789-0.73-1.561-1.632-1.665-2.743l0,0
				c-0.072-0.751,0.322-1.542,1.104-2.03l0,0c0.778-0.505,1.921-0.842,3.619-1.025l0,0l0.03-0.004h0.031
				c0.748,0.006,1.204,0.07,1.847,0.023l0,0c0.12-0.012,0.251-0.023,0.393-0.042l0,0h0.003l0.018-0.002
				c0.834-0.078,1.464-0.397,2.166-0.896l0,0c1.304-0.906,3.621-2.438,7.154-3.831l0,0c4.814-1.773,11.543-3.456,18.927-4.005l0,0
				c8.136-0.6,17.068,0.172,25.099,3.77l0,0c1.27,0.615,1.929,0.697,2.481,0.66l0,0c0.347-0.025,0.687-0.115,1.128-0.203l0,0
				l0.02-0.002l0.025-0.003c0.279-0.031,0.547-0.055,0.805-0.077l0,0c1.826-0.132,3.089-0.001,3.991,0.366l0,0
				c0.9,0.349,1.458,1.083,1.499,1.876l0,0c0.061,1.111-0.572,2.123-1.302,2.998l0,0c-0.731,0.854-1.579,1.541-2.31,1.852l0,0
				c-1.426,0.814-4.26,2.19-5.022,2.562l0,0c-0.471,1.013-2.756,5.199-8.999,7.481l0,0c-3.306,1.637-9.886,3.031-16.869,3.557l0,0
				C54.925,56.574,48.876,56.385,44.274,55.127L44.274,55.127z"/>
			<g>
				<g>
					<g>
						<path fill="#231F20" d="M27.454,41.52c1.66-0.867,4.504-0.549,5.202-0.635c0.938-0.086,1.664-0.453,2.38-0.947
							c1.257-0.846,3.476-2.265,6.861-3.566c9.777-3.502,27.848-6.68,42.516-0.347c2.082,0.977,3.826,0.552,3.826,0.552
							s2.26-0.234,3.035-0.162c3.191,0.296,2.848,2.104,1.707,3.605c-0.799,1.074-3.799,3.34-7.498,4.526
							c-0.124,0.222-1.855,4.597-8.585,6.979c-5.636,2.74-22.483,4.996-32.155,2.448c-6.784-1.757-8.492-4.456-9.326-5.523
							c-2.135-0.495-7.281-2.056-8.732-4.237C25.836,42.732,26.898,41.81,27.454,41.52z"/>
					</g>
					<g>
						<g>
							<g>
								<path fill="#FFFFFF" d="M33.151,41.854c0,0-5.431-0.221-5.688,1.042c-0.167,2.408,7.742,4.265,7.742,4.265
									C32.612,45.154,32.82,42.414,33.151,41.854z"/>
							</g>
						</g>
						<g>
							<g>
								<path fill="#FFFFFF" d="M92.657,37.838c-0.447-1.207-5.778-0.154-5.778-0.154c0.415,0.504,1.042,3.18-1.208,5.563
									C85.671,43.247,93.196,40.19,92.657,37.838z"/>
							</g>
						</g>
					</g>
					<g>
						<path fill="#FFD468" d="M60.712,48.893c-14.296,1.11-26.149-1.396-26.476-5.596c-0.249-3.213,11.001-8.506,25.297-9.619h0.015
							c14.299-1.107,26.229,2.387,26.475,5.599c0.327,4.2-10.998,8.506-25.295,9.614L60.712,48.893z"/>
						<g>
							<path fill="#020202" d="M45.501,41.776c-1.249-0.644-2.045-1.749-2.981-2.662c3.249-0.591,6.586-0.454,8.848,1.11
								l0.104,0.207c-1.41,0.756-2.744,1.61-4.715,1.692C46.757,42.124,46.017,41.946,45.501,41.776z"/>
							<path fill="#020202" d="M63.204,39.672c0.482-2.671,4.252-4.137,8.23-3.889C70.563,38.181,67.261,40.356,63.204,39.672
								L63.204,39.672z"/>
							<path fill="#020202" d="M50.877,48.179c-0.306-1.911-0.009-4.508,3.485-5.368c1.992-0.482,1.619,0.959,1.812,1.744
								C56.243,46.433,53.04,47.331,50.877,48.179L50.877,48.179z"/>
							<path fill="#020202" d="M69.687,42.717c-3.271-2.117,2.529-0.501,3.76-0.439c3.26,0.807,3.25,1.883,1.643,2.774
								c-3.293,0.655-7.345-0.444-8.461-2.854L69.687,42.717L69.687,42.717z"/>
						</g>
						<g>
							<path fill="#020202" d="M72.276,35.989c1.029-0.653,2.766-0.967,3.998-0.52c0.668,0.218,1.061,0.628,1.512,0.983
								c0.227,0.205,0.732,0.079,1.078,0.119c1.468-0.014,3.018,0.306,3.742,1.111c-0.206,0.176-0.414,0.35-0.617,0.523
								c-0.943-0.074-1.929,0.052-2.656,0.504c-0.51-0.163-1.04-0.436-1.683-0.285c-0.445,0.062-0.547,0.389-0.788,0.588
								c0.059-0.444,0.339-0.855,1.134-0.967c-0.309-0.039-0.611-0.076-0.917-0.112c0.299-0.085,0.6-0.166,0.902-0.248
								c-1.561-0.192-3.336-0.306-4.739,0.404c0.189-0.282,0.374-0.628,0.897-0.736c1.022-0.25,2.109-0.154,3.163-0.269
								c-1.168-0.016-2.341-0.016-3.509-0.016c-0.971,0.021-1.234,0.959-0.457,1.265c-1.116-0.324-0.811-1.041-0.52-1.604
								c0.441-0.658,1.564-1,2.578-1.203c-1.043-0.124-2.346,0.078-3.064,0.643c-0.689,0.583-0.178,1.253-0.065,1.855
								C71.737,37.434,71.448,36.6,72.276,35.989L72.276,35.989z"/>
							<path fill="#FFD468" d="M72.817,36.883c0.555-0.527,1.438-1.016,2.474-1.014c0.905,0.008,1.562,0.398,2.073,0.801
								C75.849,36.764,74.313,36.588,72.817,36.883L72.817,36.883z"/>
							<path fill="#020202" d="M78.906,37.229C79.771,37.201,78.53,37.761,78.906,37.229L78.906,37.229z"/>
							<path fill="#020202" d="M82.083,38.352c0.208-0.188,0.423-0.376,0.642-0.564c0.131,0.296,0.245,0.599,0.348,0.9
								c-0.31,0.17-0.62,0.343-0.938,0.506c-0.656-0.137-1.321-0.289-2.049-0.236c-0.101-0.074-0.302-0.229-0.404-0.307
								C80.393,38.311,81.265,38.273,82.083,38.352L82.083,38.352z"/>
							<path fill="#020202" d="M80.431,39.047c0.602,0.041,1.169,0.172,1.709,0.319c0.312-0.177,0.629-0.356,0.948-0.53
								c-0.065,0.295-0.081,0.597-0.22,0.891c-0.288,0.126-0.645,0.147-0.964,0.22C81.405,39.65,80.743,39.449,80.431,39.047
								L80.431,39.047z"/>
							<path fill="#020202" d="M80.434,39.484c0.562,0.081,0.942,0.355,1.349,0.58c0.26-0.028,0.778-0.084,1.035-0.111
								c-0.403,0.336-0.742,0.85-1.552,0.736C81.004,40.282,80.69,39.893,80.434,39.484L80.434,39.484z"/>
							<path fill="#020202" d="M80.519,41.033c-0.178-0.364-0.174-0.736,0.02-1.113c0.334,0.349,0.293,0.971,1.188,0.951
								c-0.788,0.174-1.457,0.588-2.29,0.64c-0.886,0.417-2.251,0.351-2.654-0.29c0.415-0.139,0.849-0.25,1.302-0.309
								c-0.021-0.117-0.068-0.352-0.09-0.468c1.006-0.167,1.002,0.595,1.059,1.009l0.168,0.03c0.023-0.278,0.192-0.542,0.342-0.806
								c0.095,0.159,0.283,0.481,0.374,0.641c0.003-0.243,0-0.734,0-0.979C80.122,40.568,80.295,40.813,80.519,41.033L80.519,41.033
								z"/>
						</g>
						<g>
							<path fill="#020202" d="M50.935,37.611c0.729-0.98,2.236-1.894,3.549-1.918c0.701-0.036,1.215,0.204,1.763,0.373
								c0.286,0.113,0.712-0.186,1.048-0.271c1.367-0.54,2.928-0.8,3.895-0.305c-0.131,0.233-0.262,0.475-0.391,0.712
								c-0.907,0.267-1.781,0.736-2.297,1.418c-0.539,0.03-1.128-0.032-1.676,0.338c-0.393,0.219-0.37,0.559-0.523,0.831
								c-0.104-0.437,0.009-0.919,0.709-1.31c-0.3,0.079-0.597,0.148-0.895,0.225c0.252-0.186,0.502-0.369,0.756-0.555
								c-1.525,0.377-3.224,0.912-4.285,2.076c0.079-0.331,0.125-0.719,0.578-1.009c0.865-0.601,1.914-0.903,2.854-1.384
								c-1.094,0.402-2.189,0.823-3.277,1.24c-0.898,0.369-0.811,1.34,0.025,1.346c-1.16,0.1-1.129-0.679-1.062-1.312
								c0.18-0.769,1.104-1.494,1.977-2.044c-1.017,0.254-2.161,0.908-2.629,1.696c-0.436,0.788,0.283,1.231,0.604,1.753
								C50.948,39.154,50.381,38.477,50.935,37.611L50.935,37.611z"/>
							<path fill="#FFD468" d="M51.761,38.251c0.327-0.69,0.977-1.466,1.945-1.833c0.85-0.315,1.602-0.188,2.226,0.006
								C54.548,37.053,53.052,37.438,51.761,38.251L51.761,38.251z"/>
							<path fill="#020202" d="M57.571,36.393C58.367,36.058,57.408,37.022,57.571,36.393L57.571,36.393z"/>
							<path fill="#020202" d="M60.937,36.3c0.127-0.251,0.262-0.503,0.394-0.757c0.231,0.232,0.446,0.473,0.653,0.719
								c-0.229,0.27-0.457,0.54-0.697,0.809c-0.66,0.107-1.338,0.202-1.998,0.515c-0.117-0.038-0.363-0.108-0.486-0.144
								C59.345,36.867,60.144,36.521,60.937,36.3L60.937,36.3z"/>
							<path fill="#020202" d="M59.642,37.542c0.58-0.177,1.151-0.259,1.712-0.313c0.229-0.277,0.459-0.559,0.695-0.836
								c0.047,0.3,0.142,0.588,0.114,0.91c-0.223,0.221-0.549,0.37-0.818,0.551C60.77,37.756,60.079,37.805,59.642,37.542
								L59.642,37.542z"/>
							<path fill="#020202" d="M59.805,37.949c0.552-0.123,1.005-0.006,1.468,0.059c0.229-0.121,0.695-0.356,0.922-0.474
								c-0.254,0.459-0.385,1.058-1.183,1.243C60.622,38.491,60.188,38.239,59.805,37.949L59.805,37.949z"/>
							<path fill="#020202" d="M60.438,39.367c-0.299-0.275-0.426-0.629-0.381-1.049c0.436,0.205,0.622,0.801,1.451,0.464
								c-0.674,0.446-1.15,1.07-1.912,1.419c-0.678,0.702-1.976,1.133-2.578,0.678c0.338-0.278,0.7-0.534,1.1-0.755
								c-0.062-0.101-0.185-0.302-0.25-0.402c0.877-0.518,1.148,0.193,1.352,0.563l0.166-0.032
								c-0.076-0.271-0.012-0.577,0.031-0.878c0.146,0.115,0.438,0.35,0.582,0.465c-0.09-0.228-0.265-0.686-0.354-0.914
								C59.903,39.076,60.151,39.242,60.438,39.367L60.438,39.367z"/>
						</g>
						<g>
							<path fill="#020202" d="M67.979,45.326c-0.728,0.98-2.237,1.894-3.552,1.918c-0.699,0.038-1.212-0.204-1.762-0.375
								c-0.286-0.11-0.709,0.188-1.049,0.274c-1.365,0.54-2.926,0.798-3.893,0.304c0.131-0.236,0.262-0.473,0.39-0.71
								c0.907-0.271,1.778-0.738,2.299-1.419c0.536-0.033,1.126,0.03,1.675-0.339c0.393-0.22,0.369-0.558,0.525-0.832
								c0.102,0.436-0.01,0.921-0.71,1.307c0.3-0.074,0.595-0.147,0.896-0.222c-0.253,0.188-0.504,0.369-0.757,0.555
								c1.524-0.375,3.222-0.913,4.282-2.078c-0.076,0.332-0.124,0.723-0.575,1.013c-0.866,0.599-1.917,0.898-2.856,1.384
								c1.097-0.403,2.189-0.824,3.281-1.24c0.896-0.369,0.809-1.342-0.024-1.348c1.157-0.098,1.128,0.678,1.06,1.312
								c-0.18,0.771-1.106,1.496-1.978,2.047c1.019-0.256,2.161-0.91,2.631-1.697c0.433-0.793-0.282-1.236-0.604-1.757
								C67.964,43.787,68.532,44.461,67.979,45.326L67.979,45.326z"/>
							<path fill="#FFD468" d="M67.15,44.686c-0.329,0.692-0.977,1.467-1.944,1.836c-0.848,0.316-1.604,0.186-2.225-0.008
								C64.362,45.885,65.86,45.499,67.15,44.686L67.15,44.686z"/>
							<path fill="#020202" d="M61.341,46.547C60.544,46.879,61.502,45.915,61.341,46.547L61.341,46.547z"/>
							<path fill="#020202" d="M57.975,46.638c-0.126,0.252-0.259,0.503-0.396,0.756c-0.229-0.231-0.443-0.472-0.65-0.715
								c0.229-0.27,0.455-0.544,0.697-0.809c0.662-0.11,1.335-0.204,1.994-0.517c0.123,0.035,0.367,0.107,0.491,0.141
								C59.568,46.07,58.768,46.418,57.975,46.638L57.975,46.638z"/>
							<path fill="#020202" d="M59.271,45.396c-0.58,0.177-1.154,0.261-1.713,0.314c-0.23,0.276-0.46,0.559-0.696,0.835
								c-0.043-0.298-0.141-0.586-0.112-0.91c0.225-0.221,0.548-0.37,0.822-0.551C58.143,45.182,58.833,45.133,59.271,45.396
								L59.271,45.396z"/>
							<path fill="#020202" d="M59.108,44.988c-0.554,0.123-1.007,0.008-1.469-0.059c-0.231,0.119-0.694,0.355-0.924,0.477
								c0.257-0.459,0.389-1.061,1.186-1.246C58.29,44.447,58.723,44.699,59.108,44.988L59.108,44.988z"/>
							<path fill="#020202" d="M58.476,43.57c0.294,0.277,0.426,0.629,0.379,1.05c-0.435-0.206-0.621-0.801-1.449-0.462
								c0.673-0.449,1.149-1.073,1.906-1.422c0.679-0.705,1.977-1.133,2.58-0.678c-0.334,0.275-0.697,0.536-1.101,0.756
								c0.063,0.098,0.188,0.303,0.251,0.4c-0.877,0.519-1.147-0.192-1.35-0.561l-0.165,0.03c0.077,0.271,0.013,0.579-0.036,0.876
								c-0.14-0.116-0.436-0.346-0.577-0.465c0.088,0.229,0.265,0.689,0.353,0.918C59.009,43.861,58.759,43.697,58.476,43.57
								L58.476,43.57z"/>
						</g>
						<g>
							<path fill="#020202" d="M47.152,46.404c-1.029,0.654-2.765,0.968-3.999,0.521c-0.666-0.218-1.061-0.626-1.512-0.983
								c-0.226-0.207-0.73-0.078-1.076-0.121c-1.468,0.012-3.021-0.302-3.746-1.11c0.208-0.173,0.414-0.349,0.619-0.522
								c0.945,0.074,1.929-0.051,2.655-0.504c0.513,0.166,1.04,0.436,1.685,0.287c0.445-0.063,0.547-0.389,0.789-0.59
								c-0.061,0.445-0.34,0.854-1.134,0.969c0.308,0.034,0.612,0.074,0.917,0.111c-0.303,0.084-0.6,0.166-0.904,0.249
								c1.561,0.194,3.335,0.304,4.744-0.404c-0.195,0.28-0.377,0.624-0.899,0.731c-1.024,0.252-2.114,0.159-3.165,0.27
								c1.168,0.017,2.34,0.02,3.508,0.017c0.97-0.021,1.235-0.957,0.458-1.263c1.116,0.322,0.811,1.037,0.521,1.605
								c-0.444,0.654-1.566,0.998-2.579,1.201c1.044,0.126,2.345-0.078,3.064-0.643c0.685-0.582,0.178-1.254,0.063-1.854
								C47.693,44.962,47.98,45.795,47.152,46.404L47.152,46.404z"/>
							<path fill="#FFD468" d="M46.608,45.512c-0.553,0.528-1.435,1.02-2.47,1.016c-0.905-0.011-1.565-0.403-2.075-0.805
								C43.579,45.632,45.115,45.806,46.608,45.512L46.608,45.512z"/>
							<path fill="#020202" d="M40.522,45.166C39.659,45.19,40.899,44.635,40.522,45.166L40.522,45.166z"/>
							<path fill="#020202" d="M37.347,44.043c-0.211,0.191-0.423,0.379-0.641,0.566c-0.133-0.299-0.246-0.599-0.352-0.904
								c0.31-0.168,0.619-0.34,0.939-0.503c0.656,0.135,1.322,0.29,2.051,0.232c0.098,0.078,0.303,0.233,0.404,0.31
								C39.034,44.087,38.164,44.123,37.347,44.043L37.347,44.043z"/>
							<path fill="#020202" d="M38.999,43.35c-0.604-0.045-1.168-0.172-1.711-0.322c-0.312,0.18-0.629,0.357-0.947,0.532
								c0.066-0.295,0.079-0.599,0.221-0.89c0.287-0.125,0.643-0.15,0.963-0.223C38.024,42.744,38.687,42.946,38.999,43.35
								L38.999,43.35z"/>
							<path fill="#020202" d="M38.993,42.912c-0.558-0.084-0.941-0.355-1.348-0.58c-0.258,0.028-0.777,0.082-1.032,0.109
								c0.4-0.334,0.741-0.85,1.55-0.737C38.425,42.112,38.737,42.502,38.993,42.912L38.993,42.912z"/>
							<path fill="#020202" d="M38.913,41.361c0.176,0.364,0.17,0.734-0.02,1.117c-0.336-0.351-0.295-0.971-1.191-0.953
								c0.791-0.178,1.459-0.59,2.293-0.645c0.883-0.412,2.248-0.348,2.649,0.292c-0.412,0.138-0.845,0.251-1.298,0.31
								c0.021,0.117,0.068,0.352,0.087,0.465c-1.002,0.173-0.999-0.588-1.055-1.006L40.21,40.91
								c-0.023,0.279-0.195,0.543-0.346,0.809c-0.092-0.162-0.281-0.483-0.373-0.645c-0.002,0.246,0.001,0.736,0.002,0.982
								C39.307,41.825,39.133,41.58,38.913,41.361L38.913,41.361z"/>
						</g>
					</g>
				</g>
				<path fill="#AEDEE4" d="M36.981,47.97c0,0,1.085,3.365,6.933,5.067c-4.947-2.363-4.579-4.021-4.579-4.021L36.981,47.97z"/>
				<path fill="#AEDEE4" d="M84.607,43.492c0,0-0.367,4.062-5.978,6.438c4.639-2.926,3.764-5.123,3.764-5.123L84.607,43.492z"/>
			</g>
		</g>
	</g>
	<g>
		<path fill="#020202" d="M62.542,57.303c12.359-1.537,20.688-4.317,22.99-5.574c3.619-1.845,6.977-4.51,4.143-5.899
			c3.459-0.085,3.373,2.853,3.373,2.853l0.605,18.423c0,0,0.777,2.42-4.929,5.272c-10.638,5.104-36.147,5.104-46.008,6.833
			c-15.998,2.336-16.431,6.831-14.7,10.378c-1.402-0.257-2.94-1.037-3.287-3.2c-0.346-2.163-0.604-16.777-0.69-18.074
			c-0.087-1.298-0.52-3.978,5.188-6.746C36.317,57.332,57.206,57.965,62.542,57.303z"/>
		<path fill="#FFFFFF" d="M63.118,57.006c12.358-1.535,20.688-4.32,22.992-5.575c3.619-1.844,6.975-4.511,4.139-5.899
			c3.461-0.086,3.375,2.854,3.375,2.854l0.604,18.42c0,0,0.779,2.422-4.93,5.275c-10.636,5.102-34.647,4.631-44.507,6.36
			c-15.996,2.334-17.93,7.302-16.199,10.848c-1.402-0.255-2.941-1.036-3.287-3.199c-0.346-2.16-0.605-16.776-0.691-18.075
			c-0.087-1.297-0.519-3.976,5.188-6.742C36.894,57.032,57.782,57.667,63.118,57.006z"/>
		<path fill="#BE1E2D" d="M63.691,56.309c12.361-1.534,20.692-4.318,22.993-5.572c3.619-1.848,6.977-4.514,4.141-5.9
			c3.461-0.086,3.373,2.855,3.373,2.855l0.606,18.418c0,0,0.778,2.42-4.929,5.274c-10.638,5.103-36.147,5.103-46.007,6.833
			c-15.999,2.334-16.432,6.83-14.701,10.377c-1.403-0.259-2.94-1.038-3.286-3.201S25.276,68.617,25.19,67.32
			c-0.087-1.297-0.519-3.979,5.188-6.748C37.47,56.338,58.358,56.971,63.691,56.309z"/>
		<g>
			<path fill="#FFFFFF" d="M33.751,59.9c2.072-1.473,4.406-2.553,6.836-3.29c1.803-0.523,3.666-0.972,5.554-0.861
				c1.525,0.063,3.103,0.475,4.287,1.482c1.46,1.245,2.069,3.321,1.716,5.183c-0.46,2.193-2.082,3.916-3.791,5.254
				c-2.477,1.845-5.33,3.187-8.334,3.901c-0.312,0.055-0.872,0.215-0.992-0.186c0.124-0.421,0.582-0.561,0.932-0.735
				c2.495-1.199,4.801-2.778,6.869-4.613c1.278-1.164,2.499-2.449,3.268-4.016c0.374-0.806,0.598-1.768,0.22-2.617
				c-0.494-0.938-1.604-1.286-2.589-1.411c-2.885-0.282-5.777,0.462-8.395,1.634c-2.996,1.354-5.681,3.455-7.59,6.147
				c-0.586,0.948-1.021,2.13-0.635,3.237c0.182,0.728,0.873,1.111,1.293,1.684c-0.611,0.091-1.156-0.262-1.658-0.557
				c-0.926-0.584-1.818-1.401-2.076-2.506c-0.216-1.211,0.244-2.412,0.861-3.436C30.583,62.465,32.12,61.084,33.751,59.9
				L33.751,59.9z"/>
			<path fill="#FFFFFF" d="M77.127,48.682c0.989-0.299,1.991,0.297,2.671,0.979c0.56,0.539,0.48,1.408,0.132,2.039
				c-2.985,5.414-6.369,10.672-8.435,16.535c-0.312,1.057-0.868,2.096-0.773,3.227c-0.064,0.286,0.608,0.255,0.191,0.501
				c-0.557,0.04-1.233,0.023-1.609-0.459c-0.43-0.618-0.337-1.421-0.197-2.116c0.271-1.323,0.752-2.59,1.258-3.84
				c1.201-2.887,2.551-5.707,3.909-8.523c1.069-2.268,2.226-4.509,3.062-6.876C77.55,49.645,77.346,49.139,77.127,48.682
				L77.127,48.682z"/>
			<path fill="#FFFFFF" d="M82.278,47.606c0.989-0.36,2.007,0.274,2.685,0.96c0.567,0.58,0.466,1.502,0.085,2.153
				c-3.324,5.954-7.107,11.77-9.036,18.372c-0.058,0.53-0.396,1.359,0.261,1.626c-0.335,0.246-0.796,0.143-1.176,0.078
				c-0.744-0.158-1.014-1.025-0.946-1.7c0.138-1.617,0.771-3.138,1.354-4.636c1.358-3.226,2.896-6.368,4.398-9.524
				c0.914-1.973,1.936-3.906,2.639-5.969C82.729,48.492,82.506,48.023,82.278,47.606L82.278,47.606z"/>
			<path fill="#FFFFFF" d="M40.2,64.736c0.916-0.808,1.879-1.576,2.975-2.123c0.326-0.115,0.801-0.426,1.056-0.02
				c0.178,0.207,0.036,0.468-0.164,0.586c-1.901,1.326-3.397,3.148-4.683,5.058c-1.34,2.056-2.45,4.311-2.883,6.741
				c-0.136,1.026-0.217,2.117,0.127,3.109c0.173,0.503,0.732,0.515,1.173,0.54c-0.354,0.372-0.837,0.662-1.368,0.629
				c-1.263-0.019-2.371-1.104-2.51-2.342c-0.275-1.896,0.33-3.788,1.146-5.479C36.325,68.9,38.111,66.639,40.2,64.736L40.2,64.736z"
				/>
			<path fill="#FFFFFF" d="M53.573,63.91c1.049-0.898,2.266-1.752,3.679-1.887c0.981,0.307,1.796,1.043,2.405,1.852
				c0.301,0.718,0.34,1.697-0.27,2.273c-0.158-0.559,0.299-1.167-0.072-1.689c-0.364-0.393-0.968-0.344-1.447-0.254
				c-1.372,0.302-2.506,1.211-3.508,2.156c-1.841,1.84-3.369,4.085-4.012,6.636c-0.148,0.549-0.183,1.12-0.189,1.685
				c1.496-2.489,3.54-4.585,5.506-6.703c0.223-0.244,0.491-0.477,0.831-0.525c0.661,0.033,1.212,0.469,1.683,0.895
				c-0.879,1.115-0.994,2.623-0.982,3.992c0.037,0.743,0.26,1.691,1.025,2.002c0.158,0.062,0.295,0.154,0.412,0.277
				c-0.844,0.343-1.823,0.003-2.345-0.72c-1.071-1.287-0.953-3.082-0.757-4.64c-0.945,0.906-1.695,1.987-2.477,3.03
				c-0.915,1.234-1.684,2.574-2.35,3.955c-0.171,0.274-0.303,0.699-0.684,0.725c-0.803-0.152-1.396-0.844-1.744-1.542
				c-0.426-1.646,0.039-3.36,0.647-4.898C49.97,68.025,51.55,65.727,53.573,63.91L53.573,63.91z"/>
			<path fill="#FFFFFF" d="M83.733,57.945c1.095-1.07,2.354-2.076,3.873-2.441c0.208-0.043,0.445-0.105,0.654-0.013
				c0.883,0.382,1.644,1.024,2.214,1.8c0.302,0.72,0.341,1.701-0.271,2.279c-0.156-0.561,0.302-1.174-0.071-1.691
				c-0.362-0.395-0.962-0.342-1.439-0.256c-1.374,0.303-2.511,1.215-3.509,2.157c-1.852,1.839-3.381,4.091-4.021,6.647
				c-0.147,0.547-0.183,1.111-0.188,1.674c1.498-2.489,3.541-4.584,5.508-6.7c0.22-0.248,0.492-0.477,0.83-0.528
				c0.662,0.032,1.213,0.469,1.682,0.896c-0.857,1.087-0.981,2.552-0.984,3.891c-0.021,0.933,0.387,2.025,1.385,2.269
				c-0.039,0.279-0.469,0.207-0.677,0.243c-1.051,0.012-1.814-0.912-2.179-1.805c-0.445-1.174-0.34-2.465-0.19-3.686
				c-0.894,0.854-1.607,1.868-2.347,2.852c-0.919,1.23-1.715,2.549-2.377,3.934c-0.185,0.314-0.307,0.707-0.639,0.9
				c-0.508,0.064-0.948-0.312-1.283-0.648c-0.306-0.334-0.621-0.707-0.685-1.173c-0.28-1.569,0.15-3.155,0.728-4.606
				C80.671,61.711,82.038,59.662,83.733,57.945L83.733,57.945z"/>
			<path fill="#FFFFFF" d="M65.821,60.633c0.513-0.343,1.186-0.673,1.787-0.35c0.919,0.455,1.766,1.134,2.317,2.002
				c0.202,1.091-0.52,2.065-1.19,2.844c-1.127,1.184-2.5,2.21-4.091,2.656c-0.435,0.101-0.95,0.207-1.329-0.1
				c0.466-0.271,0.996-0.416,1.436-0.732c1.035-0.717,1.852-1.701,2.553-2.736c0.443-0.719,0.889-1.491,0.914-2.357
				c-1.645,0.871-2.971,2.23-4.14,3.662c-1.016,1.289-1.964,2.681-2.438,4.269c-0.213,0.716-0.389,1.484-0.182,2.223
				c0.106,0.359,0.414,0.657,0.791,0.706c0.584,0.073,1.092-0.285,1.563-0.575c1.351-0.961,2.493-2.183,3.487-3.497
				c0.257-0.307,0.401-0.801,0.866-0.828c0,0.521-0.271,0.973-0.505,1.42c-0.789,1.41-1.764,2.724-2.899,3.877
				c-0.547,0.516-1.196,1.107-2.01,1.01c-1.204-0.13-2.245-0.965-2.849-1.985c-0.51-0.898-0.431-1.982-0.232-2.962
				c0.382-1.633,1.2-3.13,2.155-4.495C62.938,63.139,64.254,61.721,65.821,60.633L65.821,60.633z"/>
		</g>
		<g>
			<path fill="#231F20" d="M34.698,59.715c2.073-1.471,4.408-2.555,6.838-3.29c1.802-0.522,3.665-0.972,5.554-0.864
				c1.525,0.064,3.103,0.479,4.286,1.485c1.459,1.243,2.072,3.321,1.715,5.182c-0.459,2.194-2.078,3.915-3.79,5.255
				c-2.476,1.845-5.331,3.187-8.334,3.901c-0.31,0.055-0.873,0.217-0.993-0.184c0.126-0.424,0.584-0.562,0.934-0.737
				c2.493-1.199,4.801-2.777,6.869-4.613c1.279-1.164,2.498-2.449,3.267-4.016c0.374-0.808,0.597-1.768,0.218-2.614
				c-0.496-0.942-1.602-1.29-2.587-1.413c-2.882-0.285-5.778,0.463-8.395,1.633c-2.996,1.355-5.679,3.457-7.589,6.146
				c-0.586,0.949-1.021,2.132-0.635,3.236c0.181,0.727,0.873,1.115,1.292,1.684c-0.61,0.094-1.155-0.26-1.659-0.555
				c-0.926-0.583-1.816-1.398-2.074-2.506c-0.217-1.209,0.244-2.413,0.86-3.437C31.53,62.277,33.068,60.896,34.698,59.715
				L34.698,59.715z"/>
			<path fill="#231F20" d="M78.077,48.496c0.989-0.303,1.988,0.299,2.67,0.978c0.559,0.538,0.479,1.409,0.133,2.041
				c-2.982,5.415-6.371,10.671-8.438,16.535c-0.312,1.056-0.865,2.095-0.773,3.225c-0.062,0.285,0.61,0.256,0.192,0.5
				c-0.558,0.043-1.234,0.025-1.61-0.457c-0.426-0.617-0.336-1.421-0.197-2.119c0.272-1.321,0.753-2.587,1.259-3.837
				c1.201-2.887,2.551-5.708,3.911-8.525c1.07-2.266,2.223-4.507,3.06-6.873C78.497,49.461,78.292,48.953,78.077,48.496
				L78.077,48.496z"/>
			<path fill="#231F20" d="M83.226,47.422c0.99-0.361,2.006,0.277,2.685,0.961c0.569,0.579,0.469,1.498,0.085,2.151
				c-3.322,5.954-7.107,11.769-9.035,18.37c-0.057,0.531-0.396,1.362,0.26,1.629c-0.334,0.245-0.795,0.142-1.174,0.078
				c-0.744-0.16-1.015-1.025-0.947-1.7c0.137-1.618,0.77-3.139,1.355-4.636c1.359-3.227,2.896-6.368,4.396-9.524
				c0.918-1.976,1.936-3.909,2.639-5.971C83.677,48.305,83.454,47.838,83.226,47.422L83.226,47.422z"/>
			<path fill="#231F20" d="M41.147,64.549c0.916-0.805,1.881-1.576,2.977-2.121c0.324-0.117,0.799-0.428,1.057-0.02
				c0.176,0.205,0.034,0.467-0.166,0.588c-1.902,1.323-3.398,3.146-4.684,5.057c-1.338,2.053-2.449,4.309-2.88,6.74
				c-0.14,1.027-0.218,2.116,0.126,3.111c0.172,0.5,0.73,0.513,1.174,0.538c-0.356,0.374-0.84,0.662-1.37,0.631
				c-1.261-0.02-2.372-1.104-2.511-2.343c-0.275-1.895,0.33-3.791,1.146-5.478C37.274,68.714,39.06,66.453,41.147,64.549
				L41.147,64.549z"/>
			<path fill="#231F20" d="M54.521,63.723c1.051-0.896,2.266-1.749,3.679-1.885c0.98,0.307,1.795,1.042,2.408,1.853
				c0.297,0.719,0.336,1.695-0.27,2.272c-0.162-0.559,0.297-1.17-0.074-1.688c-0.364-0.396-0.969-0.344-1.445-0.258
				c-1.373,0.304-2.508,1.213-3.508,2.156c-1.844,1.84-3.373,4.086-4.016,6.637c-0.148,0.551-0.186,1.117-0.19,1.686
				c1.499-2.488,3.544-4.586,5.509-6.703c0.221-0.246,0.492-0.477,0.832-0.525c0.659,0.033,1.209,0.468,1.68,0.895
				c-0.878,1.116-0.993,2.622-0.982,3.991c0.039,0.744,0.26,1.693,1.023,2.003c0.16,0.065,0.297,0.154,0.414,0.279
				c-0.842,0.342-1.822,0-2.344-0.721c-1.071-1.288-0.951-3.08-0.758-4.641c-0.945,0.908-1.693,1.986-2.477,3.03
				c-0.914,1.235-1.683,2.571-2.35,3.956c-0.169,0.276-0.303,0.699-0.686,0.724c-0.801-0.15-1.39-0.846-1.739-1.542
				c-0.427-1.646,0.039-3.357,0.646-4.899C50.918,67.838,52.495,65.541,54.521,63.723L54.521,63.723z"/>
			<path fill="#231F20" d="M84.681,57.758c1.096-1.07,2.355-2.073,3.873-2.44c0.212-0.043,0.445-0.104,0.654-0.015
				c0.884,0.385,1.644,1.029,2.215,1.803c0.303,0.719,0.342,1.7-0.27,2.279c-0.156-0.559,0.3-1.172-0.072-1.691
				c-0.363-0.393-0.959-0.343-1.441-0.255c-1.373,0.302-2.512,1.212-3.508,2.157c-1.852,1.839-3.379,4.093-4.018,6.645
				c-0.149,0.547-0.187,1.111-0.188,1.676c1.496-2.49,3.537-4.583,5.501-6.701c0.226-0.246,0.497-0.475,0.837-0.527
				c0.658,0.035,1.209,0.466,1.68,0.896c-0.857,1.084-0.982,2.551-0.985,3.89c-0.019,0.933,0.386,2.024,1.385,2.27
				c-0.04,0.278-0.468,0.204-0.679,0.241c-1.047,0.014-1.812-0.909-2.177-1.803c-0.444-1.176-0.341-2.467-0.188-3.688
				c-0.896,0.854-1.609,1.871-2.348,2.855c-0.918,1.229-1.713,2.548-2.379,3.93c-0.182,0.317-0.304,0.711-0.639,0.903
				c-0.507,0.063-0.947-0.312-1.281-0.65c-0.307-0.334-0.623-0.706-0.686-1.173c-0.279-1.568,0.152-3.152,0.728-4.604
				C81.617,61.525,82.985,59.477,84.681,57.758L84.681,57.758z"/>
			<path fill="#231F20" d="M66.769,60.446c0.514-0.343,1.186-0.671,1.791-0.351c0.916,0.457,1.762,1.136,2.317,2.006
				c0.198,1.087-0.522,2.063-1.193,2.84c-1.124,1.185-2.501,2.213-4.091,2.658c-0.436,0.102-0.948,0.208-1.326-0.1
				c0.463-0.271,0.994-0.415,1.434-0.73c1.033-0.719,1.852-1.702,2.551-2.737c0.447-0.72,0.889-1.492,0.916-2.36
				c-1.646,0.875-2.973,2.23-4.141,3.662c-1.014,1.291-1.961,2.684-2.44,4.273c-0.211,0.714-0.388,1.481-0.18,2.22
				c0.106,0.36,0.414,0.659,0.79,0.709c0.584,0.07,1.094-0.289,1.565-0.578c1.349-0.961,2.492-2.185,3.487-3.497
				c0.256-0.308,0.4-0.801,0.865-0.828c0,0.521-0.27,0.973-0.505,1.42c-0.792,1.412-1.764,2.722-2.899,3.878
				c-0.547,0.512-1.195,1.105-2.01,1.008c-1.204-0.128-2.242-0.964-2.847-1.98c-0.512-0.904-0.433-1.989-0.235-2.964
				c0.383-1.635,1.201-3.13,2.157-4.496C63.886,62.953,65.202,61.535,66.769,60.446L66.769,60.446z"/>
		</g>
		<g>
			<path fill="none" stroke="#FFD468" stroke-width="0.3862" d="M34.698,59.715c2.073-1.471,4.408-2.555,6.838-3.29
				c1.802-0.522,3.665-0.972,5.554-0.864c1.525,0.064,3.103,0.479,4.286,1.485c1.459,1.243,2.072,3.321,1.715,5.182
				c-0.459,2.194-2.078,3.915-3.79,5.255c-2.476,1.845-5.331,3.187-8.334,3.901c-0.31,0.055-0.873,0.217-0.993-0.184
				c0.126-0.424,0.584-0.562,0.934-0.737c2.493-1.199,4.801-2.777,6.869-4.613c1.279-1.164,2.498-2.449,3.267-4.016
				c0.374-0.808,0.597-1.768,0.218-2.614c-0.496-0.942-1.602-1.29-2.587-1.413c-2.882-0.285-5.778,0.463-8.395,1.633
				c-2.996,1.355-5.679,3.457-7.589,6.146c-0.586,0.949-1.021,2.132-0.635,3.236c0.181,0.727,0.873,1.115,1.292,1.684
				c-0.61,0.094-1.155-0.26-1.659-0.555c-0.926-0.583-1.816-1.398-2.074-2.506c-0.217-1.209,0.244-2.413,0.86-3.437
				C31.53,62.277,33.068,60.896,34.698,59.715L34.698,59.715z"/>
			<path fill="none" stroke="#FFD468" stroke-width="0.3862" d="M78.077,48.496c0.989-0.303,1.988,0.299,2.67,0.978
				c0.559,0.538,0.479,1.409,0.133,2.041c-2.982,5.415-6.371,10.671-8.438,16.535c-0.312,1.056-0.865,2.095-0.773,3.225
				c-0.062,0.285,0.61,0.256,0.192,0.5c-0.558,0.043-1.234,0.025-1.61-0.457c-0.426-0.617-0.336-1.421-0.197-2.119
				c0.272-1.321,0.753-2.587,1.259-3.837c1.201-2.887,2.551-5.708,3.911-8.525c1.07-2.266,2.223-4.507,3.06-6.873
				C78.497,49.461,78.292,48.953,78.077,48.496L78.077,48.496z"/>
			<path fill="none" stroke="#FFD468" stroke-width="0.3862" d="M83.226,47.422c0.99-0.361,2.006,0.277,2.685,0.961
				c0.569,0.579,0.469,1.498,0.085,2.151c-3.322,5.954-7.107,11.769-9.035,18.37c-0.057,0.531-0.396,1.362,0.26,1.629
				c-0.334,0.245-0.795,0.142-1.174,0.078c-0.744-0.16-1.015-1.025-0.947-1.7c0.137-1.618,0.77-3.139,1.355-4.636
				c1.359-3.227,2.896-6.368,4.396-9.524c0.918-1.976,1.936-3.909,2.639-5.971C83.677,48.305,83.454,47.838,83.226,47.422
				L83.226,47.422z"/>
			<path fill="none" stroke="#FFD468" stroke-width="0.3862" d="M41.147,64.549c0.916-0.805,1.881-1.576,2.977-2.121
				c0.324-0.117,0.799-0.428,1.057-0.02c0.176,0.205,0.034,0.467-0.166,0.588c-1.902,1.323-3.398,3.146-4.684,5.057
				c-1.338,2.053-2.449,4.309-2.88,6.74c-0.14,1.027-0.218,2.116,0.126,3.111c0.172,0.5,0.73,0.513,1.174,0.538
				c-0.356,0.374-0.84,0.662-1.37,0.631c-1.261-0.02-2.372-1.104-2.511-2.343c-0.275-1.895,0.33-3.791,1.146-5.478
				C37.274,68.714,39.06,66.453,41.147,64.549L41.147,64.549z"/>
			<path fill="none" stroke="#FFD468" stroke-width="0.3862" d="M54.521,63.723c1.051-0.896,2.266-1.749,3.679-1.885
				c0.98,0.307,1.795,1.042,2.408,1.853c0.297,0.719,0.336,1.695-0.27,2.272c-0.162-0.559,0.297-1.17-0.074-1.688
				c-0.364-0.396-0.969-0.344-1.445-0.258c-1.373,0.304-2.508,1.213-3.508,2.156c-1.844,1.84-3.373,4.086-4.016,6.637
				c-0.148,0.551-0.186,1.117-0.19,1.686c1.499-2.488,3.544-4.586,5.509-6.703c0.221-0.246,0.492-0.477,0.832-0.525
				c0.659,0.033,1.209,0.468,1.68,0.895c-0.878,1.116-0.993,2.622-0.982,3.991c0.039,0.744,0.26,1.693,1.023,2.003
				c0.16,0.065,0.297,0.154,0.414,0.279c-0.842,0.342-1.822,0-2.344-0.721c-1.071-1.288-0.951-3.08-0.758-4.641
				c-0.945,0.908-1.693,1.986-2.477,3.03c-0.914,1.235-1.683,2.571-2.35,3.956c-0.169,0.276-0.303,0.699-0.686,0.724
				c-0.801-0.15-1.39-0.846-1.739-1.542c-0.427-1.646,0.039-3.357,0.646-4.899C50.918,67.838,52.495,65.541,54.521,63.723
				L54.521,63.723z"/>
			<path fill="none" stroke="#FFD468" stroke-width="0.3862" d="M84.681,57.758c1.096-1.07,2.355-2.073,3.873-2.44
				c0.212-0.043,0.445-0.104,0.654-0.015c0.884,0.385,1.644,1.029,2.215,1.803c0.303,0.719,0.342,1.7-0.27,2.279
				c-0.156-0.559,0.3-1.172-0.072-1.691c-0.363-0.393-0.959-0.343-1.441-0.255c-1.373,0.302-2.512,1.212-3.508,2.157
				c-1.852,1.839-3.379,4.093-4.018,6.645c-0.149,0.547-0.187,1.111-0.188,1.676c1.496-2.49,3.537-4.583,5.501-6.701
				c0.226-0.246,0.497-0.475,0.837-0.527c0.658,0.035,1.209,0.466,1.68,0.896c-0.857,1.084-0.982,2.551-0.985,3.89
				c-0.019,0.933,0.386,2.024,1.385,2.27c-0.04,0.278-0.468,0.204-0.679,0.241c-1.047,0.014-1.812-0.909-2.177-1.803
				c-0.444-1.176-0.341-2.467-0.188-3.688c-0.896,0.854-1.609,1.871-2.348,2.855c-0.918,1.229-1.713,2.548-2.379,3.93
				c-0.182,0.317-0.304,0.711-0.639,0.903c-0.507,0.063-0.947-0.312-1.281-0.65c-0.307-0.334-0.623-0.706-0.686-1.173
				c-0.279-1.568,0.152-3.152,0.728-4.604C81.617,61.525,82.985,59.477,84.681,57.758L84.681,57.758z"/>
			<path fill="none" stroke="#FFD468" stroke-width="0.3862" d="M66.769,60.446c0.514-0.343,1.186-0.671,1.791-0.351
				c0.916,0.457,1.762,1.136,2.317,2.006c0.198,1.087-0.522,2.063-1.193,2.84c-1.124,1.185-2.501,2.213-4.091,2.658
				c-0.436,0.102-0.948,0.208-1.326-0.1c0.463-0.271,0.994-0.415,1.434-0.73c1.033-0.719,1.852-1.702,2.551-2.737
				c0.447-0.72,0.889-1.492,0.916-2.36c-1.646,0.875-2.973,2.23-4.141,3.662c-1.014,1.291-1.961,2.684-2.44,4.273
				c-0.211,0.714-0.388,1.481-0.18,2.22c0.106,0.36,0.414,0.659,0.79,0.709c0.584,0.07,1.094-0.289,1.565-0.578
				c1.349-0.961,2.492-2.185,3.487-3.497c0.256-0.308,0.4-0.801,0.865-0.828c0,0.521-0.27,0.973-0.505,1.42
				c-0.792,1.412-1.764,2.722-2.899,3.878c-0.547,0.512-1.195,1.105-2.01,1.008c-1.204-0.128-2.242-0.964-2.847-1.98
				c-0.512-0.904-0.433-1.989-0.235-2.964c0.383-1.635,1.201-3.13,2.157-4.496C63.886,62.953,65.202,61.535,66.769,60.446
				L66.769,60.446z"/>
		</g>
		<g>
			<path fill="#AEDEE4" d="M52.333,59.436c0,0,1.332,5.819-10.533,11.105C54.155,66.012,52.333,59.436,52.333,59.436z"/>
			<path fill="#AEDEE4" d="M66.808,66.318c3.57-1.93,3.949-4.156,3.271-4.482C70.554,62.648,69.055,64.827,66.808,66.318z"/>
			<path fill="#AEDEE4" d="M49.883,73.726c-0.499-1.642,3.356-10.583,8.201-10.959C53.231,64.013,50.313,71.331,49.883,73.726z"/>
			<path fill="#AEDEE4" d="M80.537,67.727c-0.501-1.643,3.356-10.585,8.198-10.963C83.885,58.016,80.964,65.333,80.537,67.727z"/>
			<path fill="#AEDEE4" d="M68.126,60.557c-1.623,0.812-6.284,6.011-6.951,10.152C61.149,65.945,67.263,60.197,68.126,60.557z"/>
			<path fill="#AEDEE4" d="M33.009,62.562c3.16-3.602,8.655-6.654,14.235-6.063C42.762,56.786,36.979,58.801,33.009,62.562z"/>
			<path fill="#AEDEE4" d="M79.802,49.229c0,0,1.252,0.522,0.338,2.258c-0.91,1.736-6.717,11.48-8.064,15.553
				c1.117-4.613,7.043-14.508,7.62-15.617C80.403,49.956,79.802,49.229,79.802,49.229z"/>
			<path fill="#AEDEE4" d="M84.991,48.215c0,0,1.252,0.521,0.342,2.257c-0.913,1.737-6.719,11.479-8.066,15.552
				c1.113-4.612,7.043-14.509,7.619-15.618C85.593,48.941,84.991,48.215,84.991,48.215z"/>
		</g>
	</g>
	<g>
		<path fill="#FFCA05" d="M17.262,80.313c-0.718,1.373-2.399,3.294,7.806,3.893c10.206,0.841,30.377-4.2,43.824-9.003
			c35.419-12.729,39.861-3.722,39.861-3.722s7.688,18.272,7.805,18.969c0.48,2.761-1.117,4.413-2.422,4.902
			c-0.754-7.488-8.014-6.331-11.36-5.891c-3.345,0.44-39.886,10.712-53.214,13.718c-24.854,5.882-27.27,0.446-27.27,0.446
			s-5.869-14.136-7.43-17.979C13.302,81.805,15.581,81.204,17.262,80.313z"/>
		<path fill="#231F20" d="M21.606,104.523c0,0-7.471-18.045-7.43-17.979c0.039,0.065,0,0,0,0c-1.098-2.839-0.229-3.444,0.268-3.921
			c-0.375,1.291,0.138,2.742,0.49,3.612l0,0c0.777,1.919,2.638,6.413,4.299,10.428l0,0c1.621,3.913,3.053,7.359,3.123,7.531l0,0
			c0.004,0.008,0.013,0.023,0.025,0.041l0,0c0.029,0.041,0.082,0.113,0.169,0.202l0,0c0.179,0.18,0.499,0.435,1.058,0.703l0,0
			c1.115,0.538,4.062,1.364,6.956,1.324c15.694,0.339,69.937-16.871,74.126-16.701c8.76-1.29,8.471,6.1,8.471,6.1
			c-0.321-1.275-1.945-6.1-8.471-5.222c-8.005,0.405-51.916,15.821-73.562,16.567C24.603,107.46,21.692,104.731,21.606,104.523
			L21.606,104.523z"/>
		<g>
			<path fill="#FFFFFF" d="M72.671,74.513c0.545-0.945,0.918-2.01,0.793-3.117c1.376-0.049,2.724,1.082,2.803,2.478
				c0.003,0.898-0.547,1.663-1.014,2.393c-1.448,2.08-3.045,4.059-4.453,6.17c1.27-0.581,2.582-1.12,3.969-1.349
				c0.33-0.074,0.663-0.005,0.941,0.187c-1.489,0.615-3.031,1.104-4.49,1.807c-0.583,0.318-1.379,0.407-1.716,1.05
				c-2.46,3.792-4.825,7.687-6.474,11.915c-0.633,1.677-1.297,3.452-1.029,5.272c0.053,0.548,0.455,0.992,1.016,1.028
				c1.49-0.471,2.601-1.631,3.595-2.778c1.534-1.832,2.896-3.82,3.938-5.977c0.928-1.941,1.703-4.019,1.779-6.196
				c0.03-0.76-0.107-1.602-0.666-2.161c-0.504-0.468-1.238-0.38-1.869-0.436c-0.016-0.239-0.129-0.553,0.164-0.676
				c0.91-0.312,1.965,0.023,2.596,0.734c0.84,0.889,1.109,2.156,1.105,3.346c-0.023,2.589-0.947,5.062-2.076,7.356
				c-1.088,2.069-2.32,4.098-3.918,5.822c-1.033,1.11-2.364,2.089-3.919,2.233c-1.528,0.094-2.899-1.047-3.442-2.42
				c-0.324-0.904-0.35-1.888-0.291-2.839c0.221-2.492,1.229-4.829,2.354-7.031c1.096-2.128,2.355-4.165,3.603-6.202
				c-0.662,0.343-1.302,0.751-2.016,0.975c-0.662,0.114-1.016-0.575-1.327-1.03c1.465-0.151,2.772-0.85,4.107-1.411
				C68.663,80.574,70.863,77.669,72.671,74.513L72.671,74.513z"/>
			<path fill="#FFFFFF" d="M95.489,71.345c0.45-0.586,1.306-0.133,1.812,0.175c0.587,0.425-0.152,0.93-0.494,1.22
				c-1.557,1.129-3.196,2.276-5.091,2.735c0.121-0.263,0.293-0.496,0.492-0.703C93.292,73.62,94.413,72.506,95.489,71.345
				L95.489,71.345z"/>
			<path fill="#FFFFFF" d="M55.942,84.176c0.926-0.609,1.98-1.21,3.122-1.164c0.983,0.443,1.865,1.191,2.416,2.122
				c0.155,0.72,0.281,1.8-0.49,2.21c0.032-0.525,0.283-1.063,0.126-1.591c-0.189-0.498-0.805-0.535-1.258-0.506
				c-1.464,0.143-2.706,1.043-3.791,1.975c-1.87,1.696-3.445,3.774-4.336,6.15c-0.324,0.859-0.547,1.764-0.551,2.69
				c1.621-2.463,3.693-4.582,5.754-6.675c0.309-0.328,0.66-0.709,1.146-0.727c0.666,0.089,1.197,0.547,1.684,0.977
				c-0.789,0.874-0.988,2.093-1.107,3.223c-0.09,0.884-0.075,1.835,0.426,2.604c0.224,0.401,0.705,0.503,1.069,0.734
				c-0.948,0.413-2.042-0.028-2.583-0.864c-1.014-1.396-0.869-3.217-0.603-4.823c-2.097,2.119-3.878,4.57-5.237,7.226
				c-0.201,0.294-0.354,0.809-0.795,0.753c-0.774-0.217-1.338-0.878-1.699-1.557c-0.336-1.136-0.169-2.348,0.124-3.469
				c0.522-1.813,1.413-3.499,2.479-5.047C52.975,86.807,54.317,85.311,55.942,84.176L55.942,84.176z"/>
			<path fill="#FFFFFF" d="M92.107,76.94c0.702-0.356,1.474-0.7,2.272-0.649c0.987,0.441,1.861,1.192,2.419,2.119
				c0.151,0.708,0.304,1.835-0.507,2.194c0.064-0.564,0.369-1.177,0.073-1.716c-0.319-0.415-0.906-0.385-1.373-0.338
				c-1.431,0.216-2.643,1.114-3.708,2.044c-1.786,1.65-3.301,3.651-4.184,5.931c-0.346,0.902-0.596,1.849-0.6,2.821
				c1.752-2.642,3.991-4.91,6.23-7.136c0.807-0.665,1.745,0.176,2.353,0.709c-0.793,0.878-0.989,2.098-1.108,3.23
				c-0.084,0.876-0.069,1.816,0.419,2.58c0.219,0.417,0.706,0.518,1.079,0.749c-0.948,0.419-2.043-0.028-2.588-0.863
				c-1.013-1.395-0.863-3.215-0.598-4.82c-2.166,2.179-3.97,4.723-5.369,7.455c-0.158,0.242-0.33,0.594-0.676,0.521
				c-0.766-0.219-1.325-0.881-1.686-1.556c-0.36-1.223-0.15-2.53,0.199-3.729c0.645-2.044,1.718-3.938,3.022-5.63
				C88.985,79.322,90.388,77.893,92.107,76.94L92.107,76.94z"/>
			<path fill="#FFFFFF" d="M78.522,79.867c0.518-0.365,1.191-0.129,1.673,0.188c0.417,0.279,0.837,0.821,0.521,1.324
				c-1.008,1.938-2.127,3.82-3.128,5.766c1.6-2.242,3.291-4.433,5.244-6.377c0.533-0.627,1.371-0.007,1.812,0.437
				c0.503,0.543-0.103,1.179-0.401,1.654c-0.641,0.938-1.312,2.298-0.439,3.308c-0.499,0.042-1.035-0.03-1.398-0.409
				c-0.806-0.789-0.824-2.057-0.519-3.078c-1.971,2.679-4.255,5.147-5.856,8.086c-0.509,0.992-1.057,2.04-1.015,3.19
				c-0.44-0.08-0.95-0.176-1.179-0.609c-0.58-0.992-0.213-2.184,0.156-3.182c1.269-3.021,2.567-6.032,4.014-8.975
				c-0.901,0.696-1.66,1.568-2.591,2.221c-0.103-0.031-0.304-0.093-0.407-0.127c0.326-0.562,0.836-0.979,1.283-1.444
				C77.001,81.143,77.694,80.421,78.522,79.867L78.522,79.867z"/>
			<path fill="#FFFFFF" d="M44.282,87.77c1.697-0.482,3.197-1.454,4.871-2.002c0.74,0.286,1.373,0.881,1.668,1.624
				c0.041,0.486-0.375,0.826-0.678,1.146c-3.154,3.012-6.185,6.151-9.091,9.403c1.622-1.154,3.593-1.672,5.529-1.986
				c0.574-0.062,1.2-0.188,1.74,0.075c0.135,0.512-0.499,0.51-0.829,0.618c-1.569,0.295-3.08,0.895-4.373,1.834
				c-0.795,0.522-1.445,1.232-2.244,1.744c-1.246,0.218-2.507-1.443-1.688-2.537c1.077-1.63,2.354-3.116,3.587-4.631
				c1.634-2.006,3.539-3.776,5.174-5.779c-1.518,0.993-3.077,2.197-4.965,2.276c-1.013-0.013-1.617-1.021-1.705-1.93
				C42.261,87.843,43.29,88.057,44.282,87.77L44.282,87.77z"/>
			<path fill="#FFFFFF" d="M101.165,76.013c0.747-0.574,1.791-0.14,2.373,0.461c0.439,0.449,0.043,1.075-0.139,1.549
				c-0.969,1.977-2.18,3.825-3.287,5.727c2.066-2.46,3.938-5.102,6.25-7.345c0.492-0.459,1.171-1,1.885-0.731
				c0.541,0.216,1.164,0.589,1.242,1.224c-0.185,0.558-0.555,1.031-0.825,1.55c-0.907,1.658-1.792,3.354-2.277,5.191
				c-0.216,0.917-0.306,1.979,0.233,2.801c0.203,0.343,0.642,0.293,0.974,0.384c-0.477,0.812-1.638,0.666-2.288,0.162
				c-1.029-0.728-1.296-2.089-1.198-3.273c0.186-2.258,1.327-4.274,2.252-6.295c-2.022,2.186-3.864,4.531-5.621,6.935
				c-0.872,1.252-1.771,2.513-2.349,3.935c-0.141,0.285-0.053,0.595,0.01,0.886c-0.714,0.099-1.559-0.133-1.88-0.836
				c-0.366-0.843,0.09-1.709,0.427-2.476c1.283-3.032,2.693-6.008,4.118-8.977c-0.462,0.425-0.938,0.836-1.415,1.239
				c-0.257,0.197-0.504,0.469-0.851,0.461c-0.137-0.275,0.104-0.511,0.265-0.706C99.706,77.193,100.427,76.585,101.165,76.013
				L101.165,76.013z"/>
			<g>
				<g>
					<path fill="#FFFFFF" d="M44.349,80.196c-0.597-0.923-1.527-1.778-2.681-1.823c-5.478-1.028-11.262-0.797-16.505,1.168
						c-1.105,0.452-2.328,0.977-2.938,2.068c-0.577,1.113,0.376,2.627,1.646,2.532c-0.223-0.206-0.447-0.401-0.676-0.598
						c0.065-0.938,0.934-1.47,1.672-1.881c1.828-0.928,3.814-1.493,5.805-1.959c3.383-0.779,6.879-0.783,10.319-0.499
						c-0.571,0.524-1.074,1.11-1.593,1.685c-3.213,3.605-6.427,7.207-9.684,10.776c-5.74,0.917-11.6,2.386-16.375,5.846
						c-1.194,0.888-2.381,1.934-2.934,3.354c-0.487,1.222-0.046,2.721,1.012,3.499c1.207,0.893,2.805,1.005,4.248,0.831
						c2.566-0.382,4.899-1.685,6.896-3.291c3.454-2.785,6.113-6.373,8.93-9.76c1.469-0.201,2.965-0.338,4.445-0.142
						c-0.574,1.643-1.113,3.331-1.191,5.081c-0.045,1.352,0.396,2.858,1.555,3.659c0.545,0.381,1.229,0.393,1.853,0.224
						c-0.427-0.281-1.008-0.419-1.221-0.932c-0.304-0.711-0.225-1.511-0.138-2.257c0.302-1.925,0.961-3.771,1.68-5.573
						c0.771,0.079,1.514,0.306,2.264,0.492c0.112-0.026,0.343-0.084,0.457-0.109c-0.572-0.757-1.607-0.83-2.471-0.973
						c1.607-3.392,3.347-6.729,5.377-9.889C44.359,81.273,44.696,80.695,44.349,80.196z M19.69,101.041
						c-1.525,1.091-3.262,1.939-5.119,2.282c-0.869,0.119-1.893,0.14-2.58-0.504c-0.574-0.589-0.489-1.536-0.096-2.2
						c0.627-1.082,1.634-1.877,2.632-2.604c4.229-3.033,9.337-4.462,14.38-5.446C26.074,95.638,23.052,98.552,19.69,101.041z
						 M36.12,91.324c-1.378-0.111-2.76-0.025-4.125,0.146c1.51-1.623,3.023-3.238,4.494-4.891c1.383-1.536,2.729-3.117,4.305-4.464
						C39.003,85.053,37.349,88.102,36.12,91.324z"/>
				</g>
			</g>
		</g>
		<g>
			<path fill="#231F20" d="M73.669,74.206c0.544-0.947,0.914-2.01,0.791-3.117c1.377-0.052,2.723,1.083,2.803,2.479
				c0,0.9-0.549,1.662-1.014,2.392c-1.451,2.08-3.044,4.06-4.453,6.172c1.27-0.583,2.582-1.123,3.967-1.349
				c0.332-0.077,0.664-0.008,0.943,0.187c-1.49,0.614-3.032,1.105-4.492,1.806c-0.58,0.317-1.378,0.404-1.716,1.047
				c-2.458,3.796-4.823,7.69-6.472,11.915c-0.635,1.675-1.296,3.456-1.031,5.274c0.055,0.543,0.458,0.99,1.018,1.026
				c1.487-0.471,2.599-1.631,3.596-2.775c1.531-1.833,2.893-3.82,3.938-5.975c0.93-1.943,1.703-4.023,1.777-6.2
				c0.031-0.759-0.104-1.602-0.662-2.16c-0.504-0.467-1.241-0.38-1.87-0.435c-0.017-0.24-0.132-0.557,0.165-0.678
				c0.906-0.312,1.961,0.025,2.596,0.734c0.838,0.888,1.107,2.158,1.103,3.347c-0.022,2.586-0.946,5.063-2.075,7.354
				c-1.09,2.072-2.32,4.101-3.92,5.821c-1.032,1.114-2.362,2.091-3.916,2.239c-1.531,0.091-2.899-1.055-3.445-2.422
				c-0.324-0.903-0.35-1.89-0.289-2.839c0.222-2.493,1.228-4.83,2.354-7.034c1.095-2.127,2.354-4.162,3.604-6.199
				c-0.665,0.34-1.3,0.751-2.016,0.975c-0.664,0.114-1.016-0.578-1.329-1.028c1.466-0.154,2.774-0.851,4.109-1.414
				C69.656,80.269,71.857,77.36,73.669,74.206L73.669,74.206z"/>
			<g>
				<path fill="#231F20" d="M96.483,71.037c0.449-0.586,1.309-0.132,1.812,0.177c0.587,0.426-0.152,0.93-0.493,1.221
					c-1.555,1.127-3.197,2.274-5.088,2.734c0.121-0.261,0.289-0.496,0.489-0.702C94.289,73.316,95.409,72.2,96.483,71.037
					L96.483,71.037z"/>
				<path fill="#231F20" d="M56.939,83.868c0.925-0.608,1.979-1.21,3.118-1.166c0.985,0.446,1.867,1.194,2.42,2.126
					c0.154,0.719,0.279,1.798-0.494,2.21c0.035-0.526,0.283-1.063,0.129-1.594c-0.191-0.498-0.808-0.534-1.259-0.502
					c-1.466,0.138-2.708,1.046-3.79,1.971c-1.871,1.696-3.447,3.775-4.334,6.15c-0.327,0.863-0.548,1.766-0.553,2.692
					c1.623-2.463,3.693-4.58,5.754-6.674c0.309-0.332,0.659-0.712,1.145-0.725c0.668,0.086,1.199,0.545,1.684,0.974
					c-0.787,0.874-0.986,2.092-1.105,3.221c-0.09,0.881-0.077,1.836,0.427,2.605c0.219,0.403,0.703,0.502,1.067,0.735
					c-0.947,0.416-2.039-0.026-2.584-0.866c-1.014-1.394-0.867-3.212-0.602-4.821c-2.098,2.117-3.879,4.567-5.237,7.224
					c-0.2,0.297-0.354,0.809-0.796,0.755c-0.773-0.217-1.336-0.877-1.7-1.558c-0.335-1.135-0.167-2.348,0.127-3.467
					c0.521-1.815,1.412-3.5,2.479-5.048C53.972,86.5,55.313,85,56.939,83.868L56.939,83.868z"/>
				<path fill="#231F20" d="M93.104,76.634c0.699-0.354,1.471-0.702,2.271-0.647c0.986,0.441,1.859,1.189,2.418,2.115
					c0.15,0.712,0.304,1.838-0.506,2.197c0.062-0.562,0.369-1.175,0.074-1.716c-0.322-0.416-0.908-0.388-1.374-0.341
					c-1.433,0.218-2.645,1.119-3.707,2.044c-1.789,1.653-3.302,3.651-4.185,5.936c-0.348,0.899-0.596,1.847-0.601,2.818
					c1.754-2.643,3.992-4.913,6.23-7.135c0.808-0.665,1.747,0.175,2.353,0.708c-0.791,0.876-0.988,2.101-1.109,3.23
					c-0.082,0.874-0.07,1.816,0.42,2.579c0.218,0.418,0.707,0.518,1.078,0.75c-0.948,0.421-2.045-0.029-2.586-0.864
					c-1.012-1.396-0.862-3.212-0.596-4.819c-2.17,2.176-3.972,4.721-5.369,7.455c-0.162,0.243-0.331,0.593-0.68,0.518
					c-0.766-0.216-1.322-0.873-1.688-1.552c-0.354-1.222-0.147-2.53,0.204-3.73c0.644-2.044,1.719-3.935,3.021-5.629
					C89.979,79.018,91.382,77.588,93.104,76.634L93.104,76.634z"/>
				<path fill="#231F20" d="M79.519,79.562c0.514-0.363,1.193-0.128,1.673,0.185c0.416,0.277,0.835,0.824,0.522,1.324
					c-1.01,1.94-2.13,3.824-3.129,5.767c1.598-2.24,3.289-4.43,5.24-6.379c0.537-0.625,1.375-0.004,1.816,0.438
					c0.501,0.544-0.104,1.178-0.4,1.654c-0.644,0.938-1.318,2.298-0.441,3.31c-0.502,0.037-1.035-0.031-1.397-0.413
					c-0.809-0.79-0.828-2.054-0.521-3.078c-1.971,2.682-4.256,5.15-5.858,8.086c-0.505,0.994-1.052,2.044-1.013,3.192
					c-0.439-0.081-0.947-0.176-1.177-0.606c-0.581-0.994-0.213-2.186,0.155-3.186c1.268-3.021,2.566-6.031,4.014-8.973
					c-0.9,0.694-1.66,1.567-2.592,2.22c-0.104-0.03-0.305-0.097-0.406-0.126c0.326-0.564,0.836-0.98,1.283-1.445
					C77.996,80.84,78.69,80.114,79.519,79.562L79.519,79.562z"/>
				<path fill="#231F20" d="M45.276,87.459c1.698-0.477,3.199-1.449,4.873-2.001c0.738,0.289,1.373,0.883,1.668,1.627
					c0.041,0.486-0.375,0.825-0.68,1.143c-3.152,3.014-6.182,6.155-9.088,9.407c1.621-1.155,3.59-1.673,5.527-1.987
					c0.574-0.06,1.2-0.189,1.742,0.073c0.133,0.514-0.5,0.514-0.832,0.621c-1.568,0.294-3.078,0.891-4.373,1.836
					c-0.794,0.516-1.444,1.231-2.244,1.742c-1.244,0.217-2.506-1.445-1.688-2.541c1.077-1.627,2.354-3.112,3.587-4.63
					c1.634-2.005,3.54-3.773,5.174-5.776c-1.519,0.994-3.078,2.194-4.962,2.275c-1.014-0.012-1.618-1.021-1.705-1.93
					C43.256,87.536,44.286,87.749,45.276,87.459L45.276,87.459z"/>
				<path fill="#231F20" d="M102.163,75.705c0.746-0.573,1.786-0.141,2.372,0.462c0.437,0.449,0.044,1.075-0.14,1.55
					c-0.969,1.977-2.178,3.825-3.287,5.725c2.064-2.46,3.938-5.101,6.251-7.34c0.491-0.462,1.169-1.004,1.884-0.736
					c0.539,0.214,1.164,0.591,1.242,1.226c-0.184,0.559-0.555,1.031-0.826,1.549c-0.906,1.656-1.789,3.355-2.277,5.194
					c-0.215,0.914-0.305,1.977,0.236,2.798c0.201,0.338,0.64,0.291,0.971,0.384c-0.475,0.812-1.639,0.667-2.286,0.164
					c-1.03-0.73-1.296-2.089-1.2-3.277c0.188-2.257,1.328-4.27,2.254-6.294c-2.025,2.188-3.865,4.531-5.621,6.937
					c-0.876,1.252-1.771,2.515-2.348,3.935c-0.145,0.282-0.055,0.595,0.005,0.886c-0.713,0.099-1.556-0.133-1.876-0.835
					c-0.368-0.845,0.086-1.71,0.424-2.479c1.287-3.03,2.697-6.007,4.119-8.975c-0.463,0.425-0.938,0.834-1.417,1.241
					c-0.253,0.196-0.502,0.464-0.847,0.458c-0.138-0.274,0.104-0.508,0.264-0.703C100.7,76.887,101.422,76.279,102.163,75.705
					L102.163,75.705z"/>
				<g>
					<g>
						<path fill="#231F20" d="M45.345,79.889c-0.598-0.921-1.53-1.776-2.682-1.822c-5.477-1.028-11.262-0.797-16.506,1.172
							c-1.104,0.447-2.328,0.973-2.936,2.063c-0.579,1.114,0.375,2.629,1.644,2.531c-0.22-0.205-0.45-0.396-0.675-0.597
							c0.064-0.938,0.934-1.471,1.67-1.881c1.83-0.924,3.815-1.493,5.807-1.956c3.381-0.78,6.879-0.786,10.318-0.499
							c-0.57,0.519-1.074,1.109-1.592,1.681c-3.212,3.608-6.428,7.212-9.686,10.776c-5.738,0.919-11.597,2.387-16.374,5.849
							c-1.194,0.886-2.38,1.935-2.933,3.353c-0.488,1.224-0.047,2.72,1.012,3.503c1.206,0.889,2.805,1.002,4.248,0.828
							c2.565-0.382,4.898-1.684,6.896-3.296c3.454-2.777,6.112-6.367,8.932-9.754c1.468-0.203,2.964-0.338,4.443-0.14
							c-0.574,1.641-1.113,3.326-1.191,5.078c-0.044,1.353,0.399,2.856,1.554,3.657c0.545,0.384,1.23,0.396,1.854,0.228
							c-0.426-0.284-1.009-0.422-1.221-0.935c-0.303-0.709-0.225-1.507-0.139-2.257c0.303-1.923,0.963-3.768,1.682-5.575
							c0.771,0.081,1.514,0.312,2.262,0.499c0.113-0.03,0.344-0.087,0.459-0.115c-0.574-0.753-1.607-0.83-2.471-0.97
							c1.606-3.394,3.347-6.728,5.375-9.891C45.354,80.969,45.692,80.39,45.345,79.889z M20.687,100.736
							c-1.525,1.091-3.263,1.936-5.118,2.281c-0.87,0.121-1.895,0.14-2.581-0.506c-0.573-0.585-0.49-1.536-0.097-2.2
							c0.627-1.082,1.634-1.877,2.634-2.602c4.226-3.035,9.336-4.464,14.379-5.447C27.069,95.329,24.047,98.245,20.687,100.736z
							 M37.116,91.016c-1.377-0.108-2.758-0.026-4.125,0.146c1.508-1.621,3.023-3.234,4.494-4.889
							c1.382-1.536,2.729-3.118,4.301-4.467C39.996,84.744,38.344,87.795,37.116,91.016z"/>
					</g>
				</g>
			</g>
		</g>
		<g>
			<g>
				<g>
					<path fill="none" stroke="#FFD468" stroke-width="0.3669" d="M45.345,79.889c-0.598-0.921-1.53-1.776-2.682-1.822
						c-5.477-1.028-11.262-0.797-16.506,1.172c-1.104,0.447-2.328,0.973-2.936,2.063c-0.579,1.114,0.375,2.629,1.644,2.531
						c-0.22-0.205-0.45-0.396-0.675-0.597c0.064-0.938,0.934-1.471,1.67-1.881c1.83-0.924,3.815-1.493,5.807-1.956
						c3.381-0.78,6.879-0.786,10.318-0.499c-0.57,0.519-1.074,1.109-1.592,1.681c-3.212,3.608-6.428,7.212-9.686,10.776
						c-5.738,0.919-11.597,2.387-16.374,5.849c-1.194,0.886-2.38,1.935-2.933,3.353c-0.488,1.224-0.047,2.72,1.012,3.503
						c1.206,0.889,2.805,1.002,4.248,0.828c2.565-0.382,4.898-1.684,6.896-3.296c3.454-2.777,6.112-6.367,8.932-9.754
						c1.468-0.203,2.964-0.338,4.443-0.14c-0.574,1.641-1.113,3.326-1.191,5.078c-0.044,1.353,0.399,2.856,1.554,3.657
						c0.545,0.384,1.23,0.396,1.854,0.228c-0.426-0.284-1.009-0.422-1.221-0.935c-0.303-0.709-0.225-1.507-0.139-2.257
						c0.303-1.923,0.963-3.768,1.682-5.575c0.771,0.081,1.514,0.312,2.262,0.499c0.113-0.03,0.344-0.087,0.459-0.115
						c-0.574-0.753-1.607-0.83-2.471-0.97c1.606-3.394,3.347-6.728,5.375-9.891C45.354,80.969,45.692,80.39,45.345,79.889z
						 M20.687,100.736c-1.525,1.091-3.263,1.936-5.118,2.281c-0.87,0.121-1.895,0.14-2.581-0.506c-0.573-0.585-0.49-1.536-0.097-2.2
						c0.627-1.082,1.634-1.877,2.634-2.602c4.226-3.035,9.336-4.464,14.379-5.447C27.069,95.329,24.047,98.245,20.687,100.736z
						 M37.116,91.016c-1.377-0.108-2.758-0.026-4.125,0.146c1.508-1.621,3.023-3.234,4.494-4.889
						c1.382-1.536,2.729-3.118,4.301-4.467C39.996,84.744,38.344,87.795,37.116,91.016z"/>
				</g>
			</g>
			<g>
				<g>
					<path fill="none" stroke="#FFD468" stroke-width="0.3669" d="M73.669,74.206c0.544-0.947,0.914-2.01,0.791-3.117
						c1.377-0.052,2.723,1.083,2.803,2.479c0,0.9-0.549,1.662-1.014,2.392c-1.451,2.08-3.044,4.06-4.453,6.172
						c1.27-0.583,2.582-1.123,3.967-1.349c0.332-0.077,0.664-0.008,0.943,0.187c-1.49,0.614-3.032,1.105-4.492,1.806
						c-0.58,0.317-1.378,0.404-1.716,1.047c-2.458,3.796-4.823,7.69-6.472,11.915c-0.635,1.675-1.296,3.456-1.031,5.274
						c0.055,0.543,0.458,0.99,1.018,1.026c1.487-0.471,2.599-1.631,3.596-2.775c1.531-1.833,2.893-3.82,3.938-5.975
						c0.93-1.943,1.703-4.023,1.777-6.2c0.031-0.759-0.104-1.602-0.662-2.16c-0.504-0.467-1.241-0.38-1.87-0.435
						c-0.017-0.24-0.132-0.557,0.165-0.678c0.906-0.312,1.961,0.025,2.596,0.734c0.838,0.888,1.107,2.158,1.103,3.347
						c-0.022,2.586-0.946,5.063-2.075,7.354c-1.09,2.072-2.32,4.101-3.92,5.821c-1.032,1.114-2.362,2.091-3.916,2.239
						c-1.531,0.091-2.899-1.055-3.445-2.422c-0.324-0.903-0.35-1.89-0.289-2.839c0.222-2.493,1.228-4.83,2.354-7.034
						c1.095-2.127,2.354-4.162,3.604-6.199c-0.665,0.34-1.3,0.751-2.016,0.975c-0.664,0.114-1.016-0.578-1.329-1.028
						c1.466-0.154,2.774-0.851,4.109-1.414C69.656,80.269,71.857,77.36,73.669,74.206L73.669,74.206z"/>
					<path fill="none" stroke="#FFD468" stroke-width="0.3669" d="M56.939,83.868c0.925-0.608,1.979-1.21,3.118-1.166
						c0.985,0.446,1.867,1.194,2.42,2.126c0.154,0.719,0.279,1.798-0.494,2.21c0.035-0.526,0.283-1.063,0.129-1.594
						c-0.191-0.498-0.808-0.534-1.259-0.502c-1.466,0.138-2.708,1.046-3.79,1.971c-1.871,1.696-3.447,3.775-4.334,6.15
						c-0.327,0.863-0.548,1.766-0.553,2.692c1.623-2.463,3.693-4.58,5.754-6.674c0.309-0.332,0.659-0.712,1.145-0.725
						c0.668,0.086,1.199,0.545,1.684,0.974c-0.787,0.874-0.986,2.092-1.105,3.221c-0.09,0.881-0.077,1.836,0.427,2.605
						c0.219,0.403,0.703,0.502,1.067,0.735c-0.947,0.416-2.039-0.026-2.584-0.866c-1.014-1.394-0.867-3.212-0.602-4.821
						c-2.098,2.117-3.879,4.567-5.237,7.224c-0.2,0.297-0.354,0.809-0.796,0.755c-0.773-0.217-1.336-0.877-1.7-1.558
						c-0.335-1.135-0.167-2.348,0.127-3.467c0.521-1.815,1.412-3.5,2.479-5.048C53.972,86.5,55.313,85,56.939,83.868L56.939,83.868z
						"/>
					<path fill="none" stroke="#FFD468" stroke-width="0.3669" d="M93.104,76.634c0.699-0.354,1.471-0.702,2.271-0.647
						c0.986,0.441,1.859,1.189,2.418,2.115c0.15,0.712,0.304,1.838-0.506,2.197c0.062-0.562,0.369-1.175,0.074-1.716
						c-0.322-0.416-0.908-0.388-1.374-0.341c-1.433,0.218-2.645,1.119-3.707,2.044c-1.789,1.653-3.302,3.651-4.185,5.936
						c-0.348,0.899-0.596,1.847-0.601,2.818c1.754-2.643,3.992-4.913,6.23-7.135c0.808-0.665,1.747,0.175,2.353,0.708
						c-0.791,0.876-0.988,2.101-1.109,3.23c-0.082,0.874-0.07,1.816,0.42,2.579c0.218,0.418,0.707,0.518,1.078,0.75
						c-0.948,0.421-2.045-0.029-2.586-0.864c-1.012-1.396-0.862-3.212-0.596-4.819c-2.17,2.176-3.972,4.721-5.369,7.455
						c-0.162,0.243-0.331,0.593-0.68,0.518c-0.766-0.216-1.322-0.873-1.688-1.552c-0.354-1.222-0.147-2.53,0.204-3.73
						c0.644-2.044,1.719-3.935,3.021-5.629C89.979,79.018,91.382,77.588,93.104,76.634L93.104,76.634z"/>
					<path fill="none" stroke="#FFD468" stroke-width="0.3669" d="M79.519,79.562c0.514-0.363,1.193-0.128,1.673,0.185
						c0.416,0.277,0.835,0.824,0.522,1.324c-1.01,1.94-2.13,3.824-3.129,5.767c1.598-2.24,3.289-4.43,5.24-6.379
						c0.537-0.625,1.375-0.004,1.816,0.438c0.501,0.544-0.104,1.178-0.4,1.654c-0.644,0.938-1.318,2.298-0.441,3.31
						c-0.502,0.037-1.035-0.031-1.397-0.413c-0.809-0.79-0.828-2.054-0.521-3.078c-1.971,2.682-4.256,5.15-5.858,8.086
						c-0.505,0.994-1.052,2.044-1.013,3.192c-0.439-0.081-0.947-0.176-1.177-0.606c-0.581-0.994-0.213-2.186,0.155-3.186
						c1.268-3.021,2.566-6.031,4.014-8.973c-0.9,0.694-1.66,1.567-2.592,2.22c-0.104-0.03-0.305-0.097-0.406-0.126
						c0.326-0.564,0.836-0.98,1.283-1.445C77.996,80.84,78.69,80.114,79.519,79.562L79.519,79.562z"/>
					<path fill="none" stroke="#FFD468" stroke-width="0.3669" d="M45.276,87.459c1.698-0.477,3.199-1.449,4.873-2.001
						c0.738,0.289,1.373,0.883,1.668,1.627c0.041,0.486-0.375,0.825-0.68,1.143c-3.152,3.014-6.182,6.155-9.088,9.407
						c1.621-1.155,3.59-1.673,5.527-1.987c0.574-0.06,1.2-0.189,1.742,0.073c0.133,0.514-0.5,0.514-0.832,0.621
						c-1.568,0.294-3.078,0.891-4.373,1.836c-0.794,0.516-1.444,1.231-2.244,1.742c-1.244,0.217-2.506-1.445-1.688-2.541
						c1.077-1.627,2.354-3.112,3.587-4.63c1.634-2.005,3.54-3.773,5.174-5.776c-1.519,0.994-3.078,2.194-4.962,2.275
						c-1.014-0.012-1.618-1.021-1.705-1.93C43.256,87.536,44.286,87.749,45.276,87.459L45.276,87.459z"/>
					<path fill="none" stroke="#FFD468" stroke-width="0.3669" d="M102.163,75.705c0.746-0.573,1.786-0.141,2.372,0.462
						c0.437,0.449,0.044,1.075-0.14,1.55c-0.969,1.977-2.178,3.825-3.287,5.725c2.064-2.46,3.938-5.101,6.251-7.34
						c0.491-0.462,1.169-1.004,1.884-0.736c0.539,0.214,1.164,0.591,1.242,1.226c-0.184,0.559-0.555,1.031-0.826,1.549
						c-0.906,1.656-1.789,3.355-2.277,5.194c-0.215,0.914-0.305,1.977,0.236,2.798c0.201,0.338,0.64,0.291,0.971,0.384
						c-0.475,0.812-1.639,0.667-2.286,0.164c-1.03-0.73-1.296-2.089-1.2-3.277c0.188-2.257,1.328-4.27,2.254-6.294
						c-2.025,2.188-3.865,4.531-5.621,6.937c-0.876,1.252-1.771,2.515-2.348,3.935c-0.145,0.282-0.055,0.595,0.005,0.886
						c-0.713,0.099-1.556-0.133-1.876-0.835c-0.368-0.845,0.086-1.71,0.424-2.479c1.287-3.03,2.697-6.007,4.119-8.975
						c-0.463,0.425-0.938,0.834-1.417,1.241c-0.253,0.196-0.502,0.464-0.847,0.458c-0.138-0.274,0.104-0.508,0.264-0.703
						C100.7,76.887,101.422,76.279,102.163,75.705L102.163,75.705z"/>
				</g>
				<path fill="none" stroke="#FFD468" stroke-width="0.3669" d="M96.483,71.037c0.449-0.586,1.309-0.132,1.812,0.177
					c0.587,0.426-0.152,0.93-0.493,1.221c-1.555,1.127-3.197,2.274-5.088,2.734c0.121-0.261,0.289-0.496,0.489-0.702
					C94.289,73.316,95.409,72.2,96.483,71.037L96.483,71.037z"/>
			</g>
		</g>
		<g>
			<path fill="#AEDEE4" d="M65.026,102.658c2.945-0.858,5.48-4.186,6.664-7.534C69.907,98.66,67.895,101.034,65.026,102.658z"/>
			<g>
				<path fill="#AEDEE4" d="M86.335,88.386c-0.524-1.716,3.509-11.059,8.57-11.454C89.833,78.238,86.782,85.884,86.335,88.386z"/>
				<path fill="#AEDEE4" d="M50.722,95.359c-0.525-1.717,3.506-11.062,8.568-11.455C54.22,85.211,51.165,92.854,50.722,95.359z"/>
				<path fill="#AEDEE4" d="M76.108,72.629c0,0,1.121,0.631,0.068,2.167c-1.051,1.539-7.609,10.089-9.334,13.776
					c1.562-4.225,8.254-12.903,8.92-13.885C76.593,73.38,76.108,72.629,76.108,72.629z"/>
				<path fill="#AEDEE4" d="M43.752,79.411c0,0,1.188,0.494,0.323,2.144c-0.867,1.648-5.749,9.648-6.705,14.691
					c0.18-4.753,5.733-13.702,6.28-14.754C44.323,80.097,43.752,79.411,43.752,79.411z"/>
				<path fill="#AEDEE4" d="M15.585,104.439c5.375,0.047,10.777-6.378,10.777-6.378S20.964,103.516,15.585,104.439z"/>
				<path fill="#AEDEE4" d="M43.067,88.102c0.607,1.58,3.416-0.371,3.416-0.371S43.802,88.808,43.067,88.102z"/>
				<path fill="#AEDEE4" d="M50.797,86.418c0.112,0.147,0.284,0.371-0.036,0.902c-0.322,0.529-3.785,4.145-7.75,8.025
					C47.628,90.231,50.891,87.337,50.797,86.418z"/>
				<path fill="#AEDEE4" d="M23.687,82.034c0,0-0.098-2.796,10.479-3.964C24.595,79.774,23.687,82.034,23.687,82.034z"/>
				<path fill="#AEDEE4" d="M109.101,75.845c0.257,0.052,0.975,0.408,0.673,0.913c-0.298,0.506-1.694,3.017-3.185,6.591
					C108.384,77.725,109.995,76.862,109.101,75.845z"/>
				<path fill="#AEDEE4" d="M80.368,79.999c0.256,0.062,0.955,0.454,0.633,0.943c-0.324,0.49-1.845,2.931-3.509,6.427
					C79.562,81.839,81.213,81.061,80.368,79.999z"/>
				<path fill="#AEDEE4" d="M97.849,71.29c0.039,0.913-3.117,2.521-3.117,2.521S96.756,72.211,97.849,71.29z"/>
				<path fill="#AEDEE4" d="M84.821,81.061c0,0,0.424-0.016,0.285,0.369c-0.696,0.775-1.15,1.357-1.39,3.387
					C83.235,82.716,84.821,81.061,84.821,81.061z"/>
			</g>
		</g>
		<g>
			<path fill="#AEDEE4" d="M65.026,102.658c2.945-0.858,5.48-4.186,6.664-7.534C69.907,98.66,67.895,101.034,65.026,102.658z"/>
			<g>
				<path fill="#AEDEE4" d="M86.335,88.386c-0.524-1.716,3.509-11.059,8.57-11.454C89.833,78.238,86.782,85.884,86.335,88.386z"/>
				<path fill="#AEDEE4" d="M50.722,95.359c-0.525-1.717,3.506-11.062,8.568-11.455C54.22,85.211,51.165,92.854,50.722,95.359z"/>
				<path fill="#AEDEE4" d="M76.108,72.629c0,0,1.121,0.631,0.068,2.167c-1.051,1.539-7.609,10.089-9.334,13.776
					c1.562-4.225,8.254-12.903,8.92-13.885C76.593,73.38,76.108,72.629,76.108,72.629z"/>
				<path fill="#AEDEE4" d="M43.752,79.411c0,0,1.188,0.494,0.323,2.144c-0.867,1.648-5.749,9.648-6.705,14.691
					c0.18-4.753,5.733-13.702,6.28-14.754C44.323,80.097,43.752,79.411,43.752,79.411z"/>
				<path fill="#AEDEE4" d="M15.585,104.439c5.375,0.047,10.777-6.378,10.777-6.378S20.964,103.516,15.585,104.439z"/>
				<path fill="#AEDEE4" d="M43.067,88.102c0.607,1.58,3.416-0.371,3.416-0.371S43.802,88.808,43.067,88.102z"/>
				<path fill="#AEDEE4" d="M50.797,86.418c0.112,0.147,0.284,0.371-0.036,0.902c-0.322,0.529-3.785,4.145-7.75,8.025
					C47.628,90.231,50.891,87.337,50.797,86.418z"/>
				<path fill="#AEDEE4" d="M23.687,82.034c0,0-0.098-2.796,10.479-3.964C24.595,79.774,23.687,82.034,23.687,82.034z"/>
				<path fill="#AEDEE4" d="M109.101,75.845c0.257,0.052,0.975,0.408,0.673,0.913c-0.298,0.506-1.694,3.017-3.185,6.591
					C108.384,77.725,109.995,76.862,109.101,75.845z"/>
				<path fill="#AEDEE4" d="M80.368,79.999c0.256,0.062,0.955,0.454,0.633,0.943c-0.324,0.49-1.845,2.931-3.509,6.427
					C79.562,81.839,81.213,81.061,80.368,79.999z"/>
				<path fill="#AEDEE4" d="M97.849,71.29c0.039,0.913-3.117,2.521-3.117,2.521S96.756,72.211,97.849,71.29z"/>
				<path fill="#AEDEE4" d="M84.821,81.061c0,0,0.424-0.016,0.285,0.369c-0.696,0.775-1.15,1.357-1.39,3.387
					C83.235,82.716,84.821,81.061,84.821,81.061z"/>
			</g>
		</g>
	</g>
</g>
</svg>
